{
.appVersion = "3521";
.formatVersion = 3;
DisplayStrings = (
es,
o
);
axes = (
{
name = Weight;
tag = wght;
},
{
name = XTRA;
tag = XTRA;
},
{
name = XOPQ;
tag = XOPQ;
},
{
name = YOPQ;
tag = YOPQ;
},
{
name = "Optical size";
tag = opsz;
}
);
classes = (
{
automatic = 1;
code = "A B C D E F G H I J L M N O P Q R S T U V W X Y Z";
name = Uppercase;
}
);
customParameters = (
{
name = fsType;
value = (
);
},
{
name = "Write lastChange";
value = 0;
},
{
name = "Use Line Breaks";
value = 1;
},
{
name = "Use Typo Metrics";
value = 1;
}
);
date = "2026-03-13 20:55:36 +0000";
familyName = Saira;
featurePrefixes = (
{
automatic = 1;
code = "languagesystem DFLT dflt;
";
name = Languagesystems;
}
);
features = (
{
automatic = 1;
code = "lookup ccmp_DFLT_1 {
	@CombiningTopAccents = [acutecomb dieresiscomb dotaccentcomb];
	lookupflag UseMarkFilteringSet @CombiningTopAccents;
	sub i' @CombiningTopAccents by idotless;
	sub j' @CombiningTopAccents by jdotless;
} ccmp_DFLT_1;
";
tag = ccmp;
}
);
fontMaster = (
{
axesValues = (
400,
100,
400,
400,
24
);
customParameters = (
{
name = "Master Icon Glyph Name";
value = R;
},
{
name = underlineThickness;
value = 70.32609;
},
{
name = underlinePosition;
value = -160;
},
{
name = TTFZones;
value = (
{
name = ascender;
pos = 750;
size = 16;
},
{
name = capHeight;
pos = 688;
size = 9;
},
{
name = xHeight;
pos = 510;
size = 9;
},
{
name = baseline;
pos = 0;
size = -9;
},
{
name = descender;
pos = -250;
size = -16;
}
);
},
{
name = hheaAscender;
value = 1130;
},
{
name = hheaDescender;
value = -440;
},
{
name = hheaLineGap;
value = 0;
},
{
name = typoAscender;
value = 1130;
},
{
name = typoDescender;
value = -440;
},
{
name = typoLineGap;
value = 0;
},
{
name = winAscent;
value = 745;
},
{
name = winDescent;
value = 200;
}
);
id = m009;
metricValues = (
{
over = 16;
pos = 743;
},
{
over = 9;
pos = 688;
},
{
over = 9;
pos = 510;
},
{
over = -9;
},
{
over = -9;
pos = -200;
},
{
}
);
name = REGULAR;
stemValues = (
82,
82,
76,
70,
70,
70,
82,

glyphs = (
{
color = 4;
glyphname = A;
kernLeft = A;
kernRight = A;
layers = (
{
anchors = (
{
name = bottom;
pos = (313,0);
},
{
name = ogonek;
pos = (563,10);
},
{
name = top;
pos = (313,688);
}
);
layerId = m009;
shapes = (
{
closed = 1;
nodes = (
(97,0,l),
(310,620,l),
(316,620,l),
(529,0,l),
(616,0,l),
(377,688,l),
(249,688,l),
(10,0,l)
);
},
{
closed = 1;
nodes = (
(500,189,l),
(473,263,l),
(152,263,l),
(125,189,l)
);
}
);
width = 626;
},
{
anchors = (
{
name = bottom;
pos = (170,0);
},
{
name = ogonek;
pos = (305,10);
},
{
name = top;
pos = (170,688);
}
);
layerId = m010;
shapes = (
{
closed = 1;
nodes = (
(88,0,l),
(168,620,l),
(172,620,l),
(252,0,l),
(335,0,l),
(238,688,l),
(102,688,l),
(5,0,l)
);
},
{
closed = 1;
nodes = (
(272,189,l),
(247,263,l),
(93,263,l),
(68,189,l)
);
}
);
width = 340;
},
{
anchors = (
{
name = bottom;
pos = (393,0);
},
{
name = ogonek;
pos = (706,10);
},
{
name = top;
pos = (393,688);
}
);
layerId = m011;
shapes = (
{
closed = 1;
nodes = (
(101,0,l),
(391,624,l),
(395,624,l),
(685,0,l),
(776,0,l),
(453,688,l),
(333,688,l),
(10,0,l)
);
},
{
closed = 1;
nodes = (
(636,189,l),
(605,263,l),
(176,263,l),
(145,189,l)
);
}
);
width = 786;
},
{
anchors = (
{
name = bottom;
pos = (275,0);
},
{
name = ogonek;
pos = (495,10);
},
{
name = top;
pos = (275,688);
}
);
layerId = m012;
shapes = (
{
closed = 1;
nodes = (
(97,0,l),
(308,643,l),
(314,643,l),
(529,0,l),
(540,0,l),
(310,688,l),
(240,688,l),
(10,0,l)
);
},
{
closed = 1;
nodes = (
(469,189,l),
(444,263,l),
(153,263,l),
(126,189,l)
);
}
);
width = 550;
},
{
anchors = (
{
name = bottom;
pos = (390,0);
},
{
name = ogonek;
pos = (702,10);
},
{
name = top;
pos = (390,688);
}
);
guides = (
{
pos = (-125,32);
showMeasurement = 1;
}
);
layerId = m013;
shapes = (
{
closed = 1;
nodes = (
(96,0,l),
(308,570,l),
(314,570,l),
(525,0,l),
(762,0,l),
(497,688,l),
(274,688,l),
(8,0,l)
);
},
{
closed = 1;
nodes = (
(569,189,l),
(547,263,l),
(159,263,l),
(136,189,l)
);
}
);
width = 770;
},
{
anchors = (
{
name = bottom;
pos = (275,0);
},
{
name = ogonek;
pos = (495,10);
},
{
name = top;
pos = (275,688);
}
);
guides = (
{
angle = 90;
pos = (182,303);
showMeasurement = 1;
},
{
angle = 90;
pos = (312,303);
showMeasurement = 1;
}
);
layerId = m014;
shapes = (
{
closed = 1;
nodes = (
(21,0,l),
(236,643,l),
(242,643,l),
(453,0,l),
(540,0,l),
(310,688,l),
(240,688,l),
(10,0,l)
);
},
{
closed = 1;
nodes = (
(414,222,l),
(410,232,l),
(95,232,l),
(92,222,l)
);
}
);
width = 550;
},
{
anchors = (
{
name = bottom;
pos = (380,0);
},
{
name = ogonek;
pos = (692,10);
},
{
name = top;
pos = (380,688);
}
);
layerId = m015;
shapes = (
{
closed = 1;
nodes = (
(245,0,l),
(456,570,l),
(462,570,l),
(674,0,l),
(762,0,l),
(496,688,l),
(273,688,l),
(8,0,l)
);
},
{
closed = 1;
nodes = (
(665,126,l),
(588,326,l),
(252,326,l),
(177,126,l)
);
}
);
width = 770;
},
{
anchors = (
{
name = bottom;
pos = (314,0);
},
{
name = ogonek;
pos = (565,10);
},
{
name = top;
pos = (314,688);
}
);
layerId = m016;
shapes = (
{
closed = 1;
nodes = (
(98,0,l),
(312,600,l),
(316,600,l),
(530,0,l),
(617,0,l),
(367,688,l),
(261,688,l),
(11,0,l)
);
},
{
closed = 1;
nodes = (
(501,191,l),
(477,261,l),
(150,261,l),
(126,191,l)
);
}
);
width = 628;
},
{
anchors = (
{
name = bottom;
pos = (275,0);
},
{
name = ogonek;
pos = (495,10);
},
{
name = top;
pos = (275,688);
}
);
associatedMasterId = m012;
layerId = "5FA357AC-2227-426A-92FB-F1C817FA2D3E";
name = "9 Apr 26 at 15:38";
shapes = (
{
closed = 1;
nodes = (
(97,0,l),
(310,612,l),
(316,612,l),
(529,0,l),
(540,0,l),
(300,688,l),
(256,688,l),
(10,0,l)
);
},
{
closed = 1;
nodes = (
(468,189,l),
(442,263,l),
(152,263,l),
(125,189,l)
);
}
);
width = 550;
},
{
anchors = (
{
name = bottom;
pos = (275,0);
},
{
name = ogonek;
pos = (495,10);
},
{
name = top;
pos = (275,688);
}
);
associatedMasterId = m014;
layerId = "32F5C655-FF40-4A71-A30A-97EF7D2383B6";
name = "9 Apr 26 at 15:38";
shapes = (
{
closed = 1;
nodes = (
(21,0,l),
(234,612,l),
(240,612,l),
(453,0,l),
(540,0,l),
(294,688,l),
(250,688,l),
(10,0,l)
);
},
{
closed = 1;
nodes = (
(413,221,l),
(409,231,l),
(96,231,l),
(93,221,l)
);
}
);
width = 550;
}
);
metricLeft = "=H*.10";
metricRight = "=|";
unicode = 65;
},
{
glyphname = B;
kernLeft = H;
kernRight = B;
layers = (
{
anchors = (
{
name = bottom;
pos = (341.283,0);
},
{
name = top;
pos = (341.283,688);
}
);
layerId = m009;
shapes = (
{
closed = 1;
nodes = (
(416.261,0,l),
(575.283,0,o),
(609.609,84.13,o),
(609.609,181.087,cs),
(609.609,264.761,o),
(586.37,330.913,o),
(484.609,349.457,c),
(484.609,353.457,l),
(567.978,370,o),
(602.152,426.022,o),
(602.152,515.457,cs),
(602.152,620.978,o),
(555.826,688,o),
(419.826,688,cs),
(99.783,688,l),
(99.783,0,l)
);
},
{
closed = 1;
nodes = (
(185.783,311.348,l),
(395.804,311.348,ls),
(489.391,311.348,o),
(523.609,277.478,o),
(523.609,192.239,cs),
(523.609,107.37,o),
(494.13,73.674,o),
(395.804,73.674,cs),
(185.783,73.674,l)
);
},
{
closed = 1;
nodes = (
(185.783,613.783,l),
(391.717,613.783,ls),
(490.13,613.783,o),
(516.152,582.087,o),
(516.152,499.13,cs),
(516.152,422.261,o),
(476.652,385.565,o),
(391.717,385.565,cs),
(185.783,385.565,l)
);
}
);
width = 681.56522;
},
{
anchors = (
{
name = bottom;
pos = (341.283,0);
},
{
name = top;
pos = (341.283,688);
}
);
layerId = m010;
shapes = (
{
closed = 1;
nodes = (
(416.261,0,l),
(575.283,0,o),
(609.609,84.13,o),
(609.609,181.087,cs),
(609.609,264.761,o),
(586.37,330.913,o),
(484.609,349.457,c),
(484.609,353.457,l),
(567.978,370,o),
(602.152,426.022,o),
(602.152,515.457,cs),
(602.152,620.978,o),
(555.826,688,o),
(419.826,688,cs),
(99.783,688,l),
(99.783,0,l)
);
},
{
closed = 1;
nodes = (
(185.783,311.348,l),
(395.804,311.348,ls),
(489.391,311.348,o),
(523.609,277.478,o),
(523.609,192.239,cs),
(523.609,107.37,o),
(494.13,73.674,o),
(395.804,73.674,cs),
(185.783,73.674,l)
);
},
{
closed = 1;
nodes = (
(185.783,613.783,l),
(391.717,613.783,ls),
(490.13,613.783,o),
(516.152,582.087,o),
(516.152,499.13,cs),
(516.152,422.261,o),
(476.652,385.565,o),
(391.717,385.565,cs),
(185.783,385.565,l)
);
}
);
width = 681.56522;
},
{
anchors = (
{
name = bottom;
pos = (341.283,0);
},
{
name = top;
pos = (341.283,688);
}
);
layerId = m011;
shapes = (
{
closed = 1;
nodes = (
(416.261,0,l),
(575.283,0,o),
(609.609,84.13,o),
(609.609,181.087,cs),
(609.609,264.761,o),
(586.37,330.913,o),
(484.609,349.457,c),
(484.609,353.457,l),
(567.978,370,o),
(602.152,426.022,o),
(602.152,515.457,cs),
(602.152,620.978,o),
(555.826,688,o),
(419.826,688,cs),
(99.783,688,l),
(99.783,0,l)
);
},
{
closed = 1;
nodes = (
(185.783,311.348,l),
(395.804,311.348,ls),
(489.391,311.348,o),
(523.609,277.478,o),
(523.609,192.239,cs),
(523.609,107.37,o),
(494.13,73.674,o),
(395.804,73.674,cs),
(185.783,73.674,l)
);
},
{
closed = 1;
nodes = (
(185.783,613.783,l),
(391.717,613.783,ls),
(490.13,613.783,o),
(516.152,582.087,o),
(516.152,499.13,cs),
(516.152,422.261,o),
(476.652,385.565,o),
(391.717,385.565,cs),
(185.783,385.565,l)
);
}
);
width = 681.56522;
},
{
anchors = (
{
name = bottom;
pos = (341.283,0);
},
{
name = top;
pos = (341.283,688);
}
);
layerId = m012;
shapes = (
{
closed = 1;
nodes = (
(416.261,0,l),
(575.283,0,o),
(609.609,84.13,o),
(609.609,181.087,cs),
(609.609,264.761,o),
(586.37,330.913,o),
(484.609,349.457,c),
(484.609,353.457,l),
(567.978,370,o),
(602.152,426.022,o),
(602.152,515.457,cs),
(602.152,620.978,o),
(555.826,688,o),
(419.826,688,cs),
(99.783,688,l),
(99.783,0,l)
);
},
{
closed = 1;
nodes = (
(185.783,311.348,l),
(395.804,311.348,ls),
(489.391,311.348,o),
(523.609,277.478,o),
(523.609,192.239,cs),
(523.609,107.37,o),
(494.13,73.674,o),
(395.804,73.674,cs),
(185.783,73.674,l)
);
},
{
closed = 1;
nodes = (
(185.783,613.783,l),
(391.717,613.783,ls),
(490.13,613.783,o),
(516.152,582.087,o),
(516.152,499.13,cs),
(516.152,422.261,o),
(476.652,385.565,o),
(391.717,385.565,cs),
(185.783,385.565,l)
);
}
);
width = 681.56522;
},
{
anchors = (
{
name = bottom;
pos = (341.283,0);
},
{
name = top;
pos = (341.283,688);
}
);
layerId = m013;
shapes = (
{
closed = 1;
nodes = (
(416.261,0,l),
(575.283,0,o),
(609.609,84.13,o),
(609.609,181.087,cs),
(609.609,264.761,o),
(586.37,330.913,o),
(484.609,349.457,c),
(484.609,353.457,l),
(567.978,370,o),
(602.152,426.022,o),
(602.152,515.457,cs),
(602.152,620.978,o),
(555.826,688,o),
(419.826,688,cs),
(99.783,688,l),
(99.783,0,l)
);
},
{
closed = 1;
nodes = (
(185.783,311.348,l),
(395.804,311.348,ls),
(489.391,311.348,o),
(523.609,277.478,o),
(523.609,192.239,cs),
(523.609,107.37,o),
(494.13,73.674,o),
(395.804,73.674,cs),
(185.783,73.674,l)
);
},
{
closed = 1;
nodes = (
(185.783,613.783,l),
(391.717,613.783,ls),
(490.13,613.783,o),
(516.152,582.087,o),
(516.152,499.13,cs),
(516.152,422.261,o),
(476.652,385.565,o),
(391.717,385.565,cs),
(185.783,385.565,l)
);
}
);
width = 681.56522;
},
{
anchors = (
{
name = bottom;
pos = (341.283,0);
},
{
name = top;
pos = (341.283,688);
}
);
layerId = m014;
shapes = (
{
closed = 1;
nodes = (
(416.261,0,l),
(575.283,0,o),
(609.609,84.13,o),
(609.609,181.087,cs),
(609.609,264.761,o),
(586.37,330.913,o),
(484.609,349.457,c),
(484.609,353.457,l),
(567.978,370,o),
(602.152,426.022,o),
(602.152,515.457,cs),
(602.152,620.978,o),
(555.826,688,o),
(419.826,688,cs),
(99.783,688,l),
(99.783,0,l)
);
},
{
closed = 1;
nodes = (
(185.783,311.348,l),
(395.804,311.348,ls),
(489.391,311.348,o),
(523.609,277.478,o),
(523.609,192.239,cs),
(523.609,107.37,o),
(494.13,73.674,o),
(395.804,73.674,cs),
(185.783,73.674,l)
);
},
{
closed = 1;
nodes = (
(185.783,613.783,l),
(391.717,613.783,ls),
(490.13,613.783,o),
(516.152,582.087,o),
(516.152,499.13,cs),
(516.152,422.261,o),
(476.652,385.565,o),
(391.717,385.565,cs),
(185.783,385.565,l)
);
}
);
width = 681.56522;
},
{
anchors = (
{
name = bottom;
pos = (341.283,0);
},
{
name = top;
pos = (341.283,688);
}
);
layerId = m015;
shapes = (
{
closed = 1;
nodes = (
(416.261,0,l),
(575.283,0,o),
(609.609,84.13,o),
(609.609,181.087,cs),
(609.609,264.761,o),
(586.37,330.913,o),
(484.609,349.457,c),
(484.609,353.457,l),
(567.978,370,o),
(602.152,426.022,o),
(602.152,515.457,cs),
(602.152,620.978,o),
(555.826,688,o),
(419.826,688,cs),
(99.783,688,l),
(99.783,0,l)
);
},
{
closed = 1;
nodes = (
(185.783,311.348,l),
(395.804,311.348,ls),
(489.391,311.348,o),
(523.609,277.478,o),
(523.609,192.239,cs),
(523.609,107.37,o),
(494.13,73.674,o),
(395.804,73.674,cs),
(185.783,73.674,l)
);
},
{
closed = 1;
nodes = (
(185.783,613.783,l),
(391.717,613.783,ls),
(490.13,613.783,o),
(516.152,582.087,o),
(516.152,499.13,cs),
(516.152,422.261,o),
(476.652,385.565,o),
(391.717,385.565,cs),
(185.783,385.565,l)
);
}
);
width = 681.56522;
},
{
anchors = (
{
name = bottom;
pos = (341.283,0);
},
{
name = top;
pos = (341.283,688);
}
);
layerId = m016;
shapes = (
{
closed = 1;
nodes = (
(416.261,0,l),
(575.283,0,o),
(609.609,84.13,o),
(609.609,181.087,cs),
(609.609,264.761,o),
(586.37,330.913,o),
(484.609,349.457,c),
(484.609,353.457,l),
(567.978,370,o),
(602.152,426.022,o),
(602.152,515.457,cs),
(602.152,620.978,o),
(555.826,688,o),
(419.826,688,cs),
(99.783,688,l),
(99.783,0,l)
);
},
{
closed = 1;
nodes = (
(185.783,311.348,l),
(395.804,311.348,ls),
(489.391,311.348,o),
(523.609,277.478,o),
(523.609,192.239,cs),
(523.609,107.37,o),
(494.13,73.674,o),
(395.804,73.674,cs),
(185.783,73.674,l)
);
},
{
closed = 1;
nodes = (
(185.783,613.783,l),
(391.717,613.783,ls),
(490.13,613.783,o),
(516.152,582.087,o),
(516.152,499.13,cs),
(516.152,422.261,o),
(476.652,385.565,o),
(391.717,385.565,cs),
(185.783,385.565,l)
);
}
);
width = 681.56522;
}
);
unicode = 66;
},
{
color = 4;
glyphname = C;
kernLeft = O;
kernRight = C;
layers = (
{
anchors = (
{
name = bottom;
pos = (284,0);
},
{
name = top;
pos = (284,688);
}
);
layerId = m009;
shapes = (
{
closed = 1;
nodes = (
(410,-8,o),
(476,-3,o),
(514,5,c),
(514,76,l),
(477,70,o),
(414,66,o),
(354,66,cs),
(171,66,o),
(158,83,o),
(158,310,cs),
(158,378,ls),
(158,605,o),
(171,622,o),
(354,622,cs),
(411,622,o),
(467,618,o),
(510,612,c),
(510,681,l),
(473,690,o),
(408,696,o),
(354,696,cs),
(118,696,o),
(76,644,o),
(76,349,cs),
(76,339,ls),
(76,44,o),
(118,-8,o),
(354,-8,cs)
);
}
);
width = 609;
},
{
anchors = (
{
name = bottom;
pos = (146,0);
},
{
name = top;
pos = (146,688);
}
);
layerId = m010;
shapes = (
{
closed = 1;
nodes = (
(217,-8,o),
(249,-5,o),
(267,0,c),
(267,73,l),
(248,69,o),
(217,66,o),
(190,66,cs),
(121,66,o),
(117,82,o),
(117,310,cs),
(117,378,ls),
(117,606,o),
(121,622,o),
(190,622,cs),
(209,622,o),
(235,620,o),
(265,615,c),
(265,686,l),
(247,692,o),
(216,696,o),
(190,696,cs),
(54,696,o),
(35,642,o),
(35,349,cs),
(35,339,ls),
(35,46,o),
(54,-8,o),
(190,-8,cs)
);
}
);
width = 315;
},
{
anchors = (
{
name = bottom;
pos = (375,0);
},
{
name = top;
pos = (375,688);
}
);
layerId = m011;
shapes = (
{
closed = 1;
nodes = (
(530,-8,o),
(631,-1,o),
(698,10,c),
(698,81,l),
(643,71,o),
(554,66,o),
(444,66,cs),
(174,66,o),
(152,84,o),
(152,310,cs),
(152,378,ls),
(152,601,o),
(178,622,o),
(444,622,cs),
(547,622,o),
(634,617,o),
(693,607,c),
(693,676,l),
(627,688,o),
(525,696,o),
(444,696,cs),
(129,696,o),
(70,643,o),
(70,349,cs),
(70,339,ls),
(70,43,o),
(124,-8,o),
(444,-8,cs)
);
}
);
width = 793;
},
{
anchors = (
{
name = bottom;
pos = (248,0);
},
{
name = top;
pos = (248,688);
}
);
layerId = m012;
shapes = (
{
closed = 1;
nodes = (
(338,-8,o),
(404,-3,o),
(442,5,c),
(442,76,l),
(405,70,o),
(342,66,o),
(282,66,cs),
(109,66,o),
(86,95,o),
(86,310,cs),
(86,378,ls),
(86,593,o),
(109,622,o),
(282,622,cs),
(339,622,o),
(395,619,o),
(438,612,c),
(438,681,l),
(401,690,o),
(336,696,o),
(282,696,cs),
(107,696,o),
(76,644,o),
(76,349,cs),
(76,339,ls),
(76,44,o),
(107,-8,o),
(282,-8,cs)
);
}
);
width = 537;
},
{
anchors = (
{
name = bottom;
pos = (284,0);
},
{
name = top;
pos = (284,688);
}
);
layerId = m014;
shapes = (
{
closed = 1;
nodes = (
(410,-8,o),
(476,-3,o),
(514,5,c),
(514,14,l),
(477,7,o),
(414,2,o),
(354,2,cs),
(171,2,o),
(158,24,o),
(158,310,cs),
(158,378,ls),
(158,664,o),
(171,686,o),
(354,686,cs),
(411,686,o),
(467,681,o),
(510,673,c),
(510,682,l),
(473,690,o),
(408,696,o),
(354,696,cs),
(118,696,o),
(76,644,o),
(76,349,cs),
(76,339,ls),
(76,44,o),
(118,-8,o),
(354,-8,cs)
);
}
);
width = 609;
},
{
anchors = (
{
name = bottom;
pos = (270,0);
},
{
name = top;
pos = (270,688);
}
);
layerId = m015;
shapes = (
{
closed = 1;
nodes = (
(394,-8,o),
(460,-3,o),
(498,5,c),
(498,177,l),
(461,174,o),
(398,172,o),
(338,172,cs),
(155,172,o),
(142,183,o),
(142,310,cs),
(142,378,ls),
(142,505,o),
(155,516,o),
(338,516,cs),
(395,516,o),
(451,514,o),
(494,511,c),
(494,681,l),
(457,690,o),
(392,696,o),
(338,696,cs),
(102,696,o),
(60,644,o),
(60,349,cs),
(60,339,ls),
(60,44,o),
(102,-8,o),
(338,-8,cs)
);
}
);
width = 572;
},
{
anchors = (
{
name = bottom;
pos = (311,0);
},
{
name = top;
pos = (311,688);
}
);
layerId = m016;
shapes = (
{
closed = 1;
nodes = (
(443,-8,o),
(515,-3,o),
(561,6,c),
(561,88,l),
(520,81,o),
(454,77,o),
(387,77,cs),
(196,77,o),
(183,94,o),
(183,310,cs),
(183,378,ls),
(183,593,o),
(197,611,o),
(387,611,cs),
(449,611,o),
(507,607,o),
(557,600,c),
(557,679,l),
(514,689,o),
(441,696,o),
(381,696,cs),
(131,696,o),
(87,641,o),
(87,350,cs),
(87,338,ls),
(87,47,o),
(130,-8,o),
(381,-8,cs)
);
}
);
width = 665;
},
{
anchors = (
{
name = bottom;
pos = (591,0);
},
{
name = top;
pos = (591,688);
}
);
associatedMasterId = m013;
layerId = "AF92D534-AB28-49B4-BD69-19B96CBF5720";
name = "28 Mar 26 14:07";
shapes = (
{
closed = 1;
nodes = (
(688,-8,o),
(766,-3,o),
(810,5,c),
(810,78,l),
(765,72,o),
(686,68,o),
(610,68,cs),
(376,68,o),
(358,85,o),
(358,310,cs),
(358,378,ls),
(358,603,o),
(376,620,o),
(610,620,cs),
(692,620,o),
(762,617,o),
(805,610,c),
(805,681,l),
(761,690,o),
(683,696,o),
(618,696,cs),
(160,696,o),
(76,644,o),
(76,349,cs),
(76,339,ls),
(76,44,o),
(160,-8,o),
(618,-8,cs)
);
}
);
width = 863;
},
{
anchors = (
{
name = bottom;
pos = (363,0);
},
{
name = top;
pos = (363,688);
}
);
layerId = m013;
name = "XOPQ-max - 212";
shapes = (
{
closed = 1;
nodes = (
(542,-8,o),
(608,-3,o),
(646,5,c),
(646,76,l),
(609,70,o),
(546,66,o),
(486,66,cs),
(303,66,o),
(290,83,o),
(290,310,cs),
(290,378,ls),
(290,605,o),
(303,622,o),
(486,622,cs),
(543,622,o),
(599,618,o),
(642,612,c),
(642,681,l),
(605,690,o),
(540,696,o),
(486,696,cs),
(124,696,o),
(60,644,o),
(60,349,cs),
(60,339,ls),
(60,44,o),
(124,-8,o),
(486,-8,cs)
);
}
);
width = 720;
}
);
metricLeft = O;
metricRight = "=H*.95";
unicode = 67;
},
{
color = 4;
glyphname = D;
kernLeft = H;
kernRight = O;
layers = (
{
anchors = (
{
name = bottom;
pos = (340,0);
},
{
name = center;
pos = (170,344);
},
{
name = top;
pos = (340,688);
}
);
layerId = m009;
shapes = (
{
closed = 1;
nodes = (
(326,0,ls),
(562,0,o),
(604,51,o),
(604,339,cs),
(604,349,ls),
(604,637,o),
(562,688,o),
(326,688,cs),
(100,688,l),
(100,0,l)
);
},
{
closed = 1;
nodes = (
(182,651,l),
(145,614,l),
(326,614,ls),
(509,614,o),
(522,597,o),
(522,377,cs),
(522,311,ls),
(522,91,o),
(509,74,o),
(326,74,cs),
(145,74,l),
(182,37,l)
);
}
);
width = 680;
},
{
anchors = (
{
name = bottom;
pos = (187,0);
},
{
name = center;
pos = (98,344);
},
{
name = top;
pos = (187,688);
}
);
layerId = m010;
shapes = (
{
closed = 1;
nodes = (
(163,0,ls),
(310,0,o),
(328,38,o),
(328,339,cs),
(328,349,ls),
(328,650,o),
(310,688,o),
(163,688,cs),
(50,688,l),
(50,0,l)
);
},
{
closed = 1;
nodes = (
(132,651,l),
(96,614,l),
(164,614,ls),
(242,614,o),
(246,601,o),
(246,377,cs),
(246,311,ls),
(246,87,o),
(242,74,o),
(164,74,cs),
(96,74,l),
(132,37,l)
);
}
);
width = 363;
},
{
anchors = (
{
name = bottom;
pos = (420,0);
},
{
name = center;
pos = (218,344);
},
{
name = top;
pos = (420,688);
}
);
layerId = m011;
shapes = (
{
closed = 1;
nodes = (
(382,0,ls),
(705,0,o),
(760,49,o),
(760,339,cs),
(760,349,ls),
(760,639,o),
(705,688,o),
(382,688,cs),
(100,688,l),
(100,0,l)
);
},
{
closed = 1;
nodes = (
(182,651,l),
(144,614,l),
(380,614,ls),
(651,614,o),
(678,592,o),
(678,377,cs),
(678,311,ls),
(678,96,o),
(651,74,o),
(380,74,cs),
(144,74,l),
(182,37,l)
);
}
);
width = 830;
},
{
anchors = (
{
name = bottom;
pos = (268,0);
},
{
name = center;
pos = (134,344);
},
{
name = top;
pos = (268,688);
}
);
layerId = m012;
shapes = (
{
closed = 1;
nodes = (
(218,0,ls),
(423,0,o),
(460,51,o),
(460,339,cs),
(460,349,ls),
(460,637,o),
(423,688,o),
(218,688,cs),
(100,688,l),
(100,0,l)
);
},
{
closed = 1;
nodes = (
(110,651,l),
(105,614,l),
(218,614,ls),
(422,614,o),
(450,586,o),
(450,377,cs),
(450,311,ls),
(450,102,o),
(422,74,o),
(218,74,cs),
(105,74,l),
(110,37,l)
);
}
);
width = 536;
},
{
anchors = (
{
name = bottom;
pos = (469,0);
},
{
name = center;
pos = (235,344);
},
{
name = top;
pos = (469,688);
}
);
layerId = m013;
shapes = (
{
closed = 1;
nodes = (
(452,0,ls),
(814,0,o),
(878,51,o),
(878,339,cs),
(878,349,ls),
(878,637,o),
(814,688,o),
(452,688,cs),
(78,688,l),
(78,0,l)
);
},
{
closed = 1;
nodes = (
(308,651,l),
(204,614,l),
(452,614,ls),
(635,614,o),
(648,597,o),
(648,377,cs),
(648,311,ls),
(648,91,o),
(635,74,o),
(452,74,cs),
(204,74,l),
(308,37,l)
);
}
);
width = 938;
},
{
anchors = (
{
name = bottom;
pos = (340,0);
},
{
name = center;
pos = (170,344);
},
{
name = top;
pos = (340,688);
}
);
layerId = m014;
shapes = (
{
closed = 1;
nodes = (
(326,0,ls),
(562,0,o),
(604,51,o),
(604,339,cs),
(604,349,ls),
(604,637,o),
(562,688,o),
(326,688,cs),
(100,688,l),
(100,0,l)
);
},
{
closed = 1;
nodes = (
(182,680,l),
(145,675,l),
(326,675,ls),
(509,675,o),
(522,653,o),
(522,377,cs),
(522,311,ls),
(522,31,o),
(509,10,o),
(326,10,cs),
(145,10,l),
(182,5,l)
);
}
);
width = 680;
},
{
anchors = (
{
name = bottom;
pos = (321,0);
},
{
name = center;
pos = (161,344);
},
{
name = top;
pos = (321,688);
}
);
layerId = m015;
shapes = (
{
closed = 1;
nodes = (
(304,0,ls),
(540,0,o),
(582,51,o),
(582,339,cs),
(582,349,ls),
(582,637,o),
(540,688,o),
(304,688,cs),
(78,688,l),
(78,0,l)
);
},
{
closed = 1;
nodes = (
(160,525,l),
(123,508,l),
(304,508,ls),
(485,508,o),
(500,499,o),
(500,377,cs),
(500,311,ls),
(500,189,o),
(485,180,o),
(304,180,cs),
(123,180,l),
(160,162,l)
);
}
);
width = 642;
},
{
anchors = (
{
name = bottom;
pos = (401,0);
},
{
name = center;
pos = (200,344);
},
{
name = top;
pos = (401,688);
}
);
layerId = m016;
shapes = (
{
closed = 1;
nodes = (
(375,0,ls),
(660,0,o),
(714,54,o),
(714,338,cs),
(714,350,ls),
(714,634,o),
(660,688,o),
(375,688,cs),
(109,688,l),
(109,0,l)
);
},
{
closed = 1;
nodes = (
(205,652,l),
(156,604,l),
(374,604,ls),
(596,604,o),
(618,584,o),
(618,377,cs),
(618,311,ls),
(618,105,o),
(596,84,o),
(374,84,cs),
(156,84,l),
(205,35,l)
);
}
);
width = 801;
}
);
metricLeft = H;
metricRight = O;
unicode = 68;
},
{
color = 4;
glyphname = E;
kernLeft = H;
kernRight = E;
layers = (
{
anchors = (
{
name = bottom;
pos = (297,0);
},
{
name = ogonek;
pos = (534,10);
},
{
name = top;
pos = (297,688);
},
{
name = topleft;
pos = (20,688);
}
);
layerId = m009;
shapes = (
{
closed = 1;
nodes = (
(145,311,l),
(496,311,l),
(496,385,l),
(145,385,l)
);
},
{
closed = 1;
nodes = (
(182,651,l),
(145,614,l),
(543,614,l),
(543,688,l),
(100,688,l),
(100,0,l),
(543,0,l),
(543,74,l),
(145,74,l),
(182,37,l)
);
}
);
width = 593;
},
{
anchors = (
{
name = bottom;
pos = (162,0);
},
{
name = ogonek;
pos = (283,10);
},
{
name = top;
pos = (162,688);
},
{
name = topleft;
pos = (30,688);
}
);
layerId = m010;
shapes = (
{
closed = 1;
nodes = (
(95,311,l),
(266,311,l),
(266,385,l),
(95,385,l)
);
},
{
closed = 1;
nodes = (
(132,651,l),
(95,614,l),
(293,614,l),
(293,688,l),
(50,688,l),
(50,0,l),
(293,0,l),
(293,74,l),
(95,74,l),
(132,37,l)
);
}
);
width = 318;
},
{
anchors = (
{
name = bottom;
pos = (386,0);
},
{
name = ogonek;
pos = (681,10);
},
{
name = top;
pos = (386,688);
},
{
name = topleft;
pos = (36,688);
}
);
layerId = m011;
shapes = (
{
closed = 1;
nodes = (
(145,311,l),
(666,311,l),
(666,385,l),
(145,385,l)
);
},
{
closed = 1;
nodes = (
(182,651,l),
(145,612,l),
(713,612,l),
(713,688,l),
(100,688,l),
(100,0,l),
(713,0,l),
(713,76,l),
(145,76,l),
(182,37,l)
);
}
);
width = 763;
},
{
anchors = (
{
name = bottom;
pos = (252,0);
},
{
name = ogonek;
pos = (453,10);
},
{
name = top;
pos = (252,688);
},
{
name = topleft;
pos = (20,688);
}
);
layerId = m012;
shapes = (
{
closed = 1;
nodes = (
(105,311,l),
(406,311,l),
(406,385,l),
(105,385,l)
);
},
{
closed = 1;
nodes = (
(110,651,l),
(105,614,l),
(453,614,l),
(453,688,l),
(100,688,l),
(100,0,l),
(453,0,l),
(453,74,l),
(105,74,l),
(110,37,l)
);
}
);
width = 503;
},
{
anchors = (
{
name = bottom;
pos = (386,0);
},
{
name = ogonek;
pos = (695,10);
},
{
name = top;
pos = (386,688);
},
{
name = topleft;
pos = (20,688);
}
);
layerId = m013;
shapes = (
{
closed = 1;
nodes = (
(231,311,l),
(688,311,l),
(688,385,l),
(231,385,l)
);
},
{
closed = 1;
nodes = (
(360,651,l),
(231,614,l),
(733,614,l),
(733,688,l),
(78,688,l),
(78,0,l),
(733,0,l),
(733,74,l),
(231,74,l),
(360,37,l)
);
}
);
width = 772;
},
{
anchors = (
{
name = bottom;
pos = (288,0);
},
{
name = ogonek;
pos = (518,10);
},
{
name = top;
pos = (288,688);
},
{
name = topleft;
pos = (20,688);
}
);
layerId = m014;
shapes = (
{
closed = 1;
nodes = (
(145,343,l),
(478,343,l),
(478,353,l),
(145,353,l)
);
},
{
closed = 1;
nodes = (
(182,683,l),
(145,678,l),
(525,678,l),
(525,688,l),
(100,688,l),
(100,0,l),
(525,0,l),
(525,10,l),
(145,10,l),
(182,5,l)
);
}
);
width = 575;
},
{
anchors = (
{
name = bottom;
pos = (286,0);
},
{
name = ogonek;
pos = (515,10);
},
{
name = top;
pos = (286,688);
},
{
name = topleft;
pos = (20,688);
}
);
layerId = m015;
shapes = (
{
closed = 1;
nodes = (
(123,258,l),
(486,258,l),
(486,438,l),
(123,438,l)
);
},
{
closed = 1;
nodes = (
(160,588,l),
(123,508,l),
(533,508,l),
(533,688,l),
(78,688,l),
(78,0,l),
(533,0,l),
(533,180,l),
(123,180,l),
(160,100,l)
);
}
);
width = 572;
},
{
anchors = (
{
name = bottom;
pos = (325,0);
},
{
name = ogonek;
pos = (584,10);
},
{
name = top;
pos = (325,688);
},
{
name = topleft;
pos = (20,688);
}
);
layerId = m016;
shapes = (
{
closed = 1;
nodes = (
(162,306,l),
(547,306,l),
(547,390,l),
(162,390,l)
);
},
{
closed = 1;
nodes = (
(205,647,l),
(162,604,l),
(594,604,l),
(594,688,l),
(109,688,l),
(109,0,l),
(594,0,l),
(594,84,l),
(162,84,l),
(205,41,l)
);
}
);
width = 649;
},
{
anchors = (
{
name = bottom;
pos = (478,0);
},
{
name = ogonek;
pos = (695,0);
},
{
name = top;
pos = (478,688);
},
{
name = topleft;
pos = (248,688);
}
);
associatedMasterId = m013;
layerId = "9170D4BD-8066-43ED-81A0-319882AA8E22";
name = "28 Mar 26 12:08";
shapes = (
{
closed = 1;
nodes = (
(226,311,l),
(644,311,l),
(644,385,l),
(226,385,l)
);
},
{
closed = 1;
nodes = (
(330,651,l),
(226,614,l),
(691,614,l),
(691,688,l),
(100,688,l),
(100,0,l),
(691,0,l),
(691,74,l),
(226,74,l),
(330,37,l)
);
}
);
width = 741;
}
);
metricLeft = H;
metricRight = "=|*.5";
unicode = 69;
},
{
color = 4;
glyphname = F;
kernLeft = H;
kernRight = E;
layers = (
{
anchors = (
{
name = bottom;
pos = (287,0);
},
{
name = top;
pos = (287,688);
}
);
layerId = m009;
shapes = (
{
closed = 1;
nodes = (
(145,301,l),
(486,301,l),
(486,375,l),
(145,375,l)
);
},
{
closed = 1;
nodes = (
(182,651,l),
(145,614,l),
(533,614,l),
(533,688,l),
(100,688,l),
(100,0,l),
(182,0,l)
);
}
);
width = 573;
},
{
anchors = (
{
name = bottom;
pos = (157,0);
},
{
name = top;
pos = (157,688);
}
);
layerId = m010;
shapes = (
{
closed = 1;
nodes = (
(95,301,l),
(260,301,l),
(260,375,l),
(95,375,l)
);
},
{
closed = 1;
nodes = (
(132,651,l),
(95,614,l),
(287,614,l),
(287,688,l),
(50,688,l),
(50,0,l),
(132,0,l)
);
}
);
width = 307;
},
{
anchors = (
{
name = bottom;
pos = (374,0);
},
{
name = top;
pos = (374,688);
}
);
layerId = m011;
shapes = (
{
closed = 1;
nodes = (
(145,301,l),
(650,301,l),
(650,375,l),
(145,375,l)
);
},
{
closed = 1;
nodes = (
(182,651,l),
(145,612,l),
(697,612,l),
(697,688,l),
(100,688,l),
(100,0,l),
(182,0,l)
);
}
);
width = 737;
},
{
anchors = (
{
name = bottom;
pos = (242,0);
},
{
name = top;
pos = (242,688);
}
);
layerId = m012;
shapes = (
{
closed = 1;
nodes = (
(105,291,l),
(396,291,l),
(396,365,l),
(105,365,l)
);
},
{
closed = 1;
nodes = (
(110,651,l),
(105,614,l),
(443,614,l),
(443,688,l),
(100,688,l),
(100,0,l),
(110,0,l)
);
}
);
width = 483;
},
{
anchors = (
{
name = bottom;
pos = (377,0);
},
{
name = top;
pos = (377,688);
}
);
layerId = m013;
shapes = (
{
closed = 1;
nodes = (
(231,301,l),
(678,301,l),
(678,375,l),
(231,375,l)
);
},
{
closed = 1;
nodes = (
(360,651,l),
(231,614,l),
(723,614,l),
(723,688,l),
(78,688,l),
(78,0,l),
(360,0,l)
);
}
);
width = 754;
},
{
anchors = (
{
name = bottom;
pos = (278,0);
},
{
name = top;
pos = (278,688);
}
);
layerId = m014;
shapes = (
{
closed = 1;
nodes = (
(145,333,l),
(468,333,l),
(468,343,l),
(145,343,l)
);
},
{
closed = 1;
nodes = (
(182,683,l),
(145,678,l),
(515,678,l),
(515,688,l),
(100,688,l),
(100,0,l),
(182,0,l)
);
}
);
width = 555;
},
{
anchors = (
{
name = bottom;
pos = (277,0);
},
{
name = top;
pos = (277,688);
}
);
layerId = m015;
shapes = (
{
closed = 1;
nodes = (
(123,218,l),
(476,218,l),
(476,398,l),
(123,398,l)
);
},
{
closed = 1;
nodes = (
(160,588,l),
(123,508,l),
(523,508,l),
(523,688,l),
(78,688,l),
(78,0,l),
(160,0,l)
);
}
);
width = 554;
},
{
anchors = (
{
name = bottom;
pos = (314,0);
},
{
name = top;
pos = (314,688);
}
);
layerId = m016;
shapes = (
{
closed = 1;
nodes = (
(162,301,l),
(537,301,l),
(537,385,l),
(162,385,l)
);
},
{
closed = 1;
nodes = (
(205,647,l),
(162,604,l),
(584,604,l),
(584,688,l),
(109,688,l),
(109,0,l),
(205,0,l)
);
}
);
width = 628;
},
{
anchors = (
{
name = bottom;
pos = (478,0);
},
{
name = ogonek;
pos = (695,0);
},
{
name = top;
pos = (478,688);
},
{
name = topleft;
pos = (248,688);
}
);
associatedMasterId = m013;
layerId = "9170D4BD-8066-43ED-81A0-319882AA8E22";
name = "28 Mar 26 12:08";
shapes = (
{
closed = 1;
nodes = (
(226,311,l),
(644,311,l),
(644,385,l),
(226,385,l)
);
},
{
closed = 1;
nodes = (
(330,651,l),
(226,614,l),
(691,614,l),
(691,688,l),
(100,688,l),
(100,0,l),
(691,0,l),
(691,74,l),
(226,74,l),
(330,37,l)
);
}
);
width = 741;
}
);
metricLeft = H;
metricRight = "=|*.4";
unicode = 70;
},
{
color = 4;
glyphname = G;
kernLeft = O;
kernRight = G;
layers = (
{
anchors = (
{
name = bottom;
pos = (340,0);
},
{
name = top;
pos = (340,688);
}
);
background = {
shapes = (
{
closed = 1;
nodes = (
(426,-8,o),
(517,0,o),
(584,12,c),
(584,370,l),
(345,370,l),
(345,297,l),
(501,297,l),
(501,73,l),
(468,68,o),
(407,65,o),
(366,65,cs),
(182,65,o),
(158,101,o),
(158,344,cs),
(158,618,o),
(199,622,o),
(406,622,cs),
(445,622,o),
(516,615,o),
(581,606,c),
(581,676,l),
(521,687,o),
(431,696,o),
(364,696,cs),
(124,696,o),
(72,639,o),
(72,344,cs),
(72,49,o),
(121,-8,o),
(364,-8,cs)
);
}
);
};
layerId = m009;
shapes = (
{
closed = 1;
nodes = (
(467,-8,o),
(542,1,o),
(584,15,c),
(584,370,l),
(345,370,l),
(345,300,l),
(504,300,l),
(504,72,l),
(468,68,o),
(431,66,o),
(393,66,cs),
(174,66,o),
(158,83,o),
(158,310,cs),
(158,378,ls),
(158,605,o),
(174,622,o),
(393,622,cs),
(461,622,o),
(527,618,o),
(579,612,c),
(579,681,l),
(537,690,o),
(461,696,o),
(398,696,cs),
(125,696,o),
(76,644,o),
(76,349,cs),
(76,339,ls),
(76,44,o),
(125,-8,o),
(398,-8,cs)
);
}
);
width = 679;
},
{
anchors = (
{
name = bottom;
pos = (190,0);
},
{
name = top;
pos = (190,688);
}
);
layerId = m010;
shapes = (
{
closed = 1;
nodes = (
(244,-8,o),
(283,-3,o),
(304,5,c),
(304,370,l),
(176,370,l),
(176,300,l),
(224,300,l),
(224,67,l),
(215,66,o),
(210,66,o),
(196,66,cs),
(122,66,o),
(117,80,o),
(117,310,cs),
(117,378,ls),
(117,607,o),
(123,622,o),
(209,622,cs),
(243,622,o),
(276,619,o),
(302,615,c),
(302,686,l),
(280,692,o),
(241,696,o),
(209,696,cs),
(59,696,o),
(35,648,o),
(35,349,cs),
(35,339,ls),
(35,40,o),
(59,-8,o),
(209,-8,cs)
);
}
);
width = 352;
},
{
anchors = (
{
name = bottom;
pos = (419,0);
},
{
name = top;
pos = (419,688);
}
);
layerId = m011;
shapes = (
{
closed = 1;
nodes = (
(550,-8,o),
(672,-1,o),
(752,10,c),
(752,370,l),
(385,370,l),
(385,300,l),
(672,300,l),
(672,75,l),
(623,69,o),
(544,66,o),
(444,66,cs),
(174,66,o),
(152,84,o),
(152,310,cs),
(152,378,ls),
(152,601,o),
(178,622,o),
(444,622,cs),
(571,622,o),
(676,617,o),
(749,607,c),
(749,676,l),
(669,688,o),
(543,696,o),
(444,696,cs),
(128,696,o),
(70,642,o),
(70,349,cs),
(70,339,ls),
(70,43,o),
(124,-8,o),
(444,-8,cs)
);
}
);
width = 847;
},
{
anchors = (
{
name = bottom;
pos = (268,0);
},
{
name = top;
pos = (268,688);
}
);
layerId = m012;
shapes = (
{
closed = 1;
nodes = (
(337,-8,o),
(402,-3,o),
(440,5,c),
(440,370,l),
(273,370,l),
(273,300,l),
(430,300,l),
(430,75,l),
(396,70,o),
(338,66,o),
(282,66,cs),
(109,66,o),
(86,95,o),
(86,310,cs),
(86,378,ls),
(86,593,o),
(109,622,o),
(282,622,cs),
(339,622,o),
(395,619,o),
(438,612,c),
(438,681,l),
(401,690,o),
(336,696,o),
(282,696,cs),
(107,696,o),
(76,644,o),
(76,349,cs),
(76,339,ls),
(76,44,o),
(107,-8,o),
(282,-8,cs)
);
}
);
width = 535;
},
{
anchors = (
{
name = bottom;
pos = (465,0);
},
{
name = top;
pos = (465,688);
}
);
layerId = m013;
shapes = (
{
closed = 1;
nodes = (
(653,-8,o),
(783,2,o),
(856,18,c),
(856,370,l),
(477,370,l),
(477,300,l),
(636,300,l),
(636,72,l),
(600,68,o),
(563,66,o),
(525,66,cs),
(306,66,o),
(290,83,o),
(290,310,cs),
(290,378,ls),
(290,605,o),
(307,622,o),
(534,622,cs),
(659,622,o),
(768,619,o),
(848,612,c),
(848,683,l),
(773,691,o),
(643,696,o),
(534,696,cs),
(132,696,o),
(60,644,o),
(60,349,cs),
(60,339,ls),
(60,44,o),
(132,-8,o),
(534,-8,cs)
);
}
);
width = 930;
},
{
anchors = (
{
name = bottom;
pos = (340,0);
},
{
name = top;
pos = (340,688);
}
);
layerId = m014;
shapes = (
{
closed = 1;
nodes = (
(467,-8,o),
(542,1,o),
(584,15,c),
(584,340,l),
(345,340,l),
(345,330,l),
(504,330,l),
(504,10,l),
(468,5,o),
(431,2,o),
(393,2,cs),
(174,2,o),
(158,23,o),
(158,310,cs),
(158,378,ls),
(158,665,o),
(174,686,o),
(393,686,cs),
(461,686,o),
(528,681,o),
(579,673,c),
(579,682,l),
(535,690,o),
(457,696,o),
(393,696,cs),
(124,696,o),
(76,644,o),
(76,349,cs),
(76,339,ls),
(76,44,o),
(125,-8,o),
(398,-8,cs)
);
}
);
width = 679;
},
{
anchors = (
{
name = bottom;
pos = (321,0);
},
{
name = top;
pos = (321,688);
}
);
layerId = m015;
shapes = (
{
closed = 1;
nodes = (
(451,-8,o),
(526,1,o),
(568,15,c),
(568,435,l),
(329,435,l),
(329,255,l),
(488,255,l),
(488,175,l),
(452,173,o),
(415,172,o),
(377,172,cs),
(158,172,o),
(142,183,o),
(142,310,cs),
(142,378,ls),
(142,507,o),
(158,516,o),
(377,516,cs),
(445,516,o),
(512,514,o),
(563,511,c),
(563,681,l),
(519,690,o),
(441,696,o),
(377,696,cs),
(108,696,o),
(60,644,o),
(60,349,cs),
(60,339,ls),
(60,44,o),
(109,-8,o),
(382,-8,cs)
);
}
);
width = 642;
},
{
anchors = (
{
name = bottom;
pos = (350,0);
},
{
name = top;
pos = (350,688);
}
);
layerId = m016;
shapes = (
{
closed = 1;
nodes = (
(478,-8,o),
(553,1,o),
(595,15,c),
(595,370,l),
(356,370,l),
(356,300,l),
(515,300,l),
(515,72,l),
(479,68,o),
(442,66,o),
(404,66,cs),
(185,66,o),
(169,83,o),
(169,310,cs),
(169,378,ls),
(169,605,o),
(185,622,o),
(404,622,cs),
(465,622,o),
(533,618,o),
(590,612,c),
(590,681,l),
(549,690,o),
(474,696,o),
(409,696,cs),
(136,696,o),
(87,644,o),
(87,349,cs),
(87,339,ls),
(87,44,o),
(136,-8,o),
(409,-8,cs)
);
}
);
width = 699;
}
);
metricLeft = "=O";
metricRight = "=H*.95";
unicode = 71;
},
{
color = 4;
glyphname = H;
kernLeft = H;
kernRight = H;
layers = (
{
anchors = (
{
name = bottom;
pos = (357,0);
},
{
name = center;
pos = (357,550);
},
{
name = top;
pos = (357,688);
},
{
name = topleft;
pos = (20,688);
}
);
layerId = m009;
shapes = (
{
closed = 1;
nodes = (
(182,0,l),
(182,347,l),
(145,310,l),
(569,310,l),
(532,347,l),
(532,0,l),
(614,0,l),
(614,688,l),
(532,688,l),
(532,347,l),
(569,384,l),
(145,384,l),
(182,347,l),
(182,688,l),
(100,688,l),
(100,0,l)
);
}
);
width = 714;
},
{
anchors = (
{
name = bottom;
pos = (187,0);
},
{
name = center;
pos = (187,550);
},
{
name = top;
pos = (187,688);
},
{
name = topleft;
pos = (30,688);
}
);
layerId = m010;
shapes = (
{
closed = 1;
nodes = (
(132,0,l),
(132,347,l),
(95,310,l),
(279,310,l),
(242,347,l),
(242,0,l),
(324,0,l),
(324,688,l),
(242,688,l),
(242,347,l),
(279,384,l),
(95,384,l),
(132,347,l),
(132,688,l),
(50,688,l),
(50,0,l)
);
}
);
width = 374;
},
{
anchors = (
{
name = bottom;
pos = (437,0);
},
{
name = center;
pos = (437,550);
},
{
name = top;
pos = (437,688);
},
{
name = topleft;
pos = (36,688);
}
);
layerId = m011;
shapes = (
{
closed = 1;
nodes = (
(182,0,l),
(182,347,l),
(145,310,l),
(729,310,l),
(692,347,l),
(692,0,l),
(774,0,l),
(774,688,l),
(692,688,l),
(692,347,l),
(729,384,l),
(145,384,l),
(182,347,l),
(182,688,l),
(100,688,l),
(100,0,l)
);
}
);
width = 874;
},
{
anchors = (
{
name = bottom;
pos = (285,0);
},
{
name = center;
pos = (285,550);
},
{
name = top;
pos = (285,688);
},
{
name = topleft;
pos = (20,688);
}
);
layerId = m012;
shapes = (
{
closed = 1;
nodes = (
(110,0,l),
(110,347,l),
(104,310,l),
(466,310,l),
(460,347,l),
(460,0,l),
(470,0,l),
(470,688,l),
(460,688,l),
(460,347,l),
(466,384,l),
(104,384,l),
(110,347,l),
(110,688,l),
(100,688,l),
(100,0,l)
);
}
);
width = 570;
},
{
anchors = (
{
name = bottom;
pos = (483,0);
},
{
name = center;
pos = (483,550);
},
{
name = top;
pos = (483,688);
},
{
name = topleft;
pos = (20,688);
}
);
layerId = m013;
shapes = (
{
closed = 1;
nodes = (
(308,0,l),
(308,347,l),
(198,310,l),
(768,310,l),
(658,347,l),
(658,0,l),
(888,0,l),
(888,688,l),
(658,688,l),
(658,347,l),
(768,384,l),
(198,384,l),
(308,347,l),
(308,688,l),
(78,688,l),
(78,0,l)
);
}
);
width = 966;
},
{
anchors = (
{
name = bottom;
pos = (357,0);
},
{
name = center;
pos = (357,550);
},
{
name = top;
pos = (357,688);
},
{
name = topleft;
pos = (20,688);
}
);
layerId = m014;
shapes = (
{
closed = 1;
nodes = (
(182,0,l),
(182,347,l),
(145,342,l),
(569,342,l),
(532,347,l),
(532,0,l),
(614,0,l),
(614,688,l),
(532,688,l),
(532,347,l),
(569,352,l),
(145,352,l),
(182,347,l),
(182,688,l),
(100,688,l),
(100,0,l)
);
}
);
width = 714;
},
{
anchors = (
{
name = bottom;
pos = (335,0);
},
{
name = center;
pos = (335,550);
},
{
name = top;
pos = (335,688);
},
{
name = topleft;
pos = (20,688);
}
);
layerId = m015;
shapes = (
{
closed = 1;
nodes = (
(160,0,l),
(160,347,l),
(123,257,l),
(547,257,l),
(510,347,l),
(510,0,l),
(592,0,l),
(592,688,l),
(510,688,l),
(510,347,l),
(547,437,l),
(123,437,l),
(160,347,l),
(160,688,l),
(78,688,l),
(78,0,l)
);
}
);
width = 670;
},
{
anchors = (
{
name = bottom;
pos = (390,0);
},
{
name = center;
pos = (390,550);
},
{
name = top;
pos = (390,688);
},
{
name = topleft;
pos = (20,688);
}
);
layerId = m016;
shapes = (
{
closed = 1;
nodes = (
(205,0,l),
(205,348,l),
(162,305,l),
(617,305,l),
(574,348,l),
(574,0,l),
(670,0,l),
(670,688,l),
(574,688,l),
(574,346,l),
(617,389,l),
(162,389,l),
(205,346,l),
(205,688,l),
(109,688,l),
(109,0,l)
);
}
);
width = 779;
}
);
metricRight = "=|";
unicode = 72;
},
{
color = 4;
glyphname = I;
kernLeft = H;
kernRight = H;
layers = (
{
anchors = (
{
name = bottom;
pos = (141,0);
},
{
name = ogonek;
pos = (254,10);
},
{
name = top;
pos = (141,688);
},
{
name = topleft;
pos = (20,688);
}
);
layerId = m009;
shapes = (
{
closed = 1;
nodes = (
(182,0,l),
(182,688,l),
(100,688,l),
(100,0,l)
);
}
);
width = 282;
},
{
anchors = (
{
name = bottom;
pos = (91,0);
},
{
name = ogonek;
pos = (156,10);
},
{
name = top;
pos = (91,688);
},
{
name = topleft;
pos = (30,688);
}
);
layerId = m010;
shapes = (
{
closed = 1;
nodes = (
(132,0,l),
(132,688,l),
(50,688,l),
(50,0,l)
);
}
);
width = 182;
},
{
anchors = (
{
name = bottom;
pos = (141,0);
},
{
name = ogonek;
pos = (241,10);
},
{
name = top;
pos = (141,688);
},
{
name = topleft;
pos = (36,688);
}
);
layerId = m011;
shapes = (
{
closed = 1;
nodes = (
(182,0,l),
(182,688,l),
(100,688,l),
(100,0,l)
);
}
);
width = 282;
},
{
anchors = (
{
name = bottom;
pos = (105,0);
},
{
name = ogonek;
pos = (189,10);
},
{
name = top;
pos = (105,688);
},
{
name = topleft;
pos = (20,688);
}
);
layerId = m012;
shapes = (
{
closed = 1;
nodes = (
(110,0,l),
(110,688,l),
(100,688,l),
(100,0,l)
);
}
);
width = 210;
},
{
anchors = (
{
name = bottom;
pos = (193,0);
},
{
name = ogonek;
pos = (347,10);
},
{
name = top;
pos = (193,688);
},
{
name = topleft;
pos = (20,688);
}
);
layerId = m013;
shapes = (
{
closed = 1;
nodes = (
(308,0,l),
(308,688,l),
(78,688,l),
(78,0,l)
);
}
);
width = 386;
},
{
anchors = (
{
name = bottom;
pos = (141,0);
},
{
name = ogonek;
pos = (254,10);
},
{
name = top;
pos = (141,688);
},
{
name = topleft;
pos = (20,688);
}
);
layerId = m014;
shapes = (
{
closed = 1;
nodes = (
(182,0,l),
(182,688,l),
(100,688,l),
(100,0,l)
);
}
);
width = 282;
},
{
anchors = (
{
name = bottom;
pos = (119,0);
},
{
name = ogonek;
pos = (214,10);
},
{
name = top;
pos = (119,688);
},
{
name = topleft;
pos = (20,688);
}
);
layerId = m015;
shapes = (
{
closed = 1;
nodes = (
(160,0,l),
(160,688,l),
(78,688,l),
(78,0,l)
);
}
);
width = 238;
},
{
anchors = (
{
name = bottom;
pos = (157,0);
},
{
name = ogonek;
pos = (283,10);
},
{
name = top;
pos = (157,688);
},
{
name = topleft;
pos = (20,688);
}
);
layerId = m016;
shapes = (
{
closed = 1;
nodes = (
(205,0,l),
(205,688,l),
(109,688,l),
(109,0,l)
);
}
);
width = 314;
}
);
metricLeft = H;
metricRight = "=|";
unicode = 73;
},
{
color = 4;
glyphname = J;
kernLeft = f;
kernRight = f;
layers = (
{
anchors = (
{
name = bottom;
pos = (152,0);
},
{
name = top;
pos = (152,688);
}
);
layerId = m009;
shapes = (
{
closed = 1;
nodes = (
(137,688,l),
(137,141,ls),
(137,78,o),
(116,66,o),
(5,66,c),
(5,-4,l),
(172,-4,o),
(219,29,o),
(219,148,cs),
(219,688,l)
);
}
);
width = 319;
},
{
anchors = (
{
name = bottom;
pos = (105,0);
},
{
name = top;
pos = (105,688);
}
);
layerId = m010;
shapes = (
{
closed = 1;
nodes = (
(94,688,l),
(94,141,ls),
(94,78,o),
(80,66,o),
(2,66,c),
(2,-4,l),
(137,-4,o),
(176,29,o),
(176,148,cs),
(176,688,l)
);
}
);
width = 226;
},
{
anchors = (
{
name = bottom;
pos = (166,0);
},
{
name = top;
pos = (166,688);
}
);
layerId = m011;
shapes = (
{
closed = 1;
nodes = (
(177,688,l),
(177,141,ls),
(177,78,o),
(148,66,o),
(5,66,c),
(5,-4,l),
(204,-4,o),
(259,29,o),
(259,148,cs),
(259,688,l)
);
}
);
width = 359;
},
{
anchors = (
{
name = bottom;
pos = (99,0);
},
{
name = top;
pos = (99,688);
}
);
layerId = m012;
shapes = (
{
closed = 1;
nodes = (
(100,688,l),
(100,141,ls),
(100,78,o),
(85,66,o),
(5,66,c),
(5,-4,l),
(89,-4,o),
(112,29,o),
(112,148,cs),
(112,688,l)
);
}
);
width = 212;
},
{
anchors = (
{
name = bottom;
pos = (234,0);
},
{
name = top;
pos = (234,688);
}
);
layerId = m013;
shapes = (
{
closed = 1;
nodes = (
(172,688,l),
(172,141,ls),
(172,78,o),
(147,66,o),
(4,66,c),
(4,-4,l),
(315,-4,o),
(402,29,o),
(402,148,cs),
(402,688,l)
);
}
);
width = 480;
},
{
anchors = (
{
name = bottom;
pos = (152,0);
},
{
name = top;
pos = (152,688);
}
);
layerId = m014;
shapes = (
{
closed = 1;
nodes = (
(137,688,l),
(137,141,ls),
(137,28,o),
(116,6,o),
(5,6,c),
(5,-4,l),
(172,-4,o),
(219,29,o),
(219,148,cs),
(219,688,l)
);
}
);
width = 319;
},
{
anchors = (
{
name = bottom;
pos = (142,0);
},
{
name = top;
pos = (142,688);
}
);
layerId = m015;
shapes = (
{
closed = 1;
nodes = (
(136,688,l),
(136,271,ls),
(136,191,o),
(115,176,o),
(4,176,c),
(4,-4,l),
(171,-4,o),
(218,57,o),
(218,278,cs),
(218,688,l)
);
}
);
width = 296;
},
{
anchors = (
{
name = bottom;
pos = (156,0);
},
{
name = top;
pos = (156,688);
}
);
layerId = m016;
shapes = (
{
closed = 1;
nodes = (
(137,688,l),
(137,141,ls),
(137,78,o),
(116,66,o),
(5,66,c),
(5,-4,l),
(172,-4,o),
(219,29,o),
(219,148,cs),
(219,688,l)
);
}
);
width = 328;
}
);
metricLeft = "=H*.05";
metricRight = "=H";
unicode = 74;
},
{
color = 4;
glyphname = L;
kernLeft = H;
kernRight = E;
layers = (
{
anchors = (
{
name = bottom;
pos = (272,0);
},
{
name = center;
pos = (272,344);
},
{
name = top;
pos = (272,688);
},
{
name = topright;
pos = (523,688);
}
);
layerId = m009;
shapes = (
{
closed = 1;
nodes = (
(523,0,l),
(523,74,l),
(145,74,l),
(182,37,l),
(182,688,l),
(100,688,l),
(100,0,l)
);
}
);
width = 543;
},
{
anchors = (
{
name = bottom;
pos = (151,0);
},
{
name = center;
pos = (151,344);
},
{
name = top;
pos = (151,688);
},
{
name = topright;
pos = (272,688);
}
);
layerId = m010;
shapes = (
{
closed = 1;
nodes = (
(284,0,l),
(284,74,l),
(95,74,l),
(132,37,l),
(132,688,l),
(50,688,l),
(50,0,l)
);
}
);
width = 294;
},
{
anchors = (
{
name = bottom;
pos = (358,0);
},
{
name = center;
pos = (358,344);
},
{
name = top;
pos = (358,688);
},
{
name = topright;
pos = (680,688);
}
);
layerId = m011;
shapes = (
{
closed = 1;
nodes = (
(683,0,l),
(683,74,l),
(145,74,l),
(182,35,l),
(182,688,l),
(100,688,l),
(100,0,l)
);
}
);
width = 703;
},
{
anchors = (
{
name = bottom;
pos = (227,0);
},
{
name = center;
pos = (227,344);
},
{
name = top;
pos = (227,688);
},
{
name = topright;
pos = (434,688);
}
);
layerId = m012;
shapes = (
{
closed = 1;
nodes = (
(434,0,l),
(434,74,l),
(105,74,l),
(110,37,l),
(110,688,l),
(100,688,l),
(100,0,l)
);
}
);
width = 454;
},
{
anchors = (
{
name = bottom;
pos = (338,0);
},
{
name = center;
pos = (338,344);
},
{
name = top;
pos = (338,688);
},
{
name = topright;
pos = (656,688);
}
);
layerId = m013;
shapes = (
{
closed = 1;
nodes = (
(660,0,l),
(660,74,l),
(231,74,l),
(308,37,l),
(308,688,l),
(78,688,l),
(78,0,l)
);
}
);
width = 676;
},
{
anchors = (
{
name = bottom;
pos = (263,0);
},
{
name = center;
pos = (263,344);
},
{
name = top;
pos = (263,688);
},
{
name = topright;
pos = (506,688);
}
);
layerId = m014;
shapes = (
{
closed = 1;
nodes = (
(506,0,l),
(506,10,l),
(145,10,l),
(182,5,l),
(182,688,l),
(100,688,l),
(100,0,l)
);
}
);
width = 526;
},
{
anchors = (
{
name = bottom;
pos = (264,0);
},
{
name = center;
pos = (264,344);
},
{
name = top;
pos = (264,688);
},
{
name = topright;
pos = (508,688);
}
);
layerId = m015;
shapes = (
{
closed = 1;
nodes = (
(512,0,l),
(512,180,l),
(123,180,l),
(160,100,l),
(160,688,l),
(78,688,l),
(78,0,l)
);
}
);
width = 528;
},
{
anchors = (
{
name = bottom;
pos = (293,0);
},
{
name = center;
pos = (293,344);
},
{
name = top;
pos = (293,688);
},
{
name = topright;
pos = (566,688);
}
);
layerId = m016;
shapes = (
{
closed = 1;
nodes = (
(564,0,l),
(564,84,l),
(162,84,l),
(205,41,l),
(205,688,l),
(109,688,l),
(109,0,l)
);
}
);
width = 586;
},
{
anchors = (
{
name = bottom;
pos = (478,0);
},
{
name = ogonek;
pos = (695,0);
},
{
name = top;
pos = (478,688);
},
{
name = topleft;
pos = (248,688);
}
);
associatedMasterId = m013;
layerId = "9170D4BD-8066-43ED-81A0-319882AA8E22";
name = "28 Mar 26 12:08";
shapes = (
{
closed = 1;
nodes = (
(226,311,l),
(644,311,l),
(644,385,l),
(226,385,l)
);
},
{
closed = 1;
nodes = (
(330,651,l),
(226,614,l),
(691,614,l),
(691,688,l),
(100,688,l),
(100,0,l),
(691,0,l),
(691,74,l),
(226,74,l),
(330,37,l)
);
}
);
width = 741;
}
);
metricLeft = H;
metricRight = "=|*.2";
unicode = 76;
},
{
color = 4;
glyphname = M;
kernLeft = H;
kernRight = H;
layers = (
{
anchors = (
{
name = bottom;
pos = (433,0);
},
{
name = top;
pos = (433,688);
}
);
layerId = m009;
shapes = (
{
closed = 1;
nodes = (
(182,0,l),
(182,568,l),
(186,568,l),
(394,0,l),
(472,0,l),
(680,568,l),
(684,568,l),
(684,0,l),
(766,0,l),
(766,688,l),
(640,688,l),
(435,120,l),
(431,120,l),
(226,688,l),
(100,688,l),
(100,0,l)
);
}
);
width = 866;
},
{
anchors = (
{
name = bottom;
pos = (286,0);
},
{
name = top;
pos = (286,688);
}
);
layerId = m010;
shapes = (
{
closed = 1;
nodes = (
(132,0,l),
(132,568,l),
(136,568,l),
(255,0,l),
(317,0,l),
(436,568,l),
(440,568,l),
(440,0,l),
(522,0,l),
(522,688,l),
(390,688,l),
(288,170,l),
(284,170,l),
(182,688,l),
(50,688,l),
(50,0,l)
);
}
);
width = 572;
},
{
anchors = (
{
name = bottom;
pos = (485,0);
},
{
name = top;
pos = (485,688);
}
);
layerId = m011;
shapes = (
{
closed = 1;
nodes = (
(182,0,l),
(182,560,l),
(186,560,l),
(443,0,l),
(527,0,l),
(784,560,l),
(788,560,l),
(788,0,l),
(870,0,l),
(870,688,l),
(752,688,l),
(487,110,l),
(483,110,l),
(218,688,l),
(100,688,l),
(100,0,l)
);
}
);
width = 970;
},
{
anchors = (
{
name = bottom;
pos = (485,0);
},
{
name = top;
pos = (485,688);
}
);
layerId = m013;
shapes = (
{
closed = 1;
nodes = (
(160,0,l),
(160,478,l),
(164,478,l),
(342,0,l),
(480,0,l),
(658,478,l),
(662,478,l),
(662,0,l),
(892,0,l),
(892,688,l),
(653,688,l),
(491,240,l),
(486,240,l),
(322,688,l),
(78,688,l),
(78,0,l)
);
}
);
width = 970;
},
{
anchors = (
{
name = bottom;
pos = (397,0);
},
{
name = top;
pos = (397,688);
}
);
background = {
shapes = (
{
closed = 1;
nodes = (
(110,0,l),
(110,623,l),
(114,623,l),
(333,0,l),
(389,0,l),
(608,623,l),
(612,623,l),
(612,0,l),
(694,0,l),
(694,688,l),
(620,688,l),
(396,50,l),
(392,50,l),
(169,688,l),
(100,688,l),
(100,0,l)
);
}
);
};
layerId = m014;
shapes = (
{
closed = 1;
nodes = (
(110,0,l),
(110,603,l),
(114,603,l),
(339,0,l),
(378,0,l),
(608,603,l),
(612,603,l),
(612,0,l),
(694,0,l),
(694,688,l),
(630,688,l),
(396,75,l),
(392,75,l),
(166,688,l),
(100,688,l),
(100,0,l)
);
}
);
width = 794;
},
{
anchors = (
{
name = bottom;
pos = (485,0);
},
{
name = top;
pos = (485,688);
}
);
background = {
shapes = (
{
closed = 1;
nodes = (
(308,0,l),
(308,478,l),
(312,478,l),
(486,0,l),
(632,0,l),
(806,478,l),
(810,478,l),
(810,0,l),
(892,0,l),
(892,688,l),
(665,688,l),
(484,190,l),
(479,190,l),
(301,688,l),
(78,688,l),
(78,0,l)
);
}
);
};
layerId = m015;
shapes = (
{
closed = 1;
nodes = (
(308,0,l),
(308,478,l),
(312,478,l),
(490,0,l),
(628,0,l),
(806,478,l),
(810,478,l),
(810,0,l),
(892,0,l),
(892,688,l),
(648,688,l),
(484,240,l),
(479,240,l),
(317,688,l),
(78,688,l),
(78,0,l)
);
}
);
width = 970;
},
{
anchors = (
{
name = bottom;
pos = (442,0);
},
{
name = top;
pos = (442,688);
}
);
layerId = m016;
shapes = (
{
closed = 1;
nodes = (
(191,0,l),
(191,560,l),
(195,560,l),
(414,0,l),
(470,0,l),
(689,560,l),
(693,560,l),
(693,0,l),
(775,0,l),
(775,688,l),
(658,688,l),
(444,141,l),
(440,141,l),
(226,688,l),
(109,688,l),
(109,0,l)
);
}
);
width = 884;
},
{
anchors = (
{
name = bottom;
pos = (397,0);
},
{
name = top;
pos = (397,688);
}
);
layerId = m012;
name = "XOPQ-min - 32";
shapes = (
{
closed = 1;
nodes = (
(182,0,l),
(182,603,l),
(186,603,l),
(416,0,l),
(455,0,l),
(680,603,l),
(684,603,l),
(684,0,l),
(694,0,l),
(694,688,l),
(628,688,l),
(402,75,l),
(398,75,l),
(164,688,l),
(100,688,l),
(100,0,l)
);
}
);
width = 794;
}
);
metricLeft = H;
metricRight = "=|";
unicode = 77;
},
{
color = 4;
glyphname = N;
kernLeft = H;
kernRight = H;
layers = (
{
anchors = (
{
name = bottom;
pos = (389,0);
},
{
name = top;
pos = (389,688);
}
);
guides = (
{
angle = 215.2047;
pos = (384.5,426.5);
}
);
layerId = m016;
shapes = (
{
closed = 1;
nodes = (
(205,0,l),
(205,523,l),
(209,523,l),
(577,0,l),
(669,0,l),
(669,688,l),
(573,688,l),
(573,165,l),
(569,165,l),
(200,688,l),
(109,688,l),
(109,0,l)
);
}
);
width = 778;
},
{
anchors = (
{
name = bottom;
pos = (357,0);
},
{
name = top;
pos = (357,688);
}
);
background = {
shapes = (
{
closed = 1;
nodes = (
(182,0,l),
(182,588,l),
(186,588,l),
(583,0,l),
(614,0,l),
(614,688,l),
(532,688,l),
(532,100,l),
(528,100,l),
(131,688,l),
(100,688,l),
(100,0,l)
);
}
);
};
layerId = m012;
shapes = (
{
closed = 1;
nodes = (
(182,0,l),
(182,598,l),
(186,598,l),
(575,0,l),
(614,0,l),
(614,688,l),
(532,688,l),
(532,90,l),
(528,90,l),
(139,688,l),
(100,688,l),
(100,0,l)
);
}
);
width = 714;
},
{
anchors = (
{
name = bottom;
pos = (419,0);
},
{
name = top;
pos = (419,688);
}
);
layerId = m011;
shapes = (
{
closed = 1;
nodes = (
(182,0,l),
(182,558,l),
(186,558,l),
(649,0,l),
(738,0,l),
(738,688,l),
(656,688,l),
(656,130,l),
(652,130,l),
(189,688,l),
(100,688,l),
(100,0,l)
);
}
);
width = 838;
},
{
anchors = (
{
name = bottom;
pos = (213,0);
},
{
name = top;
pos = (213,688);
}
);
background = {
shapes = (
{
closed = 1;
nodes = (
(38,0,l),
(38,561,l),
(42,561,l),
(367,0,l),
(398,0,l),
(398,688,l),
(388,688,l),
(388,127,l),
(384,127,l),
(59,688,l),
(28,688,l),
(28,0,l)
);
}
);
};
layerId = m014;
shapes = (
{
closed = 1;
nodes = (
(110,0,l),
(110,598,l),
(114,598,l),
(414,0,l),
(470,0,l),
(470,688,l),
(460,688,l),
(460,90,l),
(456,90,l),
(156,688,l),
(100,688,l),
(100,0,l)
);
}
);
width = 570;
},
{
anchors = (
{
name = bottom;
pos = (357,0);
},
{
name = top;
pos = (357,688);
}
);
guides = (
{
angle = 212.355;
pos = (356,416.5);
}
);
layerId = m009;
shapes = (
{
closed = 1;
nodes = (
(182,0,l),
(182,543,l),
(186,543,l),
(527,0,l),
(614,0,l),
(614,688,l),
(532,688,l),
(532,145,l),
(528,145,l),
(187,688,l),
(100,688,l),
(100,0,l)
);
}
);
width = 714;
},
{
anchors = (
{
name = bottom;
pos = (609,0);
},
{
name = top;
pos = (609,688);
}
);
layerId = m015;
shapes = (
{
closed = 1;
nodes = (
(308,0,l),
(308,543,l),
(312,543,l),
(653,0,l),
(888,0,l),
(888,688,l),
(658,688,l),
(658,145,l),
(654,145,l),
(313,688,l),
(78,688,l),
(78,0,l)
);
}
);
width = 966;
},
{
anchors = (
{
name = bottom;
pos = (195,0);
},
{
name = top;
pos = (195,688);
}
);
guides = (
{
angle = 188.5875;
pos = (213,416.5);
}
);
layerId = m010;
shapes = (
{
closed = 1;
nodes = (
(132,0,l),
(132,474,l),
(136,474,l),
(253,0,l),
(340,0,l),
(340,688,l),
(258,688,l),
(258,214,l),
(254,214,l),
(137,688,l),
(50,688,l),
(50,0,l)
);
}
);
width = 390;
},
{
anchors = (
{
name = bottom;
pos = (314,0);
},
{
name = top;
pos = (314,688);
}
);
guides = (
{
angle = 122.1285;
pos = (486,319);
}
);
layerId = m013;
shapes = (
{
closed = 1;
nodes = (
(160,0,l),
(160,355,l),
(164,355,l),
(505,0,l),
(592,0,l),
(592,688,l),
(510,688,l),
(510,333,l),
(506,333,l),
(165,688,l),
(78,688,l),
(78,0,l)
);
}
);
width = 670;
}
);
metricLeft = H;
metricRight = "=|";
unicode = 78;
},
{
color = 4;
glyphname = O;
kernLeft = O;
kernRight = O;
layers = (
{
anchors = (
{
name = bottom;
pos = (354,-2);
},
{
name = center;
pos = (354,344);
},
{
name = ogonek;
pos = (637,10);
},
{
name = top;
pos = (354,688);
},
{
name = topleft;
pos = (20,688);
},
{
name = topright;
pos = (688,688);
}
);
layerId = m009;
shapes = (
{
closed = 1;
nodes = (
(590,-8,o),
(632,44,o),
(632,339,cs),
(632,349,ls),
(632,644,o),
(590,696,o),
(354,696,cs),
(118,696,o),
(76,644,o),
(76,349,cs),
(76,339,ls),
(76,44,o),
(118,-8,o),
(354,-8,cs)
);
},
{
closed = 1;
nodes = (
(171,66,o),
(158,83,o),
(158,310,cs),
(158,378,ls),
(158,605,o),
(171,622,o),
(354,622,cs),
(537,622,o),
(550,605,o),
(550,378,cs),
(550,310,ls),
(550,83,o),
(537,66,o),
(354,66,cs)
);
}
);
width = 708;
},
{
anchors = (
{
name = bottom;
pos = (183,-2);
},
{
name = center;
pos = (183,344);
},
{
name = ogonek;
pos = (329,10);
},
{
name = top;
pos = (183,688);
},
{
name = topleft;
pos = (20,688);
},
{
name = topright;
pos = (346,688);
}
);
layerId = m010;
shapes = (
{
closed = 1;
nodes = (
(309,-8,o),
(331,44,o),
(331,339,cs),
(331,349,ls),
(331,644,o),
(309,696,o),
(183,696,cs),
(57,696,o),
(35,644,o),
(35,349,cs),
(35,339,ls),
(35,44,o),
(57,-8,o),
(183,-8,cs)
);
},
{
closed = 1;
nodes = (
(123,66,o),
(117,87,o),
(117,310,cs),
(117,378,ls),
(117,601,o),
(123,622,o),
(183,622,cs),
(243,622,o),
(249,601,o),
(249,378,cs),
(249,310,ls),
(249,87,o),
(243,66,o),
(183,66,cs)
);
}
);
width = 366;
},
{
anchors = (
{
name = bottom;
pos = (438,-2);
},
{
name = center;
pos = (438,344);
},
{
name = ogonek;
pos = (784,10);
},
{
name = top;
pos = (438,688);
},
{
name = topleft;
pos = (26,688);
},
{
name = topright;
pos = (850,688);
}
);
layerId = m011;
shapes = (
{
closed = 1;
nodes = (
(751,-8,o),
(806,44,o),
(806,339,cs),
(806,349,ls),
(806,644,o),
(751,696,o),
(438,696,cs),
(125,696,o),
(70,644,o),
(70,349,cs),
(70,339,ls),
(70,44,o),
(125,-8,o),
(438,-8,cs)
);
},
{
closed = 1;
nodes = (
(180,66,o),
(152,89,o),
(152,310,cs),
(152,378,ls),
(152,599,o),
(180,622,o),
(438,622,cs),
(696,622,o),
(724,599,o),
(724,378,cs),
(724,310,ls),
(724,89,o),
(696,66,o),
(438,66,cs)
);
}
);
width = 876;
},
{
anchors = (
{
name = bottom;
pos = (282,-2);
},
{
name = center;
pos = (282,344);
},
{
name = ogonek;
pos = (508,10);
},
{
name = top;
pos = (282,688);
},
{
name = topleft;
pos = (20,688);
},
{
name = topright;
pos = (544,688);
}
);
layerId = m012;
shapes = (
{
closed = 1;
nodes = (
(457,-8,o),
(488,44,o),
(488,339,cs),
(488,349,ls),
(488,644,o),
(457,696,o),
(282,696,cs),
(107,696,o),
(76,644,o),
(76,349,cs),
(76,339,ls),
(76,44,o),
(107,-8,o),
(282,-8,cs)
);
},
{
closed = 1;
nodes = (
(110,66,o),
(86,95,o),
(86,310,cs),
(86,378,ls),
(86,593,o),
(110,622,o),
(282,622,cs),
(454,622,o),
(478,593,o),
(478,378,cs),
(478,310,ls),
(478,95,o),
(454,66,o),
(282,66,cs)
);
}
);
width = 564;
},
{
anchors = (
{
name = bottom;
pos = (486,-2);
},
{
name = center;
pos = (486,344);
},
{
name = ogonek;
pos = (875,10);
},
{
name = top;
pos = (486,688);
},
{
name = topleft;
pos = (20,688);
},
{
name = topright;
pos = (952,688);
}
);
layerId = m013;
shapes = (
{
closed = 1;
nodes = (
(827,-8,o),
(912,61,o),
(912,339,cs),
(912,349,ls),
(912,627,o),
(827,696,o),
(486,696,cs),
(145,696,o),
(60,627,o),
(60,349,cs),
(60,339,ls),
(60,61,o),
(145,-8,o),
(486,-8,cs)
);
},
{
closed = 1;
nodes = (
(303,66,o),
(290,83,o),
(290,310,cs),
(290,378,ls),
(290,605,o),
(303,622,o),
(486,622,cs),
(669,622,o),
(682,605,o),
(682,378,cs),
(682,310,ls),
(682,83,o),
(669,66,o),
(486,66,cs)
);
}
);
width = 972;
},
{
anchors = (
{
name = bottom;
pos = (354,-2);
},
{
name = center;
pos = (354,344);
},
{
name = ogonek;
pos = (637,10);
},
{
name = top;
pos = (354,688);
},
{
name = topleft;
pos = (20,688);
},
{
name = topright;
pos = (688,688);
}
);
layerId = m014;
shapes = (
{
closed = 1;
nodes = (
(590,-8,o),
(632,44,o),
(632,339,cs),
(632,349,ls),
(632,644,o),
(590,696,o),
(354,696,cs),
(118,696,o),
(76,644,o),
(76,349,cs),
(76,339,ls),
(76,44,o),
(118,-8,o),
(354,-8,cs)
);
},
{
closed = 1;
nodes = (
(171,2,o),
(158,23,o),
(158,302,cs),
(158,386,ls),
(158,665,o),
(171,686,o),
(354,686,cs),
(537,686,o),
(550,665,o),
(550,386,cs),
(550,302,ls),
(550,23,o),
(537,2,o),
(354,2,cs)
);
}
);
width = 708;
},
{
anchors = (
{
name = bottom;
pos = (338,-2);
},
{
name = center;
pos = (338,344);
},
{
name = ogonek;
pos = (608,10);
},
{
name = top;
pos = (338,688);
},
{
name = topleft;
pos = (20,688);
},
{
name = topright;
pos = (656,688);
}
);
layerId = m015;
shapes = (
{
closed = 1;
nodes = (
(574,-8,o),
(616,44,o),
(616,339,cs),
(616,349,ls),
(616,644,o),
(574,696,o),
(338,696,cs),
(102,696,o),
(60,644,o),
(60,349,cs),
(60,339,ls),
(60,44,o),
(102,-8,o),
(338,-8,cs)
);
},
{
closed = 1;
nodes = (
(155,172,o),
(142,184,o),
(142,325,cs),
(142,363,ls),
(142,504,o),
(155,516,o),
(338,516,cs),
(521,516,o),
(534,504,o),
(534,363,cs),
(534,325,ls),
(534,184,o),
(521,172,o),
(338,172,cs)
);
}
);
width = 676;
},
{
anchors = (
{
name = bottom;
pos = (400,-2);
},
{
name = center;
pos = (400,344);
},
{
name = ogonek;
pos = (720,10);
},
{
name = top;
pos = (400,688);
},
{
name = topleft;
pos = (20,688);
},
{
name = topright;
pos = (780,688);
}
);
layerId = m016;
shapes = (
{
closed = 1;
nodes = (
(643,-8,o),
(713,70,o),
(713,339,cs),
(713,349,ls),
(713,618,o),
(643,696,o),
(400,696,cs),
(157,696,o),
(87,618,o),
(87,349,cs),
(87,339,ls),
(87,70,o),
(157,-8,o),
(400,-8,cs)
);
},
{
closed = 1;
nodes = (
(217,77,o),
(183,113,o),
(183,311,cs),
(183,377,ls),
(183,575,o),
(217,611,o),
(400,611,cs),
(583,611,o),
(617,575,o),
(617,377,cs),
(617,311,ls),
(617,113,o),
(583,77,o),
(400,77,cs)
);
}
);
width = 800;
}
);
metricRight = "=|";
unicode = 79;
},
{
color = 4;
glyphname = P;
kernLeft = H;
kernRight = P;
layers = (
{
anchors = (
{
name = bottom;
pos = (293,0);
},
{
name = top;
pos = (293,688);
}
);
layerId = m009;
shapes = (
{
closed = 1;
nodes = (
(182,0,l),
(182,645,l),
(145,614,l),
(307,614,ls),
(463,614,o),
(473,605,o),
(473,485,cs),
(473,450,ls),
(473,330,o),
(463,321,o),
(307,321,cs),
(166,321,l),
(166,247,l),
(307,247,ls),
(518,247,o),
(555,280,o),
(555,464,cs),
(555,471,ls),
(555,655,o),
(518,688,o),
(307,688,cs),
(100,688,l),
(100,0,l)
);
}
);
width = 585;
},
{
anchors = (
{
name = bottom;
pos = (173,0);
},
{
name = top;
pos = (173,688);
}
);
layerId = m010;
shapes = (
{
closed = 1;
nodes = (
(132,0,l),
(132,645,l),
(95,614,l),
(183,614,ls),
(238,614,o),
(242,606,o),
(242,485,cs),
(242,450,ls),
(242,329,o),
(238,321,o),
(183,321,cs),
(111,321,l),
(111,247,l),
(173,247,ls),
(298,247,o),
(324,285,o),
(324,464,cs),
(324,471,ls),
(324,650,o),
(298,688,o),
(173,688,cs),
(50,688,l),
(50,0,l)
);
}
);
width = 339;
},
{
anchors = (
{
name = bottom;
pos = (391,0);
},
{
name = top;
pos = (391,688);
}
);
layerId = m011;
shapes = (
{
closed = 1;
nodes = (
(182,0,l),
(182,645,l),
(145,614,l),
(458,614,ls),
(643,614,o),
(659,603,o),
(659,485,cs),
(659,450,ls),
(659,332,o),
(643,321,o),
(458,321,cs),
(171,321,l),
(171,247,l),
(438,247,ls),
(691,247,o),
(741,280,o),
(741,464,cs),
(741,471,ls),
(741,655,o),
(691,688,o),
(438,688,cs),
(100,688,l),
(100,0,l)
);
}
);
width = 771;
},
{
anchors = (
{
name = bottom;
pos = (221,0);
},
{
name = top;
pos = (221,688);
}
);
layerId = m012;
shapes = (
{
closed = 1;
nodes = (
(110,0,l),
(110,645,l),
(106,614,l),
(235,614,ls),
(381,614,o),
(401,598,o),
(401,485,cs),
(401,450,ls),
(401,337,o),
(381,321,o),
(235,321,cs),
(105,321,l),
(105,247,l),
(235,247,ls),
(385,247,o),
(411,280,o),
(411,464,cs),
(411,471,ls),
(411,655,o),
(385,688,o),
(235,688,cs),
(100,688,l),
(100,0,l)
);
}
);
width = 441;
},
{
anchors = (
{
name = bottom;
pos = (426,0);
},
{
name = top;
pos = (426,688);
}
);
layerId = m013;
shapes = (
{
closed = 1;
nodes = (
(308,0,l),
(308,645,l),
(209,614,l),
(433,614,ls),
(588,614,o),
(599,606,o),
(599,485,cs),
(599,450,ls),
(599,329,o),
(588,321,o),
(433,321,cs),
(265,321,l),
(265,247,l),
(433,247,ls),
(769,247,o),
(829,280,o),
(829,464,cs),
(829,471,ls),
(829,655,o),
(769,688,o),
(433,688,cs),
(78,688,l),
(78,0,l)
);
}
);
width = 852;
},
{
anchors = (
{
name = bottom;
pos = (293,0);
},
{
name = top;
pos = (293,688);
}
);
layerId = m014;
shapes = (
{
closed = 1;
nodes = (
(182,0,l),
(182,683,l),
(145,678,l),
(307,678,ls),
(456,678,o),
(473,660,o),
(473,500,cs),
(473,467,ls),
(473,307,o),
(456,289,o),
(307,289,cs),
(166,289,l),
(166,279,l),
(307,279,ls),
(518,279,o),
(555,310,o),
(555,480,cs),
(555,487,ls),
(555,657,o),
(518,688,o),
(307,688,cs),
(100,688,l),
(100,0,l)
);
}
);
width = 585;
},
{
anchors = (
{
name = bottom;
pos = (278,0);
},
{
name = top;
pos = (278,688);
}
);
layerId = m015;
shapes = (
{
closed = 1;
nodes = (
(160,0,l),
(160,541,l),
(123,508,l),
(355,508,ls),
(442,508,o),
(451,502,o),
(451,442,cs),
(451,430,ls),
(451,370,o),
(442,364,o),
(355,364,cs),
(144,364,l),
(144,184,l),
(285,184,ls),
(479,184,o),
(533,239,o),
(533,433,cs),
(533,439,ls),
(533,633,o),
(479,688,o),
(285,688,cs),
(78,688,l),
(78,0,l)
);
}
);
width = 556;
},
{
anchors = (
{
name = bottom;
pos = (328,0);
},
{
name = top;
pos = (328,688);
}
);
layerId = m016;
shapes = (
{
closed = 1;
nodes = (
(205,0,l),
(205,642,l),
(161,604,l),
(349,604,ls),
(504,604,o),
(526,589,o),
(526,482,cs),
(526,449,ls),
(526,342,o),
(504,327,o),
(349,327,cs),
(185,327,l),
(185,243,l),
(349,243,ls),
(564,243,o),
(622,289,o),
(622,462,cs),
(622,469,ls),
(622,642,o),
(564,688,o),
(349,688,cs),
(109,688,l),
(109,0,l)
);
}
);
width = 655;
}
);
metricLeft = H;
metricRight = "=H*.3";
unicode = 80;
},
{
color = 4;
glyphname = R;
kernLeft = H;
kernRight = P;
layers = (
{
anchors = (
{
name = bottom;
pos = (320,0);
},
{
name = top;
pos = (320,688);
}
);
layerId = m009;
shapes = (
{
closed = 1;
nodes = (
(182,0,l),
(182,645,l),
(145,614,l),
(317,614,ls),
(478,614,o),
(483,610,o),
(483,494,cs),
(483,461,ls),
(483,345,o),
(478,341,o),
(317,341,cs),
(166,341,l),
(166,267,l),
(317,267,ls),
(527,267,o),
(565,298,o),
(565,474,cs),
(565,481,ls),
(565,657,o),
(527,688,o),
(317,688,cs),
(100,688,l),
(100,0,l)
);
},
{
closed = 1;
nodes = (
(575,0,l),
(458,289,l),
(372,289,l),
(486,0,l)
);
}
);
width = 640;
},
{
anchors = (
{
name = bottom;
pos = (192,0);
},
{
name = top;
pos = (192,688);
}
);
layerId = m010;
shapes = (
{
closed = 1;
nodes = (
(132,0,l),
(132,645,l),
(95,614,l),
(167,614,ls),
(250,614,o),
(252,611,o),
(252,494,cs),
(252,461,ls),
(252,344,o),
(250,341,o),
(167,341,cs),
(116,341,l),
(116,267,l),
(157,267,ls),
(304,267,o),
(334,303,o),
(334,474,cs),
(334,481,ls),
(334,652,o),
(304,688,o),
(157,688,cs),
(50,688,l),
(50,0,l)
);
},
{
closed = 1;
nodes = (
(348,0,l),
(256,289,l),
(173,289,l),
(262,0,l)
);
}
);
width = 381;
},
{
anchors = (
{
name = bottom;
pos = (416,0);
},
{
name = top;
pos = (416,688);
}
);
layerId = m011;
shapes = (
{
closed = 1;
nodes = (
(182,0,l),
(182,645,l),
(145,614,l),
(468,614,ls),
(653,614,o),
(669,604,o),
(669,495,cs),
(669,460,ls),
(669,351,o),
(653,341,o),
(468,341,cs),
(171,341,l),
(171,267,l),
(448,267,ls),
(701,267,o),
(751,297,o),
(751,464,cs),
(751,471,ls),
(751,655,o),
(701,688,o),
(448,688,cs),
(100,688,l),
(100,0,l)
);
},
{
closed = 1;
nodes = (
(761,0,l),
(616,294,l),
(528,294,l),
(670,0,l)
);
}
);
width = 826;
},
{
anchors = (
{
name = bottom;
pos = (243,0);
},
{
name = top;
pos = (243,688);
}
);
layerId = m012;
shapes = (
{
closed = 1;
nodes = (
(110,0,l),
(110,645,l),
(106,614,l),
(245,614,ls),
(391,614,o),
(411,599,o),
(411,495,cs),
(411,460,ls),
(411,356,o),
(391,341,o),
(245,341,cs),
(105,341,l),
(105,267,l),
(245,267,ls),
(394,267,o),
(421,298,o),
(421,474,cs),
(421,481,ls),
(421,657,o),
(395,688,o),
(245,688,cs),
(100,688,l),
(100,0,l)
);
},
{
closed = 1;
nodes = (
(421,0,l),
(307,282,l),
(292,288,l),
(408,0,l)
);
}
);
width = 486;
},
{
anchors = (
{
name = bottom;
pos = (450,0);
},
{
name = top;
pos = (450,688);
}
);
layerId = m013;
shapes = (
{
closed = 1;
nodes = (
(308,0,l),
(308,645,l),
(209,614,l),
(443,614,ls),
(598,614,o),
(609,607,o),
(609,495,cs),
(609,460,ls),
(609,348,o),
(598,341,o),
(443,341,cs),
(265,341,l),
(265,267,l),
(443,267,ls),
(779,267,o),
(839,299,o),
(839,474,cs),
(839,481,ls),
(839,657,o),
(779,688,o),
(443,688,cs),
(78,688,l),
(78,0,l)
);
},
{
closed = 1;
nodes = (
(849,0,l),
(702,299,l),
(467,284,l),
(604,0,l)
);
}
);
width = 900;
},
{
anchors = (
{
name = bottom;
pos = (318,0);
},
{
name = top;
pos = (318,688);
}
);
layerId = m014;
shapes = (
{
closed = 1;
nodes = (
(182,0,l),
(182,683,l),
(145,678,l),
(317,678,ls),
(466,678,o),
(483,661,o),
(483,510,cs),
(483,477,ls),
(483,326,o),
(466,309,o),
(317,309,cs),
(166,309,l),
(166,299,l),
(317,299,ls),
(528,299,o),
(565,327,o),
(565,490,cs),
(565,497,ls),
(565,659,o),
(528,688,o),
(317,688,cs),
(100,688,l),
(100,0,l)
);
},
{
closed = 1;
nodes = (
(571,0,l),
(445,311,l),
(362,305,l),
(482,0,l)
);
}
);
width = 636;
},
{
anchors = (
{
name = bottom;
pos = (302,0);
},
{
name = top;
pos = (302,688);
}
);
layerId = m015;
shapes = (
{
closed = 1;
nodes = (
(160,0,l),
(160,541,l),
(123,508,l),
(365,508,ls),
(452,508,o),
(461,502,o),
(461,447,cs),
(461,435,ls),
(461,378,o),
(452,374,o),
(365,374,cs),
(144,374,l),
(144,194,l),
(295,194,ls),
(489,194,o),
(543,248,o),
(543,438,cs),
(543,444,ls),
(543,634,o),
(489,688,o),
(295,688,cs),
(78,688,l),
(78,0,l)
);
},
{
closed = 1;
nodes = (
(553,0,l),
(448,259,l),
(362,259,l),
(464,0,l)
);
}
);
width = 604;
},
{
anchors = (
{
name = bottom;
pos = (328,0);
},
{
name = top;
pos = (328,688);
}
);
layerId = m016;
shapes = (
{
closed = 1;
nodes = (
(191,0,l),
(191,645,l),
(154,614,l),
(326,614,ls),
(482,614,o),
(492,614,o),
(492,494,cs),
(492,461,ls),
(492,341,o),
(482,341,o),
(326,341,cs),
(175,341,l),
(175,267,l),
(326,267,ls),
(537,267,o),
(574,299,o),
(574,474,cs),
(574,481,ls),
(574,656,o),
(537,688,o),
(326,688,cs),
(109,688,l),
(109,0,l)
);
},
{
closed = 1;
nodes = (
(584,0,l),
(467,289,l),
(381,289,l),
(495,0,l)
);
}
);
width = 655;
}
);
metricLeft = H;
metricRight = "=H*.65";
unicode = 82;
},
{
glyphname = S;
kernLeft = S;
kernRight = S;
layers = (
{
anchors = (
{
name = bottom;
pos = (314.196,0);
},
{
name = top;
pos = (314.196,688);
}
);
layerId = m009;
shapes = (
{
closed = 1;
nodes = (
(466.37,-8,o),
(560.891,6.435,o),
(560.891,195.609,cs),
(560.891,245.587,o),
(557.087,282.391,o),
(546.37,309.565,cs),
(524.565,366.217,o),
(475.913,377.109,o),
(405.304,384.478,cs),
(237.826,403.022,ls),
(163.326,410.935,o),
(153.5,426.326,o),
(153.5,505.935,cs),
(153.5,549.522,o),
(156.326,580.739,o),
(185.891,598.848,cs),
(211.913,615.413,o),
(254.848,621.783,o),
(329.152,621.783,cs),
(391.783,621.783,o),
(474.239,616.783,o),
(526.435,609.239,c),
(526.435,679.739,l),
(479.087,689.37,o),
(390.283,696,o),
(313.652,696,cs),
(158.435,696,o),
(66.957,671.261,o),
(66.957,503.587,cs),
(66.957,399.717,o),
(83.804,336.457,o),
(212.261,322.37,cs),
(382.761,303.37,ls),
(469.63,294.174,o),
(474.348,281.087,o),
(474.348,190.065,cs),
(474.348,144.022,o),
(471.522,105.783,o),
(441.848,88.043,cs),
(412.717,70.848,o),
(372.978,66.217,o),
(303.435,66.217,cs),
(249.783,66.217,o),
(157.217,71.674,o),
(86.957,78.674,c),
(86.957,5.63,l),
(154.304,-2.457,o),
(254.022,-8,o),
(328.652,-8,cs)
);
}
);
width = 628.3913;
},
{
anchors = (
{
name = bottom;
pos = (314.196,0);
},
{
name = top;
pos = (314.196,688);
}
);
layerId = m010;
shapes = (
{
closed = 1;
nodes = (
(466.37,-8,o),
(560.891,6.435,o),
(560.891,195.609,cs),
(560.891,245.587,o),
(557.087,282.391,o),
(546.37,309.565,cs),
(524.565,366.217,o),
(475.913,377.109,o),
(405.304,384.478,cs),
(237.826,403.022,ls),
(163.326,410.935,o),
(153.5,426.326,o),
(153.5,505.935,cs),
(153.5,549.522,o),
(156.326,580.739,o),
(185.891,598.848,cs),
(211.913,615.413,o),
(254.848,621.783,o),
(329.152,621.783,cs),
(391.783,621.783,o),
(474.239,616.783,o),
(526.435,609.239,c),
(526.435,679.739,l),
(479.087,689.37,o),
(390.283,696,o),
(313.652,696,cs),
(158.435,696,o),
(66.957,671.261,o),
(66.957,503.587,cs),
(66.957,399.717,o),
(83.804,336.457,o),
(212.261,322.37,cs),
(382.761,303.37,ls),
(469.63,294.174,o),
(474.348,281.087,o),
(474.348,190.065,cs),
(474.348,144.022,o),
(471.522,105.783,o),
(441.848,88.043,cs),
(412.717,70.848,o),
(372.978,66.217,o),
(303.435,66.217,cs),
(249.783,66.217,o),
(157.217,71.674,o),
(86.957,78.674,c),
(86.957,5.63,l),
(154.304,-2.457,o),
(254.022,-8,o),
(328.652,-8,cs)
);
}
);
width = 628.3913;
},
{
anchors = (
{
name = bottom;
pos = (314.196,0);
},
{
name = top;
pos = (314.196,688);
}
);
layerId = m011;
shapes = (
{
closed = 1;
nodes = (
(466.37,-8,o),
(560.891,6.435,o),
(560.891,195.609,cs),
(560.891,245.587,o),
(557.087,282.391,o),
(546.37,309.565,cs),
(524.565,366.217,o),
(475.913,377.109,o),
(405.304,384.478,cs),
(237.826,403.022,ls),
(163.326,410.935,o),
(153.5,426.326,o),
(153.5,505.935,cs),
(153.5,549.522,o),
(156.326,580.739,o),
(185.891,598.848,cs),
(211.913,615.413,o),
(254.848,621.783,o),
(329.152,621.783,cs),
(391.783,621.783,o),
(474.239,616.783,o),
(526.435,609.239,c),
(526.435,679.739,l),
(479.087,689.37,o),
(390.283,696,o),
(313.652,696,cs),
(158.435,696,o),
(66.957,671.261,o),
(66.957,503.587,cs),
(66.957,399.717,o),
(83.804,336.457,o),
(212.261,322.37,cs),
(382.761,303.37,ls),
(469.63,294.174,o),
(474.348,281.087,o),
(474.348,190.065,cs),
(474.348,144.022,o),
(471.522,105.783,o),
(441.848,88.043,cs),
(412.717,70.848,o),
(372.978,66.217,o),
(303.435,66.217,cs),
(249.783,66.217,o),
(157.217,71.674,o),
(86.957,78.674,c),
(86.957,5.63,l),
(154.304,-2.457,o),
(254.022,-8,o),
(328.652,-8,cs)
);
}
);
width = 628.3913;
},
{
anchors = (
{
name = bottom;
pos = (314.196,0);
},
{
name = top;
pos = (314.196,688);
}
);
layerId = m012;
shapes = (
{
closed = 1;
nodes = (
(466.37,-8,o),
(560.891,6.435,o),
(560.891,195.609,cs),
(560.891,245.587,o),
(557.087,282.391,o),
(546.37,309.565,cs),
(524.565,366.217,o),
(475.913,377.109,o),
(405.304,384.478,cs),
(237.826,403.022,ls),
(163.326,410.935,o),
(153.5,426.326,o),
(153.5,505.935,cs),
(153.5,549.522,o),
(156.326,580.739,o),
(185.891,598.848,cs),
(211.913,615.413,o),
(254.848,621.783,o),
(329.152,621.783,cs),
(391.783,621.783,o),
(474.239,616.783,o),
(526.435,609.239,c),
(526.435,679.739,l),
(479.087,689.37,o),
(390.283,696,o),
(313.652,696,cs),
(158.435,696,o),
(66.957,671.261,o),
(66.957,503.587,cs),
(66.957,399.717,o),
(83.804,336.457,o),
(212.261,322.37,cs),
(382.761,303.37,ls),
(469.63,294.174,o),
(474.348,281.087,o),
(474.348,190.065,cs),
(474.348,144.022,o),
(471.522,105.783,o),
(441.848,88.043,cs),
(412.717,70.848,o),
(372.978,66.217,o),
(303.435,66.217,cs),
(249.783,66.217,o),
(157.217,71.674,o),
(86.957,78.674,c),
(86.957,5.63,l),
(154.304,-2.457,o),
(254.022,-8,o),
(328.652,-8,cs)
);
}
);
width = 628.3913;
},
{
anchors = (
{
name = bottom;
pos = (314.196,0);
},
{
name = top;
pos = (314.196,688);
}
);
layerId = m013;
shapes = (
{
closed = 1;
nodes = (
(466.37,-8,o),
(560.891,6.435,o),
(560.891,195.609,cs),
(560.891,245.587,o),
(557.087,282.391,o),
(546.37,309.565,cs),
(524.565,366.217,o),
(475.913,377.109,o),
(405.304,384.478,cs),
(237.826,403.022,ls),
(163.326,410.935,o),
(153.5,426.326,o),
(153.5,505.935,cs),
(153.5,549.522,o),
(156.326,580.739,o),
(185.891,598.848,cs),
(211.913,615.413,o),
(254.848,621.783,o),
(329.152,621.783,cs),
(391.783,621.783,o),
(474.239,616.783,o),
(526.435,609.239,c),
(526.435,679.739,l),
(479.087,689.37,o),
(390.283,696,o),
(313.652,696,cs),
(158.435,696,o),
(66.957,671.261,o),
(66.957,503.587,cs),
(66.957,399.717,o),
(83.804,336.457,o),
(212.261,322.37,cs),
(382.761,303.37,ls),
(469.63,294.174,o),
(474.348,281.087,o),
(474.348,190.065,cs),
(474.348,144.022,o),
(471.522,105.783,o),
(441.848,88.043,cs),
(412.717,70.848,o),
(372.978,66.217,o),
(303.435,66.217,cs),
(249.783,66.217,o),
(157.217,71.674,o),
(86.957,78.674,c),
(86.957,5.63,l),
(154.304,-2.457,o),
(254.022,-8,o),
(328.652,-8,cs)
);
}
);
width = 628.3913;
},
{
anchors = (
{
name = bottom;
pos = (314.196,0);
},
{
name = top;
pos = (314.196,688);
}
);
layerId = m014;
shapes = (
{
closed = 1;
nodes = (
(466.37,-8,o),
(560.891,6.435,o),
(560.891,195.609,cs),
(560.891,245.587,o),
(557.087,282.391,o),
(546.37,309.565,cs),
(524.565,366.217,o),
(475.913,377.109,o),
(405.304,384.478,cs),
(237.826,403.022,ls),
(163.326,410.935,o),
(153.5,426.326,o),
(153.5,505.935,cs),
(153.5,549.522,o),
(156.326,580.739,o),
(185.891,598.848,cs),
(211.913,615.413,o),
(254.848,621.783,o),
(329.152,621.783,cs),
(391.783,621.783,o),
(474.239,616.783,o),
(526.435,609.239,c),
(526.435,679.739,l),
(479.087,689.37,o),
(390.283,696,o),
(313.652,696,cs),
(158.435,696,o),
(66.957,671.261,o),
(66.957,503.587,cs),
(66.957,399.717,o),
(83.804,336.457,o),
(212.261,322.37,cs),
(382.761,303.37,ls),
(469.63,294.174,o),
(474.348,281.087,o),
(474.348,190.065,cs),
(474.348,144.022,o),
(471.522,105.783,o),
(441.848,88.043,cs),
(412.717,70.848,o),
(372.978,66.217,o),
(303.435,66.217,cs),
(249.783,66.217,o),
(157.217,71.674,o),
(86.957,78.674,c),
(86.957,5.63,l),
(154.304,-2.457,o),
(254.022,-8,o),
(328.652,-8,cs)
);
}
);
width = 628.3913;
},
{
anchors = (
{
name = bottom;
pos = (314.196,0);
},
{
name = top;
pos = (314.196,688);
}
);
layerId = m015;
shapes = (
{
closed = 1;
nodes = (
(466.37,-8,o),
(560.891,6.435,o),
(560.891,195.609,cs),
(560.891,245.587,o),
(557.087,282.391,o),
(546.37,309.565,cs),
(524.565,366.217,o),
(475.913,377.109,o),
(405.304,384.478,cs),
(237.826,403.022,ls),
(163.326,410.935,o),
(153.5,426.326,o),
(153.5,505.935,cs),
(153.5,549.522,o),
(156.326,580.739,o),
(185.891,598.848,cs),
(211.913,615.413,o),
(254.848,621.783,o),
(329.152,621.783,cs),
(391.783,621.783,o),
(474.239,616.783,o),
(526.435,609.239,c),
(526.435,679.739,l),
(479.087,689.37,o),
(390.283,696,o),
(313.652,696,cs),
(158.435,696,o),
(66.957,671.261,o),
(66.957,503.587,cs),
(66.957,399.717,o),
(83.804,336.457,o),
(212.261,322.37,cs),
(382.761,303.37,ls),
(469.63,294.174,o),
(474.348,281.087,o),
(474.348,190.065,cs),
(474.348,144.022,o),
(471.522,105.783,o),
(441.848,88.043,cs),
(412.717,70.848,o),
(372.978,66.217,o),
(303.435,66.217,cs),
(249.783,66.217,o),
(157.217,71.674,o),
(86.957,78.674,c),
(86.957,5.63,l),
(154.304,-2.457,o),
(254.022,-8,o),
(328.652,-8,cs)
);
}
);
width = 628.3913;
},
{
anchors = (
{
name = bottom;
pos = (314.196,0);
},
{
name = top;
pos = (314.196,688);
}
);
layerId = m016;
shapes = (
{
closed = 1;
nodes = (
(466.37,-8,o),
(560.891,6.435,o),
(560.891,195.609,cs),
(560.891,245.587,o),
(557.087,282.391,o),
(546.37,309.565,cs),
(524.565,366.217,o),
(475.913,377.109,o),
(405.304,384.478,cs),
(237.826,403.022,ls),
(163.326,410.935,o),
(153.5,426.326,o),
(153.5,505.935,cs),
(153.5,549.522,o),
(156.326,580.739,o),
(185.891,598.848,cs),
(211.913,615.413,o),
(254.848,621.783,o),
(329.152,621.783,cs),
(391.783,621.783,o),
(474.239,616.783,o),
(526.435,609.239,c),
(526.435,679.739,l),
(479.087,689.37,o),
(390.283,696,o),
(313.652,696,cs),
(158.435,696,o),
(66.957,671.261,o),
(66.957,503.587,cs),
(66.957,399.717,o),
(83.804,336.457,o),
(212.261,322.37,cs),
(382.761,303.37,ls),
(469.63,294.174,o),
(474.348,281.087,o),
(474.348,190.065,cs),
(474.348,144.022,o),
(471.522,105.783,o),
(441.848,88.043,cs),
(412.717,70.848,o),
(372.978,66.217,o),
(303.435,66.217,cs),
(249.783,66.217,o),
(157.217,71.674,o),
(86.957,78.674,c),
(86.957,5.63,l),
(154.304,-2.457,o),
(254.022,-8,o),
(328.652,-8,cs)
);
}
);
width = 628.3913;
}
);
unicode = 83;
},
{
color = 4;
glyphname = T;
kernLeft = T;
kernRight = T;
layers = (
{
anchors = (
{
name = bottom;
pos = (261,0);
},
{
name = center;
pos = (261,344);
},
{
name = top;
pos = (261,688);
}
);
layerId = m009;
shapes = (
{
closed = 1;
nodes = (
(302,0,l),
(302,649,l),
(267,612,l),
(512,612,l),
(512,688,l),
(10,688,l),
(10,612,l),
(255,612,l),
(220,649,l),
(220,0,l)
);
}
);
width = 522;
},
{
anchors = (
{
name = bottom;
pos = (151,0);
},
{
name = center;
pos = (151,344);
},
{
name = top;
pos = (151,688);
}
);
layerId = m010;
shapes = (
{
closed = 1;
nodes = (
(192,0,l),
(192,649,l),
(157,612,l),
(297,612,l),
(297,688,l),
(5,688,l),
(5,612,l),
(145,612,l),
(110,649,l),
(110,0,l)
);
}
);
width = 302;
},
{
anchors = (
{
name = bottom;
pos = (315,0);
},
{
name = center;
pos = (315,344);
},
{
name = top;
pos = (315,688);
}
);
layerId = m011;
shapes = (
{
closed = 1;
nodes = (
(356,0,l),
(356,649,l),
(321,612,l),
(620,612,l),
(620,688,l),
(10,688,l),
(10,612,l),
(309,612,l),
(274,649,l),
(274,0,l)
);
}
);
width = 630;
},
{
anchors = (
{
name = bottom;
pos = (205,0);
},
{
name = center;
pos = (205,344);
},
{
name = top;
pos = (205,688);
}
);
layerId = m012;
shapes = (
{
closed = 1;
nodes = (
(210,0,l),
(210,649,l),
(206,612,l),
(400,612,l),
(400,688,l),
(10,688,l),
(10,612,l),
(204,612,l),
(200,649,l),
(200,0,l)
);
}
);
width = 410;
},
{
anchors = (
{
name = bottom;
pos = (333,0);
},
{
name = center;
pos = (333,344);
},
{
name = top;
pos = (333,688);
}
);
layerId = m013;
shapes = (
{
closed = 1;
nodes = (
(448,0,l),
(448,649,l),
(349,612,l),
(658,612,l),
(658,688,l),
(8,688,l),
(8,612,l),
(317,612,l),
(218,649,l),
(218,0,l)
);
}
);
width = 666;
},
{
anchors = (
{
name = bottom;
pos = (241,0);
},
{
name = center;
pos = (241,344);
},
{
name = top;
pos = (241,688);
}
);
layerId = m014;
shapes = (
{
closed = 1;
nodes = (
(282,0,l),
(282,683,l),
(247,678,l),
(472,678,l),
(472,688,l),
(10,688,l),
(10,678,l),
(235,678,l),
(200,683,l),
(200,0,l)
);
}
);
width = 482;
},
{
anchors = (
{
name = bottom;
pos = (259,0);
},
{
name = center;
pos = (259,344);
},
{
name = top;
pos = (259,688);
}
);
layerId = m015;
shapes = (
{
closed = 1;
nodes = (
(300,0,l),
(300,585,l),
(265,508,l),
(510,508,l),
(510,688,l),
(8,688,l),
(8,508,l),
(253,508,l),
(218,585,l),
(218,0,l)
);
}
);
width = 518;
},
{
anchors = (
{
name = bottom;
pos = (262,0);
},
{
name = center;
pos = (262,344);
},
{
name = top;
pos = (262,688);
}
);
layerId = m016;
shapes = (
{
closed = 1;
nodes = (
(305,0,l),
(305,649,l),
(268,612,l),
(513,612,l),
(513,688,l),
(11,688,l),
(11,612,l),
(256,612,l),
(219,649,l),
(219,0,l)
);
}
);
width = 524;
}
);
metricLeft = "=H*.10";
metricRight = "=|";
unicode = 84;
},
{
color = 4;
glyphname = U;
kernLeft = O;
kernRight = O;
layers = (
{
anchors = (
{
name = bottom;
pos = (352,0);
},
{
name = ogonek;
pos = (634,10);
},
{
name = top;
pos = (352,688);
},
{
name = topright;
pos = (684,688);
}
);
layerId = m009;
shapes = (
{
closed = 1;
nodes = (
(570,-8,o),
(609,50,o),
(609,326,cs),
(609,688,l),
(527,688,l),
(527,297,ls),
(527,91,o),
(515,68,o),
(352,68,cs),
(189,68,o),
(177,91,o),
(177,297,cs),
(177,688,l),
(95,688,l),
(95,326,ls),
(95,51,o),
(134,-8,o),
(352,-8,cs)
);
}
);
width = 704;
},
{
anchors = (
{
name = bottom;
pos = (190,0);
},
{
name = ogonek;
pos = (334,10);
},
{
name = top;
pos = (190,688);
},
{
name = topright;
pos = (350,688);
}
);
layerId = m010;
shapes = (
{
closed = 1;
nodes = (
(304,-8,o),
(332,38,o),
(332,216,cs),
(332,688,l),
(250,688,l),
(250,187,ls),
(250,78,o),
(245,68,o),
(190,68,cs),
(135,68,o),
(130,78,o),
(130,187,cs),
(130,688,l),
(48,688,l),
(48,216,ls),
(48,38,o),
(76,-8,o),
(190,-8,cs)
);
}
);
width = 380;
},
{
anchors = (
{
name = bottom;
pos = (437,0);
},
{
name = ogonek;
pos = (775,10);
},
{
name = top;
pos = (437,688);
},
{
name = topright;
pos = (839,688);
}
);
layerId = m011;
shapes = (
{
closed = 1;
nodes = (
(726,-8,o),
(779,43,o),
(779,326,cs),
(779,688,l),
(697,688,l),
(697,297,ls),
(697,89,o),
(672,68,o),
(437,68,cs),
(202,68,o),
(177,89,o),
(177,297,cs),
(177,688,l),
(95,688,l),
(95,326,ls),
(95,43,o),
(148,-8,o),
(437,-8,cs)
);
}
);
width = 874;
},
{
anchors = (
{
name = bottom;
pos = (316,0);
},
{
name = ogonek;
pos = (569,10);
},
{
name = top;
pos = (316,688);
},
{
name = topright;
pos = (612,688);
}
);
layerId = m012;
shapes = (
{
closed = 1;
nodes = (
(486,-8,o),
(537,65,o),
(537,326,cs),
(537,688,l),
(455,688,l),
(455,297,ls),
(455,98,o),
(432,68,o),
(280,68,cs),
(132,68,o),
(105,103,o),
(105,297,cs),
(105,688,l),
(95,688,l),
(95,301,ls),
(95,49,o),
(134,-8,o),
(306,-8,cs)
);
}
);
width = 632;
},
{
anchors = (
{
name = bottom;
pos = (405,0);
},
{
name = ogonek;
pos = (729,10);
},
{
name = top;
pos = (405,688);
},
{
name = topright;
pos = (790,688);
}
);
background = {
shapes = (
{
closed = 1;
nodes = (
(670,-8,o),
(736,65,o),
(736,356,cs),
(736,688,l),
(654,688,l),
(654,328,ls),
(654,117,o),
(616,68,o),
(452,68,cs),
(329,68,o),
(304,113,o),
(304,328,cs),
(304,688,l),
(74,688,l),
(74,356,ls),
(74,65,o),
(141,-8,o),
(406,-8,cs)
);
}
);
};
layerId = m013;
shapes = (
{
closed = 1;
nodes = (
(664,-8,o),
(736,65,o),
(736,326,cs),
(736,688,l),
(654,688,l),
(654,297,ls),
(654,111,o),
(621,68,o),
(479,68,cs),
(334,68,o),
(304,107,o),
(304,297,cs),
(304,688,l),
(74,688,l),
(74,378,ls),
(74,76,o),
(147,-8,o),
(405,-8,cs)
);
}
);
width = 810;
},
{
anchors = (
{
name = bottom;
pos = (316,0);
},
{
name = ogonek;
pos = (569,10);
},
{
name = top;
pos = (316,688);
},
{
name = topright;
pos = (612,688);
}
);
layerId = m014;
shapes = (
{
closed = 1;
nodes = (
(496,-8,o),
(537,53,o),
(537,326,cs),
(537,688,l),
(527,688,l),
(527,322,ls),
(527,75,o),
(487,2,o),
(352,2,cs),
(208,2,o),
(177,54,o),
(177,297,cs),
(177,688,l),
(95,688,l),
(95,326,ls),
(95,66,o),
(144,-8,o),
(316,-8,cs)
);
}
);
width = 632;
},
{
anchors = (
{
name = bottom;
pos = (384,0);
},
{
name = ogonek;
pos = (690,10);
},
{
name = top;
pos = (384,688);
},
{
name = topright;
pos = (747,688);
}
);
layerId = m016;
shapes = (
{
closed = 1;
nodes = (
(607,-8,o),
(663,59,o),
(663,327,cs),
(663,688,l),
(568,688,l),
(568,299,ls),
(568,107,o),
(543,77,o),
(383,77,cs),
(224,77,o),
(199,107,o),
(199,299,cs),
(199,688,l),
(104,688,l),
(104,327,ls),
(104,59,o),
(160,-8,o),
(383,-8,cs)
);
}
);
width = 767;
},
{
anchors = (
{
name = bottom;
pos = (354,0);
},
{
name = ogonek;
pos = (636,10);
},
{
name = top;
pos = (354,688);
},
{
name = topright;
pos = (686,688);
}
);
associatedMasterId = m015;
layerId = "1996DBA0-117F-4277-8115-829FDB1FD440";
name = "28 Mar 26 14:14";
shapes = (
{
closed = 1;
nodes = (
(688,-8,o),
(757,54,o),
(757,326,cs),
(757,688,l),
(527,688,l),
(527,354,ls),
(527,206,o),
(512,192,o),
(352,192,cs),
(192,192,o),
(177,206,o),
(177,354,cs),
(177,688,l),
(95,688,l),
(95,326,ls),
(95,37,o),
(133,-8,o),
(383,-8,cs)
);
}
);
width = 852;
},
{
anchors = (
{
name = bottom;
pos = (208,0);
},
{
name = ogonek;
pos = (432,10);
},
{
name = top;
pos = (208,688);
},
{
name = topright;
pos = (468,688);
}
);
associatedMasterId = m012;
guides = (
{
angle = 90;
pos = (280,68);
},
{
angle = -19.4766;
pos = (95,306);
}
);
layerId = "BD933983-7CF8-44AD-B2B2-6B47EC951F05";
name = "1 Apr 26 at 14:52";
shapes = (
{
closed = 1;
nodes = (
(434,68,o),
(455,94,o),
(455,302,cs),
(455,688,l),
(537,688,l),
(537,326,ls),
(537,52,o),
(493,-8,o),
(293,-8,cs),
(124,-8,o),
(95,38,o),
(95,306,cs),
(95,688,l),
(105,688,l),
(105,302,ls),
(105,76,o),
(110,68,o),
(280,68,cs)
);
}
);
width = 632;
},
{
anchors = (
{
name = bottom;
pos = (402,0);
},
{
name = ogonek;
pos = (684,10);
},
{
name = top;
pos = (402,688);
},
{
name = topright;
pos = (734,688);
}
);
associatedMasterId = m014;
layerId = "A30AA2A7-9AA7-4DB9-947F-C8238C62F531";
name = "1 Apr 26 at 14:54";
shapes = (
{
closed = 1;
nodes = (
(507,-8,o),
(537,43,o),
(537,326,cs),
(537,688,l),
(527,688,l),
(527,270,ls),
(527,56,o),
(492,2,o),
(352,2,cs),
(198,2,o),
(177,35,o),
(177,270,cs),
(177,688,l),
(95,688,l),
(95,326,ls),
(95,52,o),
(139,-8,o),
(338,-8,cs)
);
}
);
width = 632;
},
{
anchors = (
{
name = bottom;
pos = (354,0);
},
{
name = ogonek;
pos = (636,10);
},
{
name = top;
pos = (354,688);
},
{
name = topright;
pos = (686,688);
}
);
associatedMasterId = m015;
guides = (
{
angle = 98.8107;
pos = (368,92);
}
);
layerId = "BAFDC867-9AC8-4085-81FD-BA619B71ACBA";
name = "1 Apr 26 at 16:27";
shapes = (
{
closed = 1;
nodes = (
(679,-8,o),
(757,74,o),
(757,386,cs),
(757,688,l),
(527,688,l),
(527,371,ls),
(527,217,o),
(503,192,o),
(352,192,cs),
(201,192,o),
(177,217,o),
(177,371,cs),
(177,688,l),
(95,688,l),
(95,386,ls),
(95,52,o),
(139,-8,o),
(383,-8,cs)
);
}
);
width = 852;
},
{
anchors = (
{
name = bottom;
pos = (405,0);
},
{
name = ogonek;
pos = (729,10);
},
{
name = top;
pos = (405,688);
},
{
name = topright;
pos = (790,688);
}
);
background = {
shapes = (
{
closed = 0;
nodes = (
(736,378,ls),
(736,688,l),
(506,688,l),
(506,297,ls)
);
}
);
};
layerId = m015;
name = "YOPQ-max - 212";
shapes = (
{
closed = 1;
nodes = (
(657,-8,o),
(736,91,o),
(736,403,cs),
(736,688,l),
(506,688,l),
(506,323,ls),
(506,192,o),
(483,172,o),
(331,172,cs),
(179,172,o),
(156,203,o),
(156,403,cs),
(156,688,l),
(74,688,l),
(74,432,ls),
(74,79,o),
(140,-8,o),
(405,-8,cs)
);
}
);
width = 810;
},
{
anchors = (
{
name = bottom;
pos = (428,0);
},
{
name = ogonek;
pos = (770,10);
},
{
name = top;
pos = (428,688);
},
{
name = topright;
pos = (836,688);
}
);
associatedMasterId = m013;
guides = (
{
angle = -19.4766;
pos = (136,312);
}
);
layerId = "BEBC0B49-F26C-4EEA-B0E0-2BC12E5A0709";
name = "1 Apr 26 at 16:28";
shapes = (
{
closed = 1;
nodes = (
(719,-8,o),
(757,37,o),
(757,326,cs),
(757,688,l),
(675,688,l),
(675,311,ls),
(675,80,o),
(663,61,o),
(500,61,cs),
(337,61,o),
(325,80,o),
(325,311,cs),
(325,688,l),
(95,688,l),
(95,326,ls),
(95,54,o),
(164,-8,o),
(469,-8,cs)
);
}
);
width = 852;
},
{
anchors = (
{
name = bottom;
pos = (208,0);
},
{
name = ogonek;
pos = (432,10);
},
{
name = top;
pos = (208,688);
},
{
name = topright;
pos = (468,688);
}
);
associatedMasterId = m012;
guides = (
{
angle = 90;
pos = (280,68);
},
{
angle = 94.514;
pos = (313,30);
}
);
layerId = "32673AEB-41C7-41AB-A72D-A40AF22EDAC0";
name = "1 Apr 26 at 16:31";
shapes = (
{
closed = 1;
nodes = (
(503,-8,o),
(537,50,o),
(537,326,cs),
(537,688,l),
(455,688,l),
(455,297,ls),
(455,91,o),
(445,68,o),
(310,68,cs),
(119,68,o),
(105,91,o),
(105,297,cs),
(105,688,l),
(95,688,l),
(95,326,ls),
(95,51,o),
(129,-8,o),
(316,-8,cs)
);
}
);
width = 632;
},
{
anchors = (
{
name = bottom;
pos = (428,0);
},
{
name = ogonek;
pos = (770,10);
},
{
name = top;
pos = (428,688);
},
{
name = topright;
pos = (836,688);
}
);
associatedMasterId = m013;
guides = (
{
angle = -19.4766;
pos = (136,312);
}
);
layerId = "76664B01-C1C2-4486-BDD6-9D08850B902D";
name = "1 Apr 26 at 16:42";
shapes = (
{
closed = 1;
nodes = (
(691,-8,o),
(757,65,o),
(757,356,cs),
(757,688,l),
(675,688,l),
(675,328,ls),
(675,117,o),
(637,68,o),
(473,68,cs),
(350,68,o),
(325,113,o),
(325,328,cs),
(325,688,l),
(95,688,l),
(95,356,ls),
(95,65,o),
(162,-8,o),
(427,-8,cs)
);
}
);
width = 852;
},
{
anchors = (
{
name = bottom;
pos = (402,0);
},
{
name = ogonek;
pos = (684,10);
},
{
name = top;
pos = (402,688);
},
{
name = topright;
pos = (734,688);
}
);
associatedMasterId = m014;
layerId = "F8FAFA8C-D3D7-4F20-AAE5-856DE6DE9A05";
name = "1 Apr 26 at 16:45";
shapes = (
{
closed = 1;
nodes = (
(500,-8,o),
(537,47,o),
(537,326,cs),
(537,688,l),
(527,688,l),
(527,297,ls),
(527,57,o),
(489,2,o),
(325,2,cs),
(202,2,o),
(177,52,o),
(177,297,cs),
(177,688,l),
(95,688,l),
(95,326,ls),
(95,47,o),
(131,-8,o),
(316,-8,cs)
);
}
);
width = 632;
}
);
metricLeft = "=H*.95";
metricRight = "=|";
unicode = 85;
},
{
color = 4;
glyphname = V;
kernLeft = A;
kernRight = A;
layers = (
{
anchors = (
{
name = bottom;
pos = (313,0);
},
{
name = top;
pos = (313,688);
}
);
layerId = m009;
shapes = (
{
closed = 1;
nodes = (
(366,0,l),
(616,688,l),
(529,688,l),
(316,88,l),
(310,88,l),
(97,688,l),
(10,688,l),
(260,0,l)
);
}
);
width = 626;
},
{
anchors = (
{
name = bottom;
pos = (170,0);
},
{
name = top;
pos = (170,688);
}
);
layerId = m010;
shapes = (
{
closed = 1;
nodes = (
(238,0,l),
(335,688,l),
(252,688,l),
(172,58,l),
(168,58,l),
(88,688,l),
(5,688,l),
(102,0,l)
);
}
);
width = 340;
},
{
anchors = (
{
name = bottom;
pos = (393,0);
},
{
name = top;
pos = (393,688);
}
);
layerId = m011;
shapes = (
{
closed = 1;
nodes = (
(452,0,l),
(776,688,l),
(685,688,l),
(395,58,l),
(391,58,l),
(101,688,l),
(10,688,l),
(334,0,l)
);
}
);
width = 786;
},
{
anchors = (
{
name = bottom;
pos = (275,0);
},
{
name = top;
pos = (275,688);
}
);
layerId = m012;
shapes = (
{
closed = 1;
nodes = (
(294,0,l),
(540,688,l),
(453,688,l),
(240,76,l),
(234,76,l),
(21,688,l),
(10,688,l),
(250,0,l)
);
}
);
width = 550;
},
{
anchors = (
{
name = bottom;
pos = (390,0);
},
{
name = top;
pos = (390,688);
}
);
layerId = m013;
shapes = (
{
closed = 1;
nodes = (
(506,0,l),
(772,688,l),
(684,688,l),
(472,128,l),
(466,128,l),
(253,688,l),
(8,688,l),
(273,0,l)
);
}
);
width = 780;
},
{
anchors = (
{
name = bottom;
pos = (275,0);
},
{
name = top;
pos = (275,688);
}
);
layerId = m014;
shapes = (
{
closed = 1;
nodes = (
(300,0,l),
(540,688,l),
(529,688,l),
(316,76,l),
(310,76,l),
(97,688,l),
(10,688,l),
(256,0,l)
);
}
);
width = 550;
},
{
anchors = (
{
name = bottom;
pos = (390,0);
},
{
name = top;
pos = (390,688);
}
);
layerId = m015;
shapes = (
{
closed = 1;
nodes = (
(507,0,l),
(772,688,l),
(527,688,l),
(314,128,l),
(308,128,l),
(96,688,l),
(8,688,l),
(274,0,l)
);
}
);
width = 780;
},
{
anchors = (
{
name = bottom;
pos = (314,0);
},
{
name = top;
pos = (314,688);
}
);
layerId = m016;
shapes = (
{
closed = 1;
nodes = (
(367,0,l),
(617,688,l),
(530,688,l),
(316,88,l),
(312,88,l),
(98,688,l),
(11,688,l),
(261,0,l)
);
}
);
width = 628;
},
{
anchors = (
{
name = bottom;
pos = (275,0);
},
{
name = top;
pos = (275,688);
}
);
associatedMasterId = m012;
layerId = "9D169B61-CFAA-408A-AD6A-8EB325514E3C";
name = "4 Apr 26 at 14:57";
shapes = (
{
closed = 1;
nodes = (
(294,0,l),
(540,688,l),
(453,688,l),
(240,76,l),
(234,76,l),
(21,688,l),
(10,688,l),
(250,0,l)
);
}
);
width = 550;
},
{
anchors = (
{
name = bottom;
pos = (390,0);
},
{
name = top;
pos = (390,688);
}
);
associatedMasterId = m013;
layerId = "D04832BA-0659-431F-8975-CF41A11CB0A1";
name = "4 Apr 26 at 14:57";
shapes = (
{
closed = 1;
nodes = (
(506,0,l),
(772,688,l),
(684,688,l),
(472,128,l),
(466,128,l),
(253,688,l),
(8,688,l),
(273,0,l)
);
}
);
width = 780;
},
{
anchors = (
{
name = bottom;
pos = (275,0);
},
{
name = top;
pos = (275,688);
}
);
associatedMasterId = m014;
layerId = "FBEB86EB-D681-4F5D-9263-6D890950C12E";
name = "4 Apr 26 at 14:57";
shapes = (
{
closed = 1;
nodes = (
(300,0,l),
(540,688,l),
(529,688,l),
(316,76,l),
(310,76,l),
(97,688,l),
(10,688,l),
(256,0,l)
);
}
);
width = 550;
},
{
anchors = (
{
name = bottom;
pos = (390,0);
},
{
name = top;
pos = (390,688);
}
);
associatedMasterId = m015;
layerId = "966AE2EE-8E47-4684-A450-ACC38E00996A";
name = "4 Apr 26 at 14:57";
shapes = (
{
closed = 1;
nodes = (
(507,0,l),
(772,688,l),
(527,688,l),
(314,128,l),
(308,128,l),
(96,688,l),
(8,688,l),
(274,0,l)
);
}
);
width = 780;
}
);
metricLeft = "=H*.10";
metricRight = "=|";
unicode = 86;
},
{
color = 4;
glyphname = W;
kernLeft = A;
kernRight = A;
layers = (
{
anchors = (
{
name = bottom;
pos = (243,0);
},
{
name = top;
pos = (243,688);
}
);
layerId = m009;
shapes = (
{
closed = 1;
nodes = (
(307,0,l),
(448,537,l),
(589,0,l),
(698,0,l),
(886,688,l),
(800,688,l),
(645,88,l),
(641,88,l),
(484,688,l),
(412,688,l),
(255,88,l),
(251,88,l),
(96,688,l),
(10,688,l),
(198,0,l)
);
}
);
width = 896;
},
{
anchors = (
{
name = bottom;
pos = (290,0);
},
{
name = top;
pos = (282,688);
}
);
layerId = m010;
shapes = (
{
closed = 1;
nodes = (
(236,0,l),
(309,585,l),
(382,0,l),
(516,0,l),
(613,688,l),
(530,688,l),
(450,58,l),
(446,58,l),
(368,688,l),
(250,688,l),
(172,58,l),
(168,58,l),
(88,688,l),
(5,688,l),
(102,0,l)
);
}
);
width = 618;
},
{
anchors = (
{
name = bottom;
pos = (491,0);
},
{
name = top;
pos = (491,688);
}
);
layerId = m011;
shapes = (
{
closed = 1;
nodes = (
(342,0,l),
(529,571,l),
(716,0,l),
(818,0,l),
(1048,688,l),
(961,688,l),
(767,88,l),
(763,88,l),
(566,688,l),
(492,688,l),
(295,88,l),
(291,88,l),
(97,688,l),
(10,688,l),
(240,0,l)
);
}
);
width = 1058;
},
{
anchors = (
{
name = bottom;
pos = (192,0);
},
{
name = top;
pos = (192,688);
}
);
layerId = m012;
shapes = (
{
closed = 1;
nodes = (
(255,0,l),
(448,592,l),
(636,0,l),
(688,0,l),
(886,688,l),
(801,688,l),
(628,76,l),
(622,76,l),
(428,688,l),
(397,688,l),
(198,76,l),
(192,76,l),
(20,688,l),
(10,688,l),
(203,0,l)
);
}
);
width = 896;
},
{
anchors = (
{
name = bottom;
pos = (458,0);
},
{
name = top;
pos = (458,688);
}
);
layerId = m013;
shapes = (
{
closed = 1;
nodes = (
(399,0,l),
(516,509,l),
(623,0,l),
(863,0,l),
(1020,688,l),
(938,688,l),
(804,128,l),
(800,128,l),
(681,688,l),
(480,688,l),
(351,128,l),
(347,128,l),
(239,688,l),
(8,688,l),
(159,0,l)
);
}
);
width = 1028;
},
{
anchors = (
{
name = bottom;
pos = (104,0);
},
{
name = top;
pos = (104,688);
}
);
layerId = m014;
shapes = (
{
closed = 1;
nodes = (
(260,0,l),
(448,592,l),
(641,0,l),
(693,0,l),
(886,688,l),
(876,688,l),
(704,76,l),
(698,76,l),
(499,688,l),
(468,688,l),
(271,76,l),
(265,76,l),
(95,688,l),
(10,688,l),
(208,0,l)
);
}
);
width = 896;
},
{
anchors = (
{
name = bottom;
pos = (302,0);
},
{
name = top;
pos = (302,688);
}
);
layerId = m015;
shapes = (
{
closed = 1;
nodes = (
(405,0,l),
(512,509,l),
(629,0,l),
(869,0,l),
(1020,688,l),
(789,688,l),
(681,128,l),
(677,128,l),
(548,688,l),
(347,688,l),
(228,128,l),
(224,128,l),
(90,688,l),
(8,688,l),
(165,0,l)
);
}
);
width = 1028;
},
{
anchors = (
{
name = bottom;
pos = (315,0);
},
{
name = top;
pos = (315,688);
}
);
layerId = m016;
shapes = (
{
closed = 1;
nodes = (
(310,0,l),
(449,537,l),
(588,0,l),
(699,0,l),
(887,688,l),
(801,688,l),
(647,88,l),
(641,88,l),
(488,688,l),
(410,688,l),
(257,88,l),
(251,88,l),
(97,688,l),
(11,688,l),
(199,0,l)
);
}
);
width = 898;
},
{
anchors = (
{
name = bottom;
pos = (269,0);
},
{
name = top;
pos = (261,688);
}
);
associatedMasterId = m010;
layerId = "B2289D4B-6657-45F8-B9B7-0B05C80E93DB";
name = "4 Apr 26 at 12:54";
shapes = (
{
closed = 1;
nodes = (
(227,0,l),
(304,688,l),
(231,688,l),
(161,58,l),
(157,58,l),
(87,688,l),
(4,688,l),
(91,0,l)
);
},
{
closed = 1;
nodes = (
(485,0,l),
(572,688,l),
(489,688,l),
(419,58,l),
(415,58,l),
(345,688,l),
(272,688,l),
(349,0,l)
);
}
);
width = 576;
},
{
anchors = (
{
name = bottom;
pos = (489,0);
},
{
name = top;
pos = (489,688);
}
);
associatedMasterId = m011;
layerId = "12AE61B9-07BF-4401-B5BA-2C83ABE9F033";
name = "4 Apr 26 at 12:54";
shapes = (
{
closed = 1;
nodes = (
(344,0,l),
(567,688,l),
(487,688,l),
(294,88,l),
(288,88,l),
(95,688,l),
(8,688,l),
(238,0,l)
);
},
{
closed = 1;
nodes = (
(816,0,l),
(1046,688,l),
(959,688,l),
(766,88,l),
(760,88,l),
(567,688,l),
(487,688,l),
(710,0,l)
);
}
);
width = 1054;
},
{
anchors = (
{
name = bottom;
pos = (192,0);
},
{
name = top;
pos = (192,688);
}
);
associatedMasterId = m012;
layerId = "F326BC94-0E2C-40B1-8E74-5AA41D9074C2";
name = "4 Apr 26 at 12:54";
shapes = (
{
closed = 1;
nodes = (
(255,0,l),
(453,688,l),
(368,688,l),
(198,76,l),
(192,76,l),
(20,688,l),
(10,688,l),
(203,0,l)
);
},
{
closed = 1;
nodes = (
(688,0,l),
(886,688,l),
(801,688,l),
(631,76,l),
(625,76,l),
(453,688,l),
(443,688,l),
(636,0,l)
);
}
);
width = 896;
},
{
anchors = (
{
name = bottom;
pos = (390,0);
},
{
name = top;
pos = (390,688);
}
);
associatedMasterId = m013;
guides = (
{
angle = 90;
pos = (1053,688);
}
);
layerId = "5AF4CEF3-4443-4F08-9190-E70D19AD5380";
name = "4 Apr 26 at 12:54";
shapes = (
{
closed = 1;
nodes = (
(367,0,l),
(483,688,l),
(408,688,l),
(317,128,l),
(313,128,l),
(229,688,l),
(8,688,l),
(137,0,l)
);
},
{
closed = 1;
nodes = (
(768,0,l),
(884,688,l),
(809,688,l),
(718,128,l),
(714,128,l),
(630,688,l),
(409,688,l),
(538,0,l)
);
}
);
width = 892;
},
{
anchors = (
{
name = bottom;
pos = (104,0);
},
{
name = top;
pos = (104,688);
}
);
associatedMasterId = m014;
layerId = "D0EAF9F0-076A-495C-8A15-07AEB2D563AE";
name = "4 Apr 26 at 12:54";
shapes = (
{
closed = 1;
nodes = (
(260,0,l),
(453,688,l),
(443,688,l),
(271,76,l),
(265,76,l),
(95,688,l),
(10,688,l),
(208,0,l)
);
},
{
closed = 1;
nodes = (
(693,0,l),
(886,688,l),
(876,688,l),
(704,76,l),
(698,76,l),
(528,688,l),
(443,688,l),
(641,0,l)
);
}
);
width = 896;
},
{
anchors = (
{
name = bottom;
pos = (222,0);
},
{
name = top;
pos = (222,688);
}
);
associatedMasterId = m015;
layerId = "3B3A9DA0-FB4A-4B96-BE3C-7845BE6E7E93";
name = "4 Apr 26 at 12:54";
shapes = (
{
closed = 1;
nodes = (
(354,0,l),
(483,688,l),
(262,688,l),
(178,128,l),
(174,128,l),
(83,688,l),
(8,688,l),
(124,0,l)
);
},
{
closed = 1;
nodes = (
(755,0,l),
(884,688,l),
(663,688,l),
(579,128,l),
(575,128,l),
(484,688,l),
(409,688,l),
(525,0,l)
);
}
);
width = 892;
},
{
anchors = (
{
name = bottom;
pos = (315,0);
},
{
name = top;
pos = (315,688);
}
);
associatedMasterId = m016;
layerId = "B9668FBA-024C-476C-BE07-B9997067DD5A";
name = "4 Apr 26 at 12:54";
shapes = (
{
closed = 1;
nodes = (
(310,0,l),
(488,688,l),
(410,688,l),
(257,88,l),
(251,88,l),
(97,688,l),
(11,688,l),
(199,0,l)
);
},
{
closed = 1;
nodes = (
(699,0,l),
(887,688,l),
(801,688,l),
(647,88,l),
(641,88,l),
(488,688,l),
(410,688,l),
(588,0,l)
);
}
);
width = 898;
},
{
anchors = (
{
name = bottom;
pos = (222,0);
},
{
name = top;
pos = (222,688);
}
);
associatedMasterId = m015;
layerId = "A8DB6EF8-25D3-4D05-8DAE-91048708E7D0";
name = "6 Apr 26 at 18:13";
shapes = (
{
closed = 1;
nodes = (
(367,0,l),
(444,480,l),
(521,0,l),
(768,0,l),
(884,688,l),
(658,688,l),
(575,128,l),
(571,128,l),
(482,688,l),
(277,688,l),
(188,128,l),
(184,128,l),
(90,688,l),
(8,688,l),
(125,0,l)
);
}
);
width = 892;
}
);
metricLeft = "=H*.10";
metricRight = "=|";
unicode = 87;
},
{
glyphname = X;
kernLeft = X;
kernRight = X;
layers = (
{
anchors = (
{
name = bottom;
pos = (337.543,0);
},
{
name = top;
pos = (337.543,688);
}
);
layerId = m009;
shapes = (
{
closed = 1;
nodes = (
(127.478,0,l),
(331.913,276.043,l),
(339.913,276.043,l),
(543.891,0,l),
(645.413,0,l),
(389.978,347.543,l),
(642.413,688,l),
(543.522,688,l),
(342.63,417.674,l),
(335.087,417.674,l),
(134.652,688,l),
(33.13,688,l),
(285.109,345.457,l),
(29.13,0,l)
);
}
);
width = 674.54348;
},
{
anchors = (
{
name = bottom;
pos = (337.543,0);
},
{
name = top;
pos = (337.543,688);
}
);
layerId = m010;
shapes = (
{
closed = 1;
nodes = (
(127.478,0,l),
(331.913,276.043,l),
(339.913,276.043,l),
(543.891,0,l),
(645.413,0,l),
(389.978,347.543,l),
(642.413,688,l),
(543.522,688,l),
(342.63,417.674,l),
(335.087,417.674,l),
(134.652,688,l),
(33.13,688,l),
(285.109,345.457,l),
(29.13,0,l)
);
}
);
width = 674.54348;
},
{
anchors = (
{
name = bottom;
pos = (337.543,0);
},
{
name = top;
pos = (337.543,688);
}
);
layerId = m011;
shapes = (
{
closed = 1;
nodes = (
(127.478,0,l),
(331.913,276.043,l),
(339.913,276.043,l),
(543.891,0,l),
(645.413,0,l),
(389.978,347.543,l),
(642.413,688,l),
(543.522,688,l),
(342.63,417.674,l),
(335.087,417.674,l),
(134.652,688,l),
(33.13,688,l),
(285.109,345.457,l),
(29.13,0,l)
);
}
);
width = 674.54348;
},
{
anchors = (
{
name = bottom;
pos = (337.543,0);
},
{
name = top;
pos = (337.543,688);
}
);
layerId = m012;
shapes = (
{
closed = 1;
nodes = (
(127.478,0,l),
(331.913,276.043,l),
(339.913,276.043,l),
(543.891,0,l),
(645.413,0,l),
(389.978,347.543,l),
(642.413,688,l),
(543.522,688,l),
(342.63,417.674,l),
(335.087,417.674,l),
(134.652,688,l),
(33.13,688,l),
(285.109,345.457,l),
(29.13,0,l)
);
}
);
width = 674.54348;
},
{
anchors = (
{
name = bottom;
pos = (337.543,0);
},
{
name = top;
pos = (337.543,688);
}
);
layerId = m013;
shapes = (
{
closed = 1;
nodes = (
(127.478,0,l),
(331.913,276.043,l),
(339.913,276.043,l),
(543.891,0,l),
(645.413,0,l),
(389.978,347.543,l),
(642.413,688,l),
(543.522,688,l),
(342.63,417.674,l),
(335.087,417.674,l),
(134.652,688,l),
(33.13,688,l),
(285.109,345.457,l),
(29.13,0,l)
);
}
);
width = 674.54348;
},
{
anchors = (
{
name = bottom;
pos = (337.543,0);
},
{
name = top;
pos = (337.543,688);
}
);
layerId = m014;
shapes = (
{
closed = 1;
nodes = (
(127.478,0,l),
(331.913,276.043,l),
(339.913,276.043,l),
(543.891,0,l),
(645.413,0,l),
(389.978,347.543,l),
(642.413,688,l),
(543.522,688,l),
(342.63,417.674,l),
(335.087,417.674,l),
(134.652,688,l),
(33.13,688,l),
(285.109,345.457,l),
(29.13,0,l)
);
}
);
width = 674.54348;
},
{
anchors = (
{
name = bottom;
pos = (337.543,0);
},
{
name = top;
pos = (337.543,688);
}
);
layerId = m015;
shapes = (
{
closed = 1;
nodes = (
(127.478,0,l),
(331.913,276.043,l),
(339.913,276.043,l),
(543.891,0,l),
(645.413,0,l),
(389.978,347.543,l),
(642.413,688,l),
(543.522,688,l),
(342.63,417.674,l),
(335.087,417.674,l),
(134.652,688,l),
(33.13,688,l),
(285.109,345.457,l),
(29.13,0,l)
);
}
);
width = 674.54348;
},
{
anchors = (
{
name = bottom;
pos = (337.543,0);
},
{
name = top;
pos = (337.543,688);
}
);
layerId = m016;
shapes = (
{
closed = 1;
nodes = (
(127.478,0,l),
(331.913,276.043,l),
(339.913,276.043,l),
(543.891,0,l),
(645.413,0,l),
(389.978,347.543,l),
(642.413,688,l),
(543.522,688,l),
(342.63,417.674,l),
(335.087,417.674,l),
(134.652,688,l),
(33.13,688,l),
(285.109,345.457,l),
(29.13,0,l)
);
}
);
width = 674.54348;
}
);
unicode = 88;
},
{
glyphname = Y;
kernLeft = Y;
kernRight = Y;
layers = (
{
anchors = (
{
name = bottom;
pos = (304.891,0);
},
{
name = top;
pos = (304.891,688);
},
{
name = topleft;
pos = (11.848,688);
}
);
layerId = m009;
shapes = (
{
closed = 1;
nodes = (
(346.891,0,l),
(346.891,262.522,l),
(596.935,688,l),
(507.022,688,l),
(309.522,348.891,l),
(302.522,348.891,l),
(104.391,688,l),
(11.848,688,l),
(260.891,262.522,l),
(260.891,0,l)
);
}
);
width = 609.32609;
},
{
anchors = (
{
name = bottom;
pos = (304.891,0);
},
{
name = top;
pos = (304.891,688);
},
{
name = topleft;
pos = (11.848,688);
}
);
layerId = m010;
shapes = (
{
closed = 1;
nodes = (
(346.891,0,l),
(346.891,262.522,l),
(596.935,688,l),
(507.022,688,l),
(309.522,348.891,l),
(302.522,348.891,l),
(104.391,688,l),
(11.848,688,l),
(260.891,262.522,l),
(260.891,0,l)
);
}
);
width = 609.32609;
},
{
anchors = (
{
name = bottom;
pos = (304.891,0);
},
{
name = top;
pos = (304.891,688);
},
{
name = topleft;
pos = (11.848,688);
}
);
layerId = m011;
shapes = (
{
closed = 1;
nodes = (
(346.891,0,l),
(346.891,262.522,l),
(596.935,688,l),
(507.022,688,l),
(309.522,348.891,l),
(302.522,348.891,l),
(104.391,688,l),
(11.848,688,l),
(260.891,262.522,l),
(260.891,0,l)
);
}
);
width = 609.32609;
},
{
anchors = (
{
name = bottom;
pos = (304.891,0);
},
{
name = top;
pos = (304.891,688);
},
{
name = topleft;
pos = (11.848,688);
}
);
layerId = m012;
shapes = (
{
closed = 1;
nodes = (
(346.891,0,l),
(346.891,262.522,l),
(596.935,688,l),
(507.022,688,l),
(309.522,348.891,l),
(302.522,348.891,l),
(104.391,688,l),
(11.848,688,l),
(260.891,262.522,l),
(260.891,0,l)
);
}
);
width = 609.32609;
},
{
anchors = (
{
name = bottom;
pos = (304.891,0);
},
{
name = top;
pos = (304.891,688);
},
{
name = topleft;
pos = (11.848,688);
}
);
layerId = m013;
shapes = (
{
closed = 1;
nodes = (
(346.891,0,l),
(346.891,262.522,l),
(596.935,688,l),
(507.022,688,l),
(309.522,348.891,l),
(302.522,348.891,l),
(104.391,688,l),
(11.848,688,l),
(260.891,262.522,l),
(260.891,0,l)
);
}
);
width = 609.32609;
},
{
anchors = (
{
name = bottom;
pos = (304.891,0);
},
{
name = top;
pos = (304.891,688);
},
{
name = topleft;
pos = (11.848,688);
}
);
layerId = m014;
shapes = (
{
closed = 1;
nodes = (
(346.891,0,l),
(346.891,262.522,l),
(596.935,688,l),
(507.022,688,l),
(309.522,348.891,l),
(302.522,348.891,l),
(104.391,688,l),
(11.848,688,l),
(260.891,262.522,l),
(260.891,0,l)
);
}
);
width = 609.32609;
},
{
anchors = (
{
name = bottom;
pos = (304.891,0);
},
{
name = top;
pos = (304.891,688);
},
{
name = topleft;
pos = (11.848,688);
}
);
layerId = m015;
shapes = (
{
closed = 1;
nodes = (
(346.891,0,l),
(346.891,262.522,l),
(596.935,688,l),
(507.022,688,l),
(309.522,348.891,l),
(302.522,348.891,l),
(104.391,688,l),
(11.848,688,l),
(260.891,262.522,l),
(260.891,0,l)
);
}
);
width = 609.32609;
},
{
anchors = (
{
name = bottom;
pos = (304.891,0);
},
{
name = top;
pos = (304.891,688);
},
{
name = topleft;
pos = (11.848,688);
}
);
layerId = m016;
shapes = (
{
closed = 1;
nodes = (
(346.891,0,l),
(346.891,262.522,l),
(596.935,688,l),
(507.022,688,l),
(309.522,348.891,l),
(302.522,348.891,l),
(104.391,688,l),
(11.848,688,l),
(260.891,262.522,l),
(260.891,0,l)
);
}
);
width = 609.32609;
}
);
unicode = 89;
},
{
color = 4;
glyphname = Z;
kernLeft = Z;
kernRight = Z;
layers = (
{
anchors = (
{
name = bottom;
pos = (292,0);
},
{
name = center;
pos = (292,344);
},
{
name = top;
pos = (292,688);
}
);
layerId = m009;
shapes = (
{
closed = 1;
nodes = (
(543,0,l),
(543,74,l),
(158,74,l),
(158,78,l),
(537,622,l),
(537,688,l),
(61,688,l),
(61,614,l),
(429,614,l),
(429,610,l),
(50,66,l),
(50,0,l)
);
}
);
width = 593;
},
{
anchors = (
{
name = bottom;
pos = (154,0);
},
{
name = center;
pos = (154,344);
},
{
name = top;
pos = (154,688);
}
);
layerId = m010;
shapes = (
{
closed = 1;
nodes = (
(282,0,l),
(282,74,l),
(114,74,l),
(114,78,l),
(281,622,l),
(281,688,l),
(29,688,l),
(29,614,l),
(192,614,l),
(192,610,l),
(25,66,l),
(25,0,l)
);
}
);
width = 307;
},
{
anchors = (
{
name = bottom;
pos = (326,0);
},
{
name = center;
pos = (326,344);
},
{
name = top;
pos = (326,688);
}
);
layerId = m011;
shapes = (
{
closed = 1;
nodes = (
(651,0,l),
(651,74,l),
(169,74,l),
(169,78,l),
(643,622,l),
(643,688,l),
(64,688,l),
(64,614,l),
(524,614,l),
(524,610,l),
(50,66,l),
(50,0,l)
);
}
);
width = 701;
},
{
anchors = (
{
name = bottom;
pos = (328,0);
},
{
name = center;
pos = (328,344);
},
{
name = top;
pos = (328,688);
}
);
layerId = m012;
shapes = (
{
closed = 1;
nodes = (
(471,0,l),
(471,10,l),
(144,10,l),
(144,14,l),
(466,679,l),
(466,688,l),
(59,688,l),
(59,678,l),
(372,678,l),
(372,674,l),
(50,9,l),
(50,0,l)
);
}
);
width = 521;
},
{
anchors = (
{
name = bottom;
pos = (256,0);
},
{
name = center;
pos = (256,344);
},
{
name = top;
pos = (256,688);
}
);
layerId = m014;
shapes = (
{
closed = 1;
nodes = (
(471,0,l),
(471,74,l),
(88,74,l),
(88,78,l),
(466,649,l),
(466,688,l),
(59,688,l),
(59,614,l),
(428,614,l),
(428,610,l),
(50,39,l),
(50,0,l)
);
}
);
width = 521;
},
{
anchors = (
{
name = bottom;
pos = (307,0);
},
{
name = center;
pos = (307,344);
},
{
name = top;
pos = (307,688);
}
);
layerId = m016;
shapes = (
{
closed = 1;
nodes = (
(558,0,l),
(558,74,l),
(163,74,l),
(163,78,l),
(552,622,l),
(552,688,l),
(66,688,l),
(66,614,l),
(444,614,l),
(444,610,l),
(55,66,l),
(55,0,l)
);
}
);
width = 613;
},
{
anchors = (
{
name = bottom;
pos = (232,0);
},
{
name = center;
pos = (232,344);
},
{
name = top;
pos = (232,688);
}
);
layerId = m013;
name = "XOPQ-max";
shapes = (
{
closed = 1;
nodes = (
(674,0,l),
(674,180,l),
(209,180,l),
(209,184,l),
(669,529,l),
(669,688,l),
(52,688,l),
(52,508,l),
(499,508,l),
(499,504,l),
(39,159,l),
(39,0,l)
);
}
);
width = 713;
},
{
anchors = (
{
name = bottom;
pos = (321,0);
},
{
name = center;
pos = (321,344);
},
{
name = top;
pos = (321,688);
}
);
layerId = m015;
name = "YOPQ-max";
shapes = (
{
closed = 1;
nodes = (
(674,0,l),
(674,74,l),
(318,74,l),
(318,78,l),
(668,622,l),
(668,688,l),
(51,688,l),
(51,614,l),
(389,614,l),
(389,610,l),
(39,66,l),
(39,0,l)
);
}
);
width = 713;
},
{
anchors = (
{
name = bottom;
pos = (292,0);
},
{
name = center;
pos = (292,344);
},
{
name = top;
pos = (292,688);
}
);
associatedMasterId = m012;
layerId = "898BC080-8807-4C7F-9E00-2B285DBB9DD7";
name = "4 Apr 26 at 14:19";
shapes = (
{
closed = 1;
nodes = (
(543,0,l),
(543,74,l),
(68,74,l),
(68,78,l),
(537,615,l),
(537,688,l),
(61,688,l),
(61,614,l),
(519,614,l),
(519,610,l),
(50,73,l),
(50,0,l)
);
}
);
width = 593;
},
{
anchors = (
{
name = bottom;
pos = (302,0);
},
{
name = center;
pos = (302,344);
},
{
name = top;
pos = (302,688);
}
);
associatedMasterId = m013;
layerId = "9E0FE39F-D94C-4402-9766-267731F35AD1";
name = "4 Apr 26 at 14:19";
shapes = (
{
closed = 1;
nodes = (
(642,0,l),
(642,74,l),
(310,74,l),
(310,78,l),
(636,622,l),
(636,688,l),
(50,688,l),
(50,614,l),
(365,614,l),
(365,610,l),
(39,66,l),
(39,0,l)
);
}
);
width = 681;
},
{
anchors = (
{
name = bottom;
pos = (292,0);
},
{
name = center;
pos = (292,344);
},
{
name = top;
pos = (292,688);
}
);
associatedMasterId = m014;
layerId = "5357568F-31EF-42C1-8551-E4C2B178EEE9";
name = "4 Apr 26 at 14:19";
shapes = (
{
closed = 1;
nodes = (
(543,0,l),
(543,10,l),
(148,10,l),
(148,14,l),
(537,679,l),
(537,688,l),
(61,688,l),
(61,678,l),
(439,678,l),
(439,674,l),
(50,9,l),
(50,0,l)
);
}
);
width = 593;
},
{
anchors = (
{
name = bottom;
pos = (391,0);
},
{
name = center;
pos = (391,344);
},
{
name = top;
pos = (391,688);
}
);
associatedMasterId = m015;
layerId = "177CADF2-D7D6-443D-B800-68950396AB0F";
name = "4 Apr 26 at 14:19";
shapes = (
{
closed = 1;
nodes = (
(642,0,l),
(642,200,l),
(213,200,l),
(213,204,l),
(637,510,l),
(637,688,l),
(51,688,l),
(51,489,l),
(463,489,l),
(463,485,l),
(39,179,l),
(39,0,l)
);
}
);
width = 681;
}
);
metricLeft = "=H*.5";
metricRight = "=|";
unicode = 90;
},
{
export = 0;
glyphname = AE;
kernLeft = A;
kernRight = E;
layers = (
{
anchors = (
{
name = bottom;
pos = (475.065,0);
},
{
name = top;
pos = (475.065,688);
}
);
layerId = m009;
shapes = (
{
closed = 1;
nodes = (
(79.848,0,l),
(171.109,188.304,l),
(480.239,188.304,l),
(530.304,0,l),
(898.152,0,l),
(898.152,74.217,l),
(601.239,74.217,l),
(536.413,310.348,l),
(851.152,310.348,l),
(851.152,384.565,l),
(518.261,384.565,l),
(455.435,613.783,l),
(898.152,613.783,l),
(898.152,688,l),
(327.913,688,l),
(-7.065,0,l)
);
},
{
closed = 1;
nodes = (
(368.348,599.5,l),
(373.348,599.5,l),
(462.174,262.522,l),
(205.413,262.522,l)
);
}
);
width = 954.6087;
},
{
anchors = (
{
name = bottom;
pos = (475.065,0);
},
{
name = top;
pos = (475.065,688);
}
);
layerId = m010;
shapes = (
{
closed = 1;
nodes = (
(79.848,0,l),
(171.109,188.304,l),
(480.239,188.304,l),
(530.304,0,l),
(898.152,0,l),
(898.152,74.217,l),
(601.239,74.217,l),
(536.413,310.348,l),
(851.152,310.348,l),
(851.152,384.565,l),
(518.261,384.565,l),
(455.435,613.783,l),
(898.152,613.783,l),
(898.152,688,l),
(327.913,688,l),
(-7.065,0,l)
);
},
{
closed = 1;
nodes = (
(368.348,599.5,l),
(373.348,599.5,l),
(462.174,262.522,l),
(205.413,262.522,l)
);
}
);
width = 954.6087;
},
{
anchors = (
{
name = bottom;
pos = (475.065,0);
},
{
name = top;
pos = (475.065,688);
}
);
layerId = m011;
shapes = (
{
closed = 1;
nodes = (
(79.848,0,l),
(171.109,188.304,l),
(480.239,188.304,l),
(530.304,0,l),
(898.152,0,l),
(898.152,74.217,l),
(601.239,74.217,l),
(536.413,310.348,l),
(851.152,310.348,l),
(851.152,384.565,l),
(518.261,384.565,l),
(455.435,613.783,l),
(898.152,613.783,l),
(898.152,688,l),
(327.913,688,l),
(-7.065,0,l)
);
},
{
closed = 1;
nodes = (
(368.348,599.5,l),
(373.348,599.5,l),
(462.174,262.522,l),
(205.413,262.522,l)
);
}
);
width = 954.6087;
},
{
anchors = (
{
name = bottom;
pos = (475.065,0);
},
{
name = top;
pos = (475.065,688);
}
);
layerId = m012;
shapes = (
{
closed = 1;
nodes = (
(79.848,0,l),
(171.109,188.304,l),
(480.239,188.304,l),
(530.304,0,l),
(898.152,0,l),
(898.152,74.217,l),
(601.239,74.217,l),
(536.413,310.348,l),
(851.152,310.348,l),
(851.152,384.565,l),
(518.261,384.565,l),
(455.435,613.783,l),
(898.152,613.783,l),
(898.152,688,l),
(327.913,688,l),
(-7.065,0,l)
);
},
{
closed = 1;
nodes = (
(368.348,599.5,l),
(373.348,599.5,l),
(462.174,262.522,l),
(205.413,262.522,l)
);
}
);
width = 954.6087;
},
{
anchors = (
{
name = bottom;
pos = (475.065,0);
},
{
name = top;
pos = (475.065,688);
}
);
layerId = m013;
shapes = (
{
closed = 1;
nodes = (
(79.848,0,l),
(171.109,188.304,l),
(480.239,188.304,l),
(530.304,0,l),
(898.152,0,l),
(898.152,74.217,l),
(601.239,74.217,l),
(536.413,310.348,l),
(851.152,310.348,l),
(851.152,384.565,l),
(518.261,384.565,l),
(455.435,613.783,l),
(898.152,613.783,l),
(898.152,688,l),
(327.913,688,l),
(-7.065,0,l)
);
},
{
closed = 1;
nodes = (
(368.348,599.5,l),
(373.348,599.5,l),
(462.174,262.522,l),
(205.413,262.522,l)
);
}
);
width = 954.6087;
},
{
anchors = (
{
name = bottom;
pos = (475.065,0);
},
{
name = top;
pos = (475.065,688);
}
);
layerId = m014;
shapes = (
{
closed = 1;
nodes = (
(79.848,0,l),
(171.109,188.304,l),
(480.239,188.304,l),
(530.304,0,l),
(898.152,0,l),
(898.152,74.217,l),
(601.239,74.217,l),
(536.413,310.348,l),
(851.152,310.348,l),
(851.152,384.565,l),
(518.261,384.565,l),
(455.435,613.783,l),
(898.152,613.783,l),
(898.152,688,l),
(327.913,688,l),
(-7.065,0,l)
);
},
{
closed = 1;
nodes = (
(368.348,599.5,l),
(373.348,599.5,l),
(462.174,262.522,l),
(205.413,262.522,l)
);
}
);
width = 954.6087;
},
{
anchors = (
{
name = bottom;
pos = (475.065,0);
},
{
name = top;
pos = (475.065,688);
}
);
layerId = m015;
shapes = (
{
closed = 1;
nodes = (
(79.848,0,l),
(171.109,188.304,l),
(480.239,188.304,l),
(530.304,0,l),
(898.152,0,l),
(898.152,74.217,l),
(601.239,74.217,l),
(536.413,310.348,l),
(851.152,310.348,l),
(851.152,384.565,l),
(518.261,384.565,l),
(455.435,613.783,l),
(898.152,613.783,l),
(898.152,688,l),
(327.913,688,l),
(-7.065,0,l)
);
},
{
closed = 1;
nodes = (
(368.348,599.5,l),
(373.348,599.5,l),
(462.174,262.522,l),
(205.413,262.522,l)
);
}
);
width = 954.6087;
},
{
anchors = (
{
name = bottom;
pos = (475.065,0);
},
{
name = top;
pos = (475.065,688);
}
);
layerId = m016;
shapes = (
{
closed = 1;
nodes = (
(79.848,0,l),
(171.109,188.304,l),
(480.239,188.304,l),
(530.304,0,l),
(898.152,0,l),
(898.152,74.217,l),
(601.239,74.217,l),
(536.413,310.348,l),
(851.152,310.348,l),
(851.152,384.565,l),
(518.261,384.565,l),
(455.435,613.783,l),
(898.152,613.783,l),
(898.152,688,l),
(327.913,688,l),
(-7.065,0,l)
);
},
{
closed = 1;
nodes = (
(368.348,599.5,l),
(373.348,599.5,l),
(462.174,262.522,l),
(205.413,262.522,l)
);
}
);
width = 954.6087;
}
);
unicode = 198;
},
{
export = 0;
glyphname = Eth;
kernLeft = H;
kernRight = O;
layers = (
{
layerId = m009;
shapes = (
{
closed = 1;
nodes = (
(318.37,0,ls),
(598.5,0,o),
(611.696,52.13,o),
(611.696,344,cs),
(611.696,635.87,o),
(598.5,688,o),
(318.37,688,cs),
(99.783,688,l),
(99.783,383.304,l),
(31.413,383.304,l),
(31.413,313.609,l),
(99.783,313.609,l),
(99.783,0,l)
);
},
{
closed = 1;
nodes = (
(185.783,313.609,l),
(295.761,313.609,l),
(295.761,383.304,l),
(185.783,383.304,l),
(185.783,613.783,l),
(304.348,613.783,ls),
(512.043,613.783,o),
(525.696,609.957,o),
(525.696,344,cs),
(525.696,77.5,o),
(514.957,74.217,o),
(304.348,74.217,cs),
(185.783,74.217,l)
);
}
);
width = 688.65217;
},
{
layerId = m010;
shapes = (
{
closed = 1;
nodes = (
(318.37,0,ls),
(598.5,0,o),
(611.696,52.13,o),
(611.696,344,cs),
(611.696,635.87,o),
(598.5,688,o),
(318.37,688,cs),
(99.783,688,l),
(99.783,383.304,l),
(31.413,383.304,l),
(31.413,313.609,l),
(99.783,313.609,l),
(99.783,0,l)
);
},
{
closed = 1;
nodes = (
(185.783,313.609,l),
(295.761,313.609,l),
(295.761,383.304,l),
(185.783,383.304,l),
(185.783,613.783,l),
(304.348,613.783,ls),
(512.043,613.783,o),
(525.696,609.957,o),
(525.696,344,cs),
(525.696,77.5,o),
(514.957,74.217,o),
(304.348,74.217,cs),
(185.783,74.217,l)
);
}
);
width = 688.65217;
},
{
layerId = m011;
shapes = (
{
closed = 1;
nodes = (
(318.37,0,ls),
(598.5,0,o),
(611.696,52.13,o),
(611.696,344,cs),
(611.696,635.87,o),
(598.5,688,o),
(318.37,688,cs),
(99.783,688,l),
(99.783,383.304,l),
(31.413,383.304,l),
(31.413,313.609,l),
(99.783,313.609,l),
(99.783,0,l)
);
},
{
closed = 1;
nodes = (
(185.783,313.609,l),
(295.761,313.609,l),
(295.761,383.304,l),
(185.783,383.304,l),
(185.783,613.783,l),
(304.348,613.783,ls),
(512.043,613.783,o),
(525.696,609.957,o),
(525.696,344,cs),
(525.696,77.5,o),
(514.957,74.217,o),
(304.348,74.217,cs),
(185.783,74.217,l)
);
}
);
width = 688.65217;
},
{
layerId = m012;
shapes = (
{
closed = 1;
nodes = (
(318.37,0,ls),
(598.5,0,o),
(611.696,52.13,o),
(611.696,344,cs),
(611.696,635.87,o),
(598.5,688,o),
(318.37,688,cs),
(99.783,688,l),
(99.783,383.304,l),
(31.413,383.304,l),
(31.413,313.609,l),
(99.783,313.609,l),
(99.783,0,l)
);
},
{
closed = 1;
nodes = (
(185.783,313.609,l),
(295.761,313.609,l),
(295.761,383.304,l),
(185.783,383.304,l),
(185.783,613.783,l),
(304.348,613.783,ls),
(512.043,613.783,o),
(525.696,609.957,o),
(525.696,344,cs),
(525.696,77.5,o),
(514.957,74.217,o),
(304.348,74.217,cs),
(185.783,74.217,l)
);
}
);
width = 688.65217;
},
{
layerId = m013;
shapes = (
{
closed = 1;
nodes = (
(318.37,0,ls),
(598.5,0,o),
(611.696,52.13,o),
(611.696,344,cs),
(611.696,635.87,o),
(598.5,688,o),
(318.37,688,cs),
(99.783,688,l),
(99.783,383.304,l),
(31.413,383.304,l),
(31.413,313.609,l),
(99.783,313.609,l),
(99.783,0,l)
);
},
{
closed = 1;
nodes = (
(185.783,313.609,l),
(295.761,313.609,l),
(295.761,383.304,l),
(185.783,383.304,l),
(185.783,613.783,l),
(304.348,613.783,ls),
(512.043,613.783,o),
(525.696,609.957,o),
(525.696,344,cs),
(525.696,77.5,o),
(514.957,74.217,o),
(304.348,74.217,cs),
(185.783,74.217,l)
);
}
);
width = 688.65217;
},
{
layerId = m014;
shapes = (
{
closed = 1;
nodes = (
(318.37,0,ls),
(598.5,0,o),
(611.696,52.13,o),
(611.696,344,cs),
(611.696,635.87,o),
(598.5,688,o),
(318.37,688,cs),
(99.783,688,l),
(99.783,383.304,l),
(31.413,383.304,l),
(31.413,313.609,l),
(99.783,313.609,l),
(99.783,0,l)
);
},
{
closed = 1;
nodes = (
(185.783,313.609,l),
(295.761,313.609,l),
(295.761,383.304,l),
(185.783,383.304,l),
(185.783,613.783,l),
(304.348,613.783,ls),
(512.043,613.783,o),
(525.696,609.957,o),
(525.696,344,cs),
(525.696,77.5,o),
(514.957,74.217,o),
(304.348,74.217,cs),
(185.783,74.217,l)
);
}
);
width = 688.65217;
},
{
layerId = m015;
shapes = (
{
closed = 1;
nodes = (
(318.37,0,ls),
(598.5,0,o),
(611.696,52.13,o),
(611.696,344,cs),
(611.696,635.87,o),
(598.5,688,o),
(318.37,688,cs),
(99.783,688,l),
(99.783,383.304,l),
(31.413,383.304,l),
(31.413,313.609,l),
(99.783,313.609,l),
(99.783,0,l)
);
},
{
closed = 1;
nodes = (
(185.783,313.609,l),
(295.761,313.609,l),
(295.761,383.304,l),
(185.783,383.304,l),
(185.783,613.783,l),
(304.348,613.783,ls),
(512.043,613.783,o),
(525.696,609.957,o),
(525.696,344,cs),
(525.696,77.5,o),
(514.957,74.217,o),
(304.348,74.217,cs),
(185.783,74.217,l)
);
}
);
width = 688.65217;
},
{
layerId = m016;
shapes = (
{
closed = 1;
nodes = (
(318.37,0,ls),
(598.5,0,o),
(611.696,52.13,o),
(611.696,344,cs),
(611.696,635.87,o),
(598.5,688,o),
(318.37,688,cs),
(99.783,688,l),
(99.783,383.304,l),
(31.413,383.304,l),
(31.413,313.609,l),
(99.783,313.609,l),
(99.783,0,l)
);
},
{
closed = 1;
nodes = (
(185.783,313.609,l),
(295.761,313.609,l),
(295.761,383.304,l),
(185.783,383.304,l),
(185.783,613.783,l),
(304.348,613.783,ls),
(512.043,613.783,o),
(525.696,609.957,o),
(525.696,344,cs),
(525.696,77.5,o),
(514.957,74.217,o),
(304.348,74.217,cs),
(185.783,74.217,l)
);
}
);
width = 688.65217;
}
);
unicode = 208;
},
{
export = 0;
glyphname = Schwa;
kernLeft = O;
kernRight = O;
layers = (
{
anchors = (
{
name = bottom;
pos = (348.652,0);
},
{
name = top;
pos = (348.652,688);
}
);
layerId = m009;
shapes = (
{
closed = 1;
nodes = (
(606.978,-8,o),
(620.348,48.935,o),
(620.348,344,cs),
(620.348,641.348,o),
(581.978,696,o),
(333.565,696,cs),
(276.478,696,o),
(201.391,689.087,o),
(154.304,678.717,c),
(154.304,607.217,l),
(197.13,615.957,o),
(262.326,621.783,o),
(311.609,621.783,cs),
(503.804,621.783,o),
(531.717,602.13,o),
(534.348,384.565,c),
(76.413,384.565,l),
(76.413,344,ls),
(76.413,48.935,o),
(89.239,-8,o),
(348.109,-8,cs)
);
},
{
closed = 1;
nodes = (
(181.152,66.217,o),
(163.957,71.13,o),
(162.413,310.348,c),
(534.348,310.348,l),
(532.804,71.13,o),
(515.065,66.217,o),
(348.109,66.217,cs)
);
}
);
width = 696.76087;
},
{
anchors = (
{
name = bottom;
pos = (348.652,0);
},
{
name = top;
pos = (348.652,688);
}
);
layerId = m010;
shapes = (
{
closed = 1;
nodes = (
(606.978,-8,o),
(620.348,48.935,o),
(620.348,344,cs),
(620.348,641.348,o),
(581.978,696,o),
(333.565,696,cs),
(276.478,696,o),
(201.391,689.087,o),
(154.304,678.717,c),
(154.304,607.217,l),
(197.13,615.957,o),
(262.326,621.783,o),
(311.609,621.783,cs),
(503.804,621.783,o),
(531.717,602.13,o),
(534.348,384.565,c),
(76.413,384.565,l),
(76.413,344,ls),
(76.413,48.935,o),
(89.239,-8,o),
(348.109,-8,cs)
);
},
{
closed = 1;
nodes = (
(181.152,66.217,o),
(163.957,71.13,o),
(162.413,310.348,c),
(534.348,310.348,l),
(532.804,71.13,o),
(515.065,66.217,o),
(348.109,66.217,cs)
);
}
);
width = 696.76087;
},
{
anchors = (
{
name = bottom;
pos = (348.652,0);
},
{
name = top;
pos = (348.652,688);
}
);
layerId = m011;
shapes = (
{
closed = 1;
nodes = (
(606.978,-8,o),
(620.348,48.935,o),
(620.348,344,cs),
(620.348,641.348,o),
(581.978,696,o),
(333.565,696,cs),
(276.478,696,o),
(201.391,689.087,o),
(154.304,678.717,c),
(154.304,607.217,l),
(197.13,615.957,o),
(262.326,621.783,o),
(311.609,621.783,cs),
(503.804,621.783,o),
(531.717,602.13,o),
(534.348,384.565,c),
(76.413,384.565,l),
(76.413,344,ls),
(76.413,48.935,o),
(89.239,-8,o),
(348.109,-8,cs)
);
},
{
closed = 1;
nodes = (
(181.152,66.217,o),
(163.957,71.13,o),
(162.413,310.348,c),
(534.348,310.348,l),
(532.804,71.13,o),
(515.065,66.217,o),
(348.109,66.217,cs)
);
}
);
width = 696.76087;
},
{
anchors = (
{
name = bottom;
pos = (348.652,0);
},
{
name = top;
pos = (348.652,688);
}
);
layerId = m012;
shapes = (
{
closed = 1;
nodes = (
(606.978,-8,o),
(620.348,48.935,o),
(620.348,344,cs),
(620.348,641.348,o),
(581.978,696,o),
(333.565,696,cs),
(276.478,696,o),
(201.391,689.087,o),
(154.304,678.717,c),
(154.304,607.217,l),
(197.13,615.957,o),
(262.326,621.783,o),
(311.609,621.783,cs),
(503.804,621.783,o),
(531.717,602.13,o),
(534.348,384.565,c),
(76.413,384.565,l),
(76.413,344,ls),
(76.413,48.935,o),
(89.239,-8,o),
(348.109,-8,cs)
);
},
{
closed = 1;
nodes = (
(181.152,66.217,o),
(163.957,71.13,o),
(162.413,310.348,c),
(534.348,310.348,l),
(532.804,71.13,o),
(515.065,66.217,o),
(348.109,66.217,cs)
);
}
);
width = 696.76087;
},
{
anchors = (
{
name = bottom;
pos = (348.652,0);
},
{
name = top;
pos = (348.652,688);
}
);
layerId = m013;
shapes = (
{
closed = 1;
nodes = (
(606.978,-8,o),
(620.348,48.935,o),
(620.348,344,cs),
(620.348,641.348,o),
(581.978,696,o),
(333.565,696,cs),
(276.478,696,o),
(201.391,689.087,o),
(154.304,678.717,c),
(154.304,607.217,l),
(197.13,615.957,o),
(262.326,621.783,o),
(311.609,621.783,cs),
(503.804,621.783,o),
(531.717,602.13,o),
(534.348,384.565,c),
(76.413,384.565,l),
(76.413,344,ls),
(76.413,48.935,o),
(89.239,-8,o),
(348.109,-8,cs)
);
},
{
closed = 1;
nodes = (
(181.152,66.217,o),
(163.957,71.13,o),
(162.413,310.348,c),
(534.348,310.348,l),
(532.804,71.13,o),
(515.065,66.217,o),
(348.109,66.217,cs)
);
}
);
width = 696.76087;
},
{
anchors = (
{
name = bottom;
pos = (348.652,0);
},
{
name = top;
pos = (348.652,688);
}
);
layerId = m014;
shapes = (
{
closed = 1;
nodes = (
(606.978,-8,o),
(620.348,48.935,o),
(620.348,344,cs),
(620.348,641.348,o),
(581.978,696,o),
(333.565,696,cs),
(276.478,696,o),
(201.391,689.087,o),
(154.304,678.717,c),
(154.304,607.217,l),
(197.13,615.957,o),
(262.326,621.783,o),
(311.609,621.783,cs),
(503.804,621.783,o),
(531.717,602.13,o),
(534.348,384.565,c),
(76.413,384.565,l),
(76.413,344,ls),
(76.413,48.935,o),
(89.239,-8,o),
(348.109,-8,cs)
);
},
{
closed = 1;
nodes = (
(181.152,66.217,o),
(163.957,71.13,o),
(162.413,310.348,c),
(534.348,310.348,l),
(532.804,71.13,o),
(515.065,66.217,o),
(348.109,66.217,cs)
);
}
);
width = 696.76087;
},
{
anchors = (
{
name = bottom;
pos = (348.652,0);
},
{
name = top;
pos = (348.652,688);
}
);
layerId = m015;
shapes = (
{
closed = 1;
nodes = (
(606.978,-8,o),
(620.348,48.935,o),
(620.348,344,cs),
(620.348,641.348,o),
(581.978,696,o),
(333.565,696,cs),
(276.478,696,o),
(201.391,689.087,o),
(154.304,678.717,c),
(154.304,607.217,l),
(197.13,615.957,o),
(262.326,621.783,o),
(311.609,621.783,cs),
(503.804,621.783,o),
(531.717,602.13,o),
(534.348,384.565,c),
(76.413,384.565,l),
(76.413,344,ls),
(76.413,48.935,o),
(89.239,-8,o),
(348.109,-8,cs)
);
},
{
closed = 1;
nodes = (
(181.152,66.217,o),
(163.957,71.13,o),
(162.413,310.348,c),
(534.348,310.348,l),
(532.804,71.13,o),
(515.065,66.217,o),
(348.109,66.217,cs)
);
}
);
width = 696.76087;
},
{
anchors = (
{
name = bottom;
pos = (348.652,0);
},
{
name = top;
pos = (348.652,688);
}
);
layerId = m016;
shapes = (
{
closed = 1;
nodes = (
(606.978,-8,o),
(620.348,48.935,o),
(620.348,344,cs),
(620.348,641.348,o),
(581.978,696,o),
(333.565,696,cs),
(276.478,696,o),
(201.391,689.087,o),
(154.304,678.717,c),
(154.304,607.217,l),
(197.13,615.957,o),
(262.326,621.783,o),
(311.609,621.783,cs),
(503.804,621.783,o),
(531.717,602.13,o),
(534.348,384.565,c),
(76.413,384.565,l),
(76.413,344,ls),
(76.413,48.935,o),
(89.239,-8,o),
(348.109,-8,cs)
);
},
{
closed = 1;
nodes = (
(181.152,66.217,o),
(163.957,71.13,o),
(162.413,310.348,c),
(534.348,310.348,l),
(532.804,71.13,o),
(515.065,66.217,o),
(348.109,66.217,cs)
);
}
);
width = 696.76087;
}
);
unicode = 399;
},
{
export = 0;
glyphname = Hbar;
kernLeft = H;
kernRight = H;
layers = (
{
layerId = m009;
shapes = (
{
closed = 1;
nodes = (
(185.783,0,l),
(185.783,277.848,l),
(545.696,277.848,l),
(545.696,0,l),
(631.696,0,l),
(631.696,688,l),
(545.696,688,l),
(545.696,551.739,l),
(185.783,551.739,l),
(185.783,688,l),
(99.783,688,l),
(99.783,0,l)
);
},
{
closed = 1;
nodes = (
(185.783,482.957,l),
(545.696,482.957,l),
(545.696,354.239,l),
(185.783,354.239,l)
);
}
);
width = 731.47826;
},
{
layerId = m010;
shapes = (
{
closed = 1;
nodes = (
(185.783,0,l),
(185.783,277.848,l),
(545.696,277.848,l),
(545.696,0,l),
(631.696,0,l),
(631.696,688,l),
(545.696,688,l),
(545.696,551.739,l),
(185.783,551.739,l),
(185.783,688,l),
(99.783,688,l),
(99.783,0,l)
);
},
{
closed = 1;
nodes = (
(185.783,482.957,l),
(545.696,482.957,l),
(545.696,354.239,l),
(185.783,354.239,l)
);
}
);
width = 731.47826;
},
{
layerId = m011;
shapes = (
{
closed = 1;
nodes = (
(185.783,0,l),
(185.783,277.848,l),
(545.696,277.848,l),
(545.696,0,l),
(631.696,0,l),
(631.696,688,l),
(545.696,688,l),
(545.696,551.739,l),
(185.783,551.739,l),
(185.783,688,l),
(99.783,688,l),
(99.783,0,l)
);
},
{
closed = 1;
nodes = (
(185.783,482.957,l),
(545.696,482.957,l),
(545.696,354.239,l),
(185.783,354.239,l)
);
}
);
width = 731.47826;
},
{
layerId = m012;
shapes = (
{
closed = 1;
nodes = (
(185.783,0,l),
(185.783,277.848,l),
(545.696,277.848,l),
(545.696,0,l),
(631.696,0,l),
(631.696,688,l),
(545.696,688,l),
(545.696,551.739,l),
(185.783,551.739,l),
(185.783,688,l),
(99.783,688,l),
(99.783,0,l)
);
},
{
closed = 1;
nodes = (
(185.783,482.957,l),
(545.696,482.957,l),
(545.696,354.239,l),
(185.783,354.239,l)
);
}
);
width = 731.47826;
},
{
layerId = m013;
shapes = (
{
closed = 1;
nodes = (
(185.783,0,l),
(185.783,277.848,l),
(545.696,277.848,l),
(545.696,0,l),
(631.696,0,l),
(631.696,688,l),
(545.696,688,l),
(545.696,551.739,l),
(185.783,551.739,l),
(185.783,688,l),
(99.783,688,l),
(99.783,0,l)
);
},
{
closed = 1;
nodes = (
(185.783,482.957,l),
(545.696,482.957,l),
(545.696,354.239,l),
(185.783,354.239,l)
);
}
);
width = 731.47826;
},
{
layerId = m014;
shapes = (
{
closed = 1;
nodes = (
(185.783,0,l),
(185.783,277.848,l),
(545.696,277.848,l),
(545.696,0,l),
(631.696,0,l),
(631.696,688,l),
(545.696,688,l),
(545.696,551.739,l),
(185.783,551.739,l),
(185.783,688,l),
(99.783,688,l),
(99.783,0,l)
);
},
{
closed = 1;
nodes = (
(185.783,482.957,l),
(545.696,482.957,l),
(545.696,354.239,l),
(185.783,354.239,l)
);
}
);
width = 731.47826;
},
{
layerId = m015;
shapes = (
{
closed = 1;
nodes = (
(185.783,0,l),
(185.783,277.848,l),
(545.696,277.848,l),
(545.696,0,l),
(631.696,0,l),
(631.696,688,l),
(545.696,688,l),
(545.696,551.739,l),
(185.783,551.739,l),
(185.783,688,l),
(99.783,688,l),
(99.783,0,l)
);
},
{
closed = 1;
nodes = (
(185.783,482.957,l),
(545.696,482.957,l),
(545.696,354.239,l),
(185.783,354.239,l)
);
}
);
width = 731.47826;
},
{
layerId = m016;
shapes = (
{
closed = 1;
nodes = (
(185.783,0,l),
(185.783,277.848,l),
(545.696,277.848,l),
(545.696,0,l),
(631.696,0,l),
(631.696,688,l),
(545.696,688,l),
(545.696,551.739,l),
(185.783,551.739,l),
(185.783,688,l),
(99.783,688,l),
(99.783,0,l)
);
},
{
closed = 1;
nodes = (
(185.783,482.957,l),
(545.696,482.957,l),
(545.696,354.239,l),
(185.783,354.239,l)
);
}
);
width = 731.47826;
}
);
unicode = 294;
},
{
export = 0;
glyphname = K;
kernLeft = H;
kernRight = X;
layers = (
{
anchors = (
{
name = bottom;
pos = (332,0);
},
{
name = top;
pos = (332,688);
}
);
layerId = m009;
shapes = (
{
closed = 1;
nodes = (
(166,312,l),
(305,312,l),
(537,0,l),
(639,0,l),
(375,354,l),
(636,688,l),
(541,688,l),
(305,387,l),
(166,387,l)
);
},
{
closed = 1;
nodes = (
(182,688,l),
(100,688,l),
(100,0,l),
(182,0,l)
);
}
);
width = 664;
},
{
anchors = (
{
name = bottom;
pos = (286,0);
},
{
name = top;
pos = (286,688);
}
);
layerId = m010;
shapes = (
{
closed = 1;
nodes = (
(136,0,l),
(136,312,l),
(259,312,l),
(493,0,l),
(593,0,l),
(329,354,l),
(590,688,l),
(495,688,l),
(259,387,l),
(136,387,l),
(136,688,l),
(50,688,l),
(50,0,l)
);
}
);
width = 606;
},
{
anchors = (
{
name = bottom;
pos = (335.717,0);
},
{
name = top;
pos = (335.717,688);
}
);
layerId = m011;
shapes = (
{
closed = 1;
nodes = (
(185.783,0,l),
(185.783,312.435,l),
(309.326,312.435,l),
(542.87,0,l),
(643.478,0,l),
(379,353.891,l),
(640.478,688,l),
(544.674,688,l),
(309.326,386.652,l),
(185.783,386.652,l),
(185.783,688,l),
(99.783,688,l),
(99.783,0,l)
);
}
);
width = 668;
},
{
anchors = (
{
name = bottom;
pos = (335.717,0);
},
{
name = top;
pos = (335.717,688);
}
);
layerId = m012;
shapes = (
{
closed = 1;
nodes = (
(185.783,0,l),
(185.783,312.435,l),
(309.326,312.435,l),
(542.87,0,l),
(643.478,0,l),
(379,353.891,l),
(640.478,688,l),
(544.674,688,l),
(309.326,386.652,l),
(185.783,386.652,l),
(185.783,688,l),
(99.783,688,l),
(99.783,0,l)
);
}
);
width = 668;
},
{
anchors = (
{
name = bottom;
pos = (314,0);
},
{
name = top;
pos = (314,688);
}
);
layerId = m013;
shapes = (
{
closed = 1;
nodes = (
(164,0,l),
(164,312,l),
(287,312,l),
(521,0,l),
(621,0,l),
(357,354,l),
(618,688,l),
(523,688,l),
(287,387,l),
(164,387,l),
(164,688,l),
(78,688,l),
(78,0,l)
);
}
);
width = 641;
},
{
anchors = (
{
name = bottom;
pos = (335.717,0);
},
{
name = top;
pos = (335.717,688);
}
);
layerId = m014;
shapes = (
{
closed = 1;
nodes = (
(185.783,0,l),
(185.783,312.435,l),
(309.326,312.435,l),
(542.87,0,l),
(643.478,0,l),
(379,353.891,l),
(640.478,688,l),
(544.674,688,l),
(309.326,386.652,l),
(185.783,386.652,l),
(185.783,688,l),
(99.783,688,l),
(99.783,0,l)
);
}
);
width = 668;
},
{
anchors = (
{
name = bottom;
pos = (314,0);
},
{
name = top;
pos = (314,688);
}
);
layerId = m015;
shapes = (
{
closed = 1;
nodes = (
(164,0,l),
(164,312,l),
(287,312,l),
(521,0,l),
(621,0,l),
(357,354,l),
(618,688,l),
(523,688,l),
(287,387,l),
(164,387,l),
(164,688,l),
(78,688,l),
(78,0,l)
);
}
);
width = 641;
},
{
anchors = (
{
name = bottom;
pos = (345,0);
},
{
name = top;
pos = (345,688);
}
);
layerId = m016;
shapes = (
{
closed = 1;
nodes = (
(195,0,l),
(195,312,l),
(318,312,l),
(552,0,l),
(652,0,l),
(388,354,l),
(649,688,l),
(554,688,l),
(318,387,l),
(195,387,l),
(195,688,l),
(109,688,l),
(109,0,l)
);
}
);
width = 679;
}
);
metricLeft = H;
metricRight = "=|*.25";
unicode = 75;
},
{
color = 3;
export = 0;
glyphname = Lslash;
kernLeft = H;
kernRight = L;
layers = (
{
layerId = m009;
shapes = (
{
closed = 1;
nodes = (
(375.413,391.761,l),
(375.413,458.913,l),
(35.674,333.13,l),
(35.674,265.978,l)
);
},
{
ref = L;
}
);
width = 537.63043;
},
{
layerId = m010;
shapes = (
{
closed = 1;
nodes = (
(375.413,391.761,l),
(375.413,458.913,l),
(35.674,333.13,l),
(35.674,265.978,l)
);
},
{
ref = L;
}
);
width = 537.63043;
},
{
layerId = m011;
shapes = (
{
closed = 1;
nodes = (
(375.413,391.761,l),
(375.413,458.913,l),
(35.674,333.13,l),
(35.674,265.978,l)
);
},
{
ref = L;
}
);
width = 537.63043;
},
{
layerId = m012;
shapes = (
{
closed = 1;
nodes = (
(375.413,391.761,l),
(375.413,458.913,l),
(35.674,333.13,l),
(35.674,265.978,l)
);
},
{
ref = L;
}
);
width = 537.63043;
},
{
layerId = m013;
shapes = (
{
closed = 1;
nodes = (
(375.413,391.761,l),
(375.413,458.913,l),
(35.674,333.13,l),
(35.674,265.978,l)
);
},
{
ref = L;
}
);
width = 537.63043;
},
{
layerId = m014;
shapes = (
{
closed = 1;
nodes = (
(375.413,391.761,l),
(375.413,458.913,l),
(35.674,333.13,l),
(35.674,265.978,l)
);
},
{
ref = L;
}
);
width = 537.63043;
},
{
layerId = m015;
shapes = (
{
closed = 1;
nodes = (
(375.413,391.761,l),
(375.413,458.913,l),
(35.674,333.13,l),
(35.674,265.978,l)
);
},
{
ref = L;
}
);
width = 537.63043;
},
{
layerId = m016;
shapes = (
{
closed = 1;
nodes = (
(375.413,391.761,l),
(375.413,458.913,l),
(35.674,333.13,l),
(35.674,265.978,l)
);
},
{
ref = L;
}
);
width = 537.63043;
}
);
metricRight = L;
unicode = 321;
},
{
export = 0;
glyphname = Nhookleft;
kernLeft = j;
kernRight = H;
layers = (
{
anchors = (
{
name = bottom;
pos = (365.739,0);
},
{
name = top;
pos = (365.739,688);
}
);
layerId = m009;
shapes = (
{
closed = 1;
nodes = (
(138.065,-200,o),
(182.609,-190.109,o),
(182.609,-62.783,cs),
(182.609,537.217,l),
(186.609,537.217,l),
(548.87,0,l),
(631.696,0,l),
(631.696,688,l),
(548.87,688,l),
(548.87,160.565,l),
(544.87,160.565,l),
(188.043,688,l),
(99.783,688,l),
(99.783,-80.935,ls),
(99.783,-123.761,o),
(92.413,-136.304,o),
(4.304,-136.304,c),
(4.304,-200,l)
);
}
);
width = 731.47826;
},
{
anchors = (
{
name = bottom;
pos = (365.739,0);
},
{
name = top;
pos = (365.739,688);
}
);
layerId = m010;
shapes = (
{
closed = 1;
nodes = (
(138.065,-200,o),
(182.609,-190.109,o),
(182.609,-62.783,cs),
(182.609,537.217,l),
(186.609,537.217,l),
(548.87,0,l),
(631.696,0,l),
(631.696,688,l),
(548.87,688,l),
(548.87,160.565,l),
(544.87,160.565,l),
(188.043,688,l),
(99.783,688,l),
(99.783,-80.935,ls),
(99.783,-123.761,o),
(92.413,-136.304,o),
(4.304,-136.304,c),
(4.304,-200,l)
);
}
);
width = 731.47826;
},
{
anchors = (
{
name = bottom;
pos = (365.739,0);
},
{
name = top;
pos = (365.739,688);
}
);
layerId = m011;
shapes = (
{
closed = 1;
nodes = (
(138.065,-200,o),
(182.609,-190.109,o),
(182.609,-62.783,cs),
(182.609,537.217,l),
(186.609,537.217,l),
(548.87,0,l),
(631.696,0,l),
(631.696,688,l),
(548.87,688,l),
(548.87,160.565,l),
(544.87,160.565,l),
(188.043,688,l),
(99.783,688,l),
(99.783,-80.935,ls),
(99.783,-123.761,o),
(92.413,-136.304,o),
(4.304,-136.304,c),
(4.304,-200,l)
);
}
);
width = 731.47826;
},
{
anchors = (
{
name = bottom;
pos = (365.739,0);
},
{
name = top;
pos = (365.739,688);
}
);
layerId = m012;
shapes = (
{
closed = 1;
nodes = (
(138.065,-200,o),
(182.609,-190.109,o),
(182.609,-62.783,cs),
(182.609,537.217,l),
(186.609,537.217,l),
(548.87,0,l),
(631.696,0,l),
(631.696,688,l),
(548.87,688,l),
(548.87,160.565,l),
(544.87,160.565,l),
(188.043,688,l),
(99.783,688,l),
(99.783,-80.935,ls),
(99.783,-123.761,o),
(92.413,-136.304,o),
(4.304,-136.304,c),
(4.304,-200,l)
);
}
);
width = 731.47826;
},
{
anchors = (
{
name = bottom;
pos = (365.739,0);
},
{
name = top;
pos = (365.739,688);
}
);
layerId = m013;
shapes = (
{
closed = 1;
nodes = (
(138.065,-200,o),
(182.609,-190.109,o),
(182.609,-62.783,cs),
(182.609,537.217,l),
(186.609,537.217,l),
(548.87,0,l),
(631.696,0,l),
(631.696,688,l),
(548.87,688,l),
(548.87,160.565,l),
(544.87,160.565,l),
(188.043,688,l),
(99.783,688,l),
(99.783,-80.935,ls),
(99.783,-123.761,o),
(92.413,-136.304,o),
(4.304,-136.304,c),
(4.304,-200,l)
);
}
);
width = 731.47826;
},
{
anchors = (
{
name = bottom;
pos = (365.739,0);
},
{
name = top;
pos = (365.739,688);
}
);
layerId = m014;
shapes = (
{
closed = 1;
nodes = (
(138.065,-200,o),
(182.609,-190.109,o),
(182.609,-62.783,cs),
(182.609,537.217,l),
(186.609,537.217,l),
(548.87,0,l),
(631.696,0,l),
(631.696,688,l),
(548.87,688,l),
(548.87,160.565,l),
(544.87,160.565,l),
(188.043,688,l),
(99.783,688,l),
(99.783,-80.935,ls),
(99.783,-123.761,o),
(92.413,-136.304,o),
(4.304,-136.304,c),
(4.304,-200,l)
);
}
);
width = 731.47826;
},
{
anchors = (
{
name = bottom;
pos = (365.739,0);
},
{
name = top;
pos = (365.739,688);
}
);
layerId = m015;
shapes = (
{
closed = 1;
nodes = (
(138.065,-200,o),
(182.609,-190.109,o),
(182.609,-62.783,cs),
(182.609,537.217,l),
(186.609,537.217,l),
(548.87,0,l),
(631.696,0,l),
(631.696,688,l),
(548.87,688,l),
(548.87,160.565,l),
(544.87,160.565,l),
(188.043,688,l),
(99.783,688,l),
(99.783,-80.935,ls),
(99.783,-123.761,o),
(92.413,-136.304,o),
(4.304,-136.304,c),
(4.304,-200,l)
);
}
);
width = 731.47826;
},
{
anchors = (
{
name = bottom;
pos = (365.739,0);
},
{
name = top;
pos = (365.739,688);
}
);
layerId = m016;
shapes = (
{
closed = 1;
nodes = (
(138.065,-200,o),
(182.609,-190.109,o),
(182.609,-62.783,cs),
(182.609,537.217,l),
(186.609,537.217,l),
(548.87,0,l),
(631.696,0,l),
(631.696,688,l),
(548.87,688,l),
(548.87,160.565,l),
(544.87,160.565,l),
(188.043,688,l),
(99.783,688,l),
(99.783,-80.935,ls),
(99.783,-123.761,o),
(92.413,-136.304,o),
(4.304,-136.304,c),
(4.304,-200,l)
);
}
);
width = 731.47826;
}
);
metricRight = N;
unicode = 413;
},
{
export = 0;
glyphname = Eng;
kernLeft = H;
kernRight = H;
layers = (
{
layerId = m009;
shapes = (
{
closed = 1;
nodes = (
(587.152,-200,o),
(631.696,-190.109,o),
(631.696,-62.783,cs),
(631.696,688,l),
(548.87,688,l),
(548.87,160.565,l),
(544.87,160.565,l),
(188.043,688,l),
(99.783,688,l),
(99.783,0,l),
(182.609,0,l),
(182.609,537.217,l),
(186.609,537.217,l),
(548.87,0,l),
(548.87,-80.935,ls),
(548.87,-123.761,o),
(541.5,-136.304,o),
(453.391,-136.304,c),
(453.391,-200,l)
);
}
);
width = 731.47826;
},
{
layerId = m010;
shapes = (
{
closed = 1;
nodes = (
(587.152,-200,o),
(631.696,-190.109,o),
(631.696,-62.783,cs),
(631.696,688,l),
(548.87,688,l),
(548.87,160.565,l),
(544.87,160.565,l),
(188.043,688,l),
(99.783,688,l),
(99.783,0,l),
(182.609,0,l),
(182.609,537.217,l),
(186.609,537.217,l),
(548.87,0,l),
(548.87,-80.935,ls),
(548.87,-123.761,o),
(541.5,-136.304,o),
(453.391,-136.304,c),
(453.391,-200,l)
);
}
);
width = 731.47826;
},
{
layerId = m011;
shapes = (
{
closed = 1;
nodes = (
(587.152,-200,o),
(631.696,-190.109,o),
(631.696,-62.783,cs),
(631.696,688,l),
(548.87,688,l),
(548.87,160.565,l),
(544.87,160.565,l),
(188.043,688,l),
(99.783,688,l),
(99.783,0,l),
(182.609,0,l),
(182.609,537.217,l),
(186.609,537.217,l),
(548.87,0,l),
(548.87,-80.935,ls),
(548.87,-123.761,o),
(541.5,-136.304,o),
(453.391,-136.304,c),
(453.391,-200,l)
);
}
);
width = 731.47826;
},
{
layerId = m012;
shapes = (
{
closed = 1;
nodes = (
(587.152,-200,o),
(631.696,-190.109,o),
(631.696,-62.783,cs),
(631.696,688,l),
(548.87,688,l),
(548.87,160.565,l),
(544.87,160.565,l),
(188.043,688,l),
(99.783,688,l),
(99.783,0,l),
(182.609,0,l),
(182.609,537.217,l),
(186.609,537.217,l),
(548.87,0,l),
(548.87,-80.935,ls),
(548.87,-123.761,o),
(541.5,-136.304,o),
(453.391,-136.304,c),
(453.391,-200,l)
);
}
);
width = 731.47826;
},
{
layerId = m013;
shapes = (
{
closed = 1;
nodes = (
(587.152,-200,o),
(631.696,-190.109,o),
(631.696,-62.783,cs),
(631.696,688,l),
(548.87,688,l),
(548.87,160.565,l),
(544.87,160.565,l),
(188.043,688,l),
(99.783,688,l),
(99.783,0,l),
(182.609,0,l),
(182.609,537.217,l),
(186.609,537.217,l),
(548.87,0,l),
(548.87,-80.935,ls),
(548.87,-123.761,o),
(541.5,-136.304,o),
(453.391,-136.304,c),
(453.391,-200,l)
);
}
);
width = 731.47826;
},
{
layerId = m014;
shapes = (
{
closed = 1;
nodes = (
(587.152,-200,o),
(631.696,-190.109,o),
(631.696,-62.783,cs),
(631.696,688,l),
(548.87,688,l),
(548.87,160.565,l),
(544.87,160.565,l),
(188.043,688,l),
(99.783,688,l),
(99.783,0,l),
(182.609,0,l),
(182.609,537.217,l),
(186.609,537.217,l),
(548.87,0,l),
(548.87,-80.935,ls),
(548.87,-123.761,o),
(541.5,-136.304,o),
(453.391,-136.304,c),
(453.391,-200,l)
);
}
);
width = 731.47826;
},
{
layerId = m015;
shapes = (
{
closed = 1;
nodes = (
(587.152,-200,o),
(631.696,-190.109,o),
(631.696,-62.783,cs),
(631.696,688,l),
(548.87,688,l),
(548.87,160.565,l),
(544.87,160.565,l),
(188.043,688,l),
(99.783,688,l),
(99.783,0,l),
(182.609,0,l),
(182.609,537.217,l),
(186.609,537.217,l),
(548.87,0,l),
(548.87,-80.935,ls),
(548.87,-123.761,o),
(541.5,-136.304,o),
(453.391,-136.304,c),
(453.391,-200,l)
);
}
);
width = 731.47826;
},
{
layerId = m016;
shapes = (
{
closed = 1;
nodes = (
(587.152,-200,o),
(631.696,-190.109,o),
(631.696,-62.783,cs),
(631.696,688,l),
(548.87,688,l),
(548.87,160.565,l),
(544.87,160.565,l),
(188.043,688,l),
(99.783,688,l),
(99.783,0,l),
(182.609,0,l),
(182.609,537.217,l),
(186.609,537.217,l),
(548.87,0,l),
(548.87,-80.935,ls),
(548.87,-123.761,o),
(541.5,-136.304,o),
(453.391,-136.304,c),
(453.391,-200,l)
);
}
);
width = 731.47826;
}
);
unicode = 330;
},
{
color = 3;
export = 0;
glyphname = Ohorn;
kernLeft = O;
kernRight = O;
layers = (
{
anchors = (
{
name = _topright;
pos = (475.804,688);
},
{
name = bottom;
pos = (358.652,0);
},
{
name = top;
pos = (358.652,688);
},
{
name = topright;
pos = (475.804,782.196);
}
);
layerId = m009;
shapes = (
{
closed = 1;
nodes = (
(541.87,648.587,ls),
(639.304,648.587,o),
(656.935,671.848,o),
(656.935,758.543,cs),
(656.935,782.196,l),
(597.848,782.196,l),
(597.848,751,ls),
(597.848,702,o),
(591.761,688,o),
(541.87,688,cs),
(475.804,688,l),
(475.804,648.587,l)
);
},
{
ref = O;
}
);
width = 716.76087;
},
{
anchors = (
{
name = _topright;
pos = (475.804,688);
},
{
name = bottom;
pos = (358.652,0);
},
{
name = top;
pos = (358.652,688);
},
{
name = topright;
pos = (475.804,782.196);
}
);
layerId = m010;
shapes = (
{
closed = 1;
nodes = (
(541.87,648.587,ls),
(639.304,648.587,o),
(656.935,671.848,o),
(656.935,758.543,cs),
(656.935,782.196,l),
(597.848,782.196,l),
(597.848,751,ls),
(597.848,702,o),
(591.761,688,o),
(541.87,688,cs),
(475.804,688,l),
(475.804,648.587,l)
);
},
{
ref = O;
}
);
width = 716.76087;
},
{
anchors = (
{
name = _topright;
pos = (475.804,688);
},
{
name = bottom;
pos = (358.652,0);
},
{
name = top;
pos = (358.652,688);
},
{
name = topright;
pos = (475.804,782.196);
}
);
layerId = m011;
shapes = (
{
closed = 1;
nodes = (
(541.87,648.587,ls),
(639.304,648.587,o),
(656.935,671.848,o),
(656.935,758.543,cs),
(656.935,782.196,l),
(597.848,782.196,l),
(597.848,751,ls),
(597.848,702,o),
(591.761,688,o),
(541.87,688,cs),
(475.804,688,l),
(475.804,648.587,l)
);
},
{
ref = O;
}
);
width = 716.76087;
},
{
anchors = (
{
name = _topright;
pos = (475.804,688);
},
{
name = bottom;
pos = (358.652,0);
},
{
name = top;
pos = (358.652,688);
},
{
name = topright;
pos = (475.804,782.196);
}
);
layerId = m012;
shapes = (
{
closed = 1;
nodes = (
(541.87,648.587,ls),
(639.304,648.587,o),
(656.935,671.848,o),
(656.935,758.543,cs),
(656.935,782.196,l),
(597.848,782.196,l),
(597.848,751,ls),
(597.848,702,o),
(591.761,688,o),
(541.87,688,cs),
(475.804,688,l),
(475.804,648.587,l)
);
},
{
ref = O;
}
);
width = 716.76087;
},
{
anchors = (
{
name = _topright;
pos = (475.804,688);
},
{
name = bottom;
pos = (358.652,0);
},
{
name = top;
pos = (358.652,688);
},
{
name = topright;
pos = (475.804,782.196);
}
);
layerId = m013;
shapes = (
{
closed = 1;
nodes = (
(541.87,648.587,ls),
(639.304,648.587,o),
(656.935,671.848,o),
(656.935,758.543,cs),
(656.935,782.196,l),
(597.848,782.196,l),
(597.848,751,ls),
(597.848,702,o),
(591.761,688,o),
(541.87,688,cs),
(475.804,688,l),
(475.804,648.587,l)
);
},
{
ref = O;
}
);
width = 716.76087;
},
{
anchors = (
{
name = _topright;
pos = (475.804,688);
},
{
name = bottom;
pos = (358.652,0);
},
{
name = top;
pos = (358.652,688);
},
{
name = topright;
pos = (475.804,782.196);
}
);
layerId = m014;
shapes = (
{
closed = 1;
nodes = (
(541.87,648.587,ls),
(639.304,648.587,o),
(656.935,671.848,o),
(656.935,758.543,cs),
(656.935,782.196,l),
(597.848,782.196,l),
(597.848,751,ls),
(597.848,702,o),
(591.761,688,o),
(541.87,688,cs),
(475.804,688,l),
(475.804,648.587,l)
);
},
{
ref = O;
}
);
width = 716.76087;
},
{
anchors = (
{
name = _topright;
pos = (475.804,688);
},
{
name = bottom;
pos = (358.652,0);
},
{
name = top;
pos = (358.652,688);
},
{
name = topright;
pos = (475.804,782.196);
}
);
layerId = m015;
shapes = (
{
closed = 1;
nodes = (
(541.87,648.587,ls),
(639.304,648.587,o),
(656.935,671.848,o),
(656.935,758.543,cs),
(656.935,782.196,l),
(597.848,782.196,l),
(597.848,751,ls),
(597.848,702,o),
(591.761,688,o),
(541.87,688,cs),
(475.804,688,l),
(475.804,648.587,l)
);
},
{
ref = O;
}
);
width = 716.76087;
},
{
anchors = (
{
name = _topright;
pos = (475.804,688);
},
{
name = bottom;
pos = (358.652,0);
},
{
name = top;
pos = (358.652,688);
},
{
name = topright;
pos = (475.804,782.196);
}
);
layerId = m016;
shapes = (
{
closed = 1;
nodes = (
(541.87,648.587,ls),
(639.304,648.587,o),
(656.935,671.848,o),
(656.935,758.543,cs),
(656.935,782.196,l),
(597.848,782.196,l),
(597.848,751,ls),
(597.848,702,o),
(591.761,688,o),
(541.87,688,cs),
(475.804,688,l),
(475.804,648.587,l)
);
},
{
ref = O;
}
);
width = 716.76087;
}
);
unicode = 416;
},
{
color = 3;
export = 0;
glyphname = Oslash;
kernLeft = O;
kernRight = O;
layers = (
{
anchors = (
{
name = bottom;
pos = (360.283,0);
},
{
name = top;
pos = (360.283,688);
}
);
layerId = m009;
name = "[86]";
shapes = (
{
closed = 1;
nodes = (
(587.087,654.957,l),
(622.457,743,l),
(546.804,703.283,l),
(520.174,631.565,l)
);
},
{
closed = 1;
nodes = (
(147.652,-55,l),
(213.065,52.283,l),
(158.804,72.087,l),
(80.761,-55,l)
);
},
{
alignment = -1;
attr = {
identifier = C89C2D6D;
};
ref = O;
}
);
width = 716.76087;
},
{
anchors = (
{
name = bottom;
pos = (360.283,0);
},
{
name = top;
pos = (360.283,688);
}
);
layerId = m010;
name = "[86]";
shapes = (
{
closed = 1;
nodes = (
(587.087,654.957,l),
(622.457,743,l),
(546.804,703.283,l),
(520.174,631.565,l)
);
},
{
closed = 1;
nodes = (
(147.652,-55,l),
(213.065,52.283,l),
(158.804,72.087,l),
(80.761,-55,l)
);
},
{
alignment = -1;
attr = {
identifier = FBEA7DCA;
};
ref = O;
}
);
width = 716.76087;
},
{
anchors = (
{
name = bottom;
pos = (360.283,0);
},
{
name = top;
pos = (360.283,688);
}
);
layerId = m011;
name = "[86]";
shapes = (
{
closed = 1;
nodes = (
(587.087,654.957,l),
(622.457,743,l),
(546.804,703.283,l),
(520.174,631.565,l)
);
},
{
closed = 1;
nodes = (
(147.652,-55,l),
(213.065,52.283,l),
(158.804,72.087,l),
(80.761,-55,l)
);
},
{
alignment = -1;
attr = {
identifier = A9D2F262;
};
ref = O;
}
);
width = 716.76087;
},
{
anchors = (
{
name = bottom;
pos = (360.283,0);
},
{
name = top;
pos = (360.283,688);
}
);
layerId = m012;
name = "[86]";
shapes = (
{
closed = 1;
nodes = (
(587.087,654.957,l),
(622.457,743,l),
(546.804,703.283,l),
(520.174,631.565,l)
);
},
{
closed = 1;
nodes = (
(147.652,-55,l),
(213.065,52.283,l),
(158.804,72.087,l),
(80.761,-55,l)
);
},
{
alignment = -1;
attr = {
identifier = 9B80E98E;
};
ref = O;
}
);
width = 716.76087;
},
{
anchors = (
{
name = bottom;
pos = (360.283,0);
},
{
name = top;
pos = (360.283,688);
}
);
layerId = m013;
name = "[86]";
shapes = (
{
closed = 1;
nodes = (
(587.087,654.957,l),
(622.457,743,l),
(546.804,703.283,l),
(520.174,631.565,l)
);
},
{
closed = 1;
nodes = (
(147.652,-55,l),
(213.065,52.283,l),
(158.804,72.087,l),
(80.761,-55,l)
);
},
{
alignment = -1;
attr = {
identifier = 3E97CF94;
};
ref = O;
}
);
width = 716.76087;
},
{
anchors = (
{
name = bottom;
pos = (360.283,0);
},
{
name = top;
pos = (360.283,688);
}
);
layerId = m014;
name = "[86]";
shapes = (
{
closed = 1;
nodes = (
(587.087,654.957,l),
(622.457,743,l),
(546.804,703.283,l),
(520.174,631.565,l)
);
},
{
closed = 1;
nodes = (
(147.652,-55,l),
(213.065,52.283,l),
(158.804,72.087,l),
(80.761,-55,l)
);
},
{
alignment = -1;
attr = {
identifier = 64C063F9;
};
ref = O;
}
);
width = 716.76087;
},
{
anchors = (
{
name = bottom;
pos = (360.283,0);
},
{
name = top;
pos = (360.283,688);
}
);
layerId = m015;
name = "[86]";
shapes = (
{
closed = 1;
nodes = (
(587.087,654.957,l),
(622.457,743,l),
(546.804,703.283,l),
(520.174,631.565,l)
);
},
{
closed = 1;
nodes = (
(147.652,-55,l),
(213.065,52.283,l),
(158.804,72.087,l),
(80.761,-55,l)
);
},
{
alignment = -1;
attr = {
identifier = AC7F8A81;
};
ref = O;
}
);
width = 716.76087;
},
{
anchors = (
{
name = bottom;
pos = (360.283,0);
},
{
name = top;
pos = (360.283,688);
}
);
layerId = m016;
name = "[86]";
shapes = (
{
closed = 1;
nodes = (
(587.087,654.957,l),
(622.457,743,l),
(546.804,703.283,l),
(520.174,631.565,l)
);
},
{
closed = 1;
nodes = (
(147.652,-55,l),
(213.065,52.283,l),
(158.804,72.087,l),
(80.761,-55,l)
);
},
{
alignment = -1;
attr = {
identifier = C89C2D6D;
};
ref = O;
}
);
width = 716.76087;
}
);
unicode = 216;
},
{
color = 3;
export = 0;
glyphname = Oslashacute;
kernLeft = O;
kernRight = O;
layers = (
{
anchors = (
{
name = bottom;
pos = (360.283,0);
},
{
name = center;
pos = (358.652,344);
},
{
name = ogonek;
pos = (415.304,0);
},
{
name = top;
pos = (360.283,688);
},
{
name = topleft;
pos = (20,688);
},
{
name = topright;
pos = (475.804,688);
}
);
layerId = m009;
name = "[86]";
shapes = (
{
closed = 1;
nodes = (
(587.087,654.957,l),
(622.457,743,l),
(546.804,703.283,l),
(520.174,631.565,l)
);
},
{
closed = 1;
nodes = (
(147.652,-55,l),
(213.065,52.283,l),
(158.804,72.087,l),
(80.761,-55,l)
);
},
{
ref = O;
},
{
pos = (307.348,178);
ref = acutecomb.case;
}
);
width = 716.76087;
},
{
anchors = (
{
name = bottom;
pos = (360.283,0);
},
{
name = center;
pos = (358.652,344);
},
{
name = ogonek;
pos = (415.304,0);
},
{
name = top;
pos = (360.283,688);
},
{
name = topleft;
pos = (20,688);
},
{
name = topright;
pos = (475.804,688);
}
);
layerId = m010;
name = "[86]";
shapes = (
{
closed = 1;
nodes = (
(587.087,654.957,l),
(622.457,743,l),
(546.804,703.283,l),
(520.174,631.565,l)
);
},
{
closed = 1;
nodes = (
(147.652,-55,l),
(213.065,52.283,l),
(158.804,72.087,l),
(80.761,-55,l)
);
},
{
ref = O;
},
{
pos = (307.348,178);
ref = acutecomb.case;
}
);
width = 716.76087;
},
{
anchors = (
{
name = bottom;
pos = (360.283,0);
},
{
name = center;
pos = (358.652,344);
},
{
name = ogonek;
pos = (415.304,0);
},
{
name = top;
pos = (360.283,688);
},
{
name = topleft;
pos = (20,688);
},
{
name = topright;
pos = (475.804,688);
}
);
layerId = m011;
name = "[86]";
shapes = (
{
closed = 1;
nodes = (
(587.087,654.957,l),
(622.457,743,l),
(546.804,703.283,l),
(520.174,631.565,l)
);
},
{
closed = 1;
nodes = (
(147.652,-55,l),
(213.065,52.283,l),
(158.804,72.087,l),
(80.761,-55,l)
);
},
{
ref = O;
},
{
pos = (307.348,178);
ref = acutecomb.case;
}
);
width = 716.76087;
},
{
anchors = (
{
name = bottom;
pos = (360.283,0);
},
{
name = center;
pos = (358.652,344);
},
{
name = ogonek;
pos = (415.304,0);
},
{
name = top;
pos = (360.283,688);
},
{
name = topleft;
pos = (20,688);
},
{
name = topright;
pos = (475.804,688);
}
);
layerId = m012;
name = "[86]";
shapes = (
{
closed = 1;
nodes = (
(587.087,654.957,l),
(622.457,743,l),
(546.804,703.283,l),
(520.174,631.565,l)
);
},
{
closed = 1;
nodes = (
(147.652,-55,l),
(213.065,52.283,l),
(158.804,72.087,l),
(80.761,-55,l)
);
},
{
ref = O;
},
{
pos = (307.348,178);
ref = acutecomb.case;
}
);
width = 716.76087;
},
{
anchors = (
{
name = bottom;
pos = (360.283,0);
},
{
name = center;
pos = (358.652,344);
},
{
name = ogonek;
pos = (415.304,0);
},
{
name = top;
pos = (360.283,688);
},
{
name = topleft;
pos = (20,688);
},
{
name = topright;
pos = (475.804,688);
}
);
layerId = m013;
name = "[86]";
shapes = (
{
closed = 1;
nodes = (
(587.087,654.957,l),
(622.457,743,l),
(546.804,703.283,l),
(520.174,631.565,l)
);
},
{
closed = 1;
nodes = (
(147.652,-55,l),
(213.065,52.283,l),
(158.804,72.087,l),
(80.761,-55,l)
);
},
{
ref = O;
},
{
pos = (307.348,178);
ref = acutecomb.case;
}
);
width = 716.76087;
},
{
anchors = (
{
name = bottom;
pos = (360.283,0);
},
{
name = center;
pos = (358.652,344);
},
{
name = ogonek;
pos = (415.304,0);
},
{
name = top;
pos = (360.283,688);
},
{
name = topleft;
pos = (20,688);
},
{
name = topright;
pos = (475.804,688);
}
);
layerId = m014;
name = "[86]";
shapes = (
{
closed = 1;
nodes = (
(587.087,654.957,l),
(622.457,743,l),
(546.804,703.283,l),
(520.174,631.565,l)
);
},
{
closed = 1;
nodes = (
(147.652,-55,l),
(213.065,52.283,l),
(158.804,72.087,l),
(80.761,-55,l)
);
},
{
ref = O;
},
{
pos = (307.348,178);
ref = acutecomb.case;
}
);
width = 716.76087;
},
{
anchors = (
{
name = bottom;
pos = (360.283,0);
},
{
name = center;
pos = (358.652,344);
},
{
name = ogonek;
pos = (415.304,0);
},
{
name = top;
pos = (360.283,688);
},
{
name = topleft;
pos = (20,688);
},
{
name = topright;
pos = (475.804,688);
}
);
layerId = m015;
name = "[86]";
shapes = (
{
closed = 1;
nodes = (
(587.087,654.957,l),
(622.457,743,l),
(546.804,703.283,l),
(520.174,631.565,l)
);
},
{
closed = 1;
nodes = (
(147.652,-55,l),
(213.065,52.283,l),
(158.804,72.087,l),
(80.761,-55,l)
);
},
{
ref = O;
},
{
pos = (307.348,178);
ref = acutecomb.case;
}
);
width = 716.76087;
},
{
anchors = (
{
name = bottom;
pos = (360.283,0);
},
{
name = center;
pos = (358.652,344);
},
{
name = ogonek;
pos = (415.304,0);
},
{
name = top;
pos = (360.283,688);
},
{
name = topleft;
pos = (20,688);
},
{
name = topright;
pos = (475.804,688);
}
);
layerId = m016;
name = "[86]";
shapes = (
{
closed = 1;
nodes = (
(587.087,654.957,l),
(622.457,743,l),
(546.804,703.283,l),
(520.174,631.565,l)
);
},
{
closed = 1;
nodes = (
(147.652,-55,l),
(213.065,52.283,l),
(158.804,72.087,l),
(80.761,-55,l)
);
},
{
ref = O;
},
{
pos = (307.348,178);
ref = acutecomb.case;
}
);
width = 716.76087;
}
);
unicode = 510;
},
{
export = 0;
glyphname = OE;
kernLeft = O;
kernRight = E;
layers = (
{
anchors = (
{
name = bottom;
pos = (522.87,0);
},
{
name = top;
pos = (522.87,688);
}
);
layerId = m009;
shapes = (
{
closed = 1;
nodes = (
(988.283,0,l),
(988.283,74.217,l),
(662.63,74.217,ls),
(637.609,74.217,o),
(609.696,71.674,o),
(590.174,68.043,c),
(632.891,111.304,o),
(639.348,184.261,o),
(640.348,310.348,c),
(941.283,310.348,l),
(941.283,384.565,l),
(640.348,384.565,l),
(639.348,505.196,o),
(631.348,577.239,o),
(590.174,619.957,c),
(609.696,616.326,o),
(637.609,613.783,o),
(662.63,613.783,cs),
(988.283,613.783,l),
(988.283,688,l),
(358.109,688,ls),
(90.239,688,o),
(76.413,632.609,o),
(76.413,344,cs),
(76.413,55.391,o),
(90.239,0,o),
(358.109,0,cs)
);
},
{
closed = 1;
nodes = (
(174.804,74.217,o),
(162.413,79.674,o),
(162.413,344,cs),
(162.413,608.326,o),
(174.804,613.783,o),
(358.109,613.783,cs),
(541.413,613.783,o),
(554.348,608.326,o),
(554.348,344,cs),
(554.348,79.674,o),
(541.413,74.217,o),
(358.109,74.217,cs)
);
}
);
width = 1044.73913;
},
{
anchors = (
{
name = bottom;
pos = (522.87,0);
},
{
name = top;
pos = (522.87,688);
}
);
layerId = m010;
shapes = (
{
closed = 1;
nodes = (
(988.283,0,l),
(988.283,74.217,l),
(662.63,74.217,ls),
(637.609,74.217,o),
(609.696,71.674,o),
(590.174,68.043,c),
(632.891,111.304,o),
(639.348,184.261,o),
(640.348,310.348,c),
(941.283,310.348,l),
(941.283,384.565,l),
(640.348,384.565,l),
(639.348,505.196,o),
(631.348,577.239,o),
(590.174,619.957,c),
(609.696,616.326,o),
(637.609,613.783,o),
(662.63,613.783,cs),
(988.283,613.783,l),
(988.283,688,l),
(358.109,688,ls),
(90.239,688,o),
(76.413,632.609,o),
(76.413,344,cs),
(76.413,55.391,o),
(90.239,0,o),
(358.109,0,cs)
);
},
{
closed = 1;
nodes = (
(174.804,74.217,o),
(162.413,79.674,o),
(162.413,344,cs),
(162.413,608.326,o),
(174.804,613.783,o),
(358.109,613.783,cs),
(541.413,613.783,o),
(554.348,608.326,o),
(554.348,344,cs),
(554.348,79.674,o),
(541.413,74.217,o),
(358.109,74.217,cs)
);
}
);
width = 1044.73913;
},
{
anchors = (
{
name = bottom;
pos = (522.87,0);
},
{
name = top;
pos = (522.87,688);
}
);
layerId = m011;
shapes = (
{
closed = 1;
nodes = (
(988.283,0,l),
(988.283,74.217,l),
(662.63,74.217,ls),
(637.609,74.217,o),
(609.696,71.674,o),
(590.174,68.043,c),
(632.891,111.304,o),
(639.348,184.261,o),
(640.348,310.348,c),
(941.283,310.348,l),
(941.283,384.565,l),
(640.348,384.565,l),
(639.348,505.196,o),
(631.348,577.239,o),
(590.174,619.957,c),
(609.696,616.326,o),
(637.609,613.783,o),
(662.63,613.783,cs),
(988.283,613.783,l),
(988.283,688,l),
(358.109,688,ls),
(90.239,688,o),
(76.413,632.609,o),
(76.413,344,cs),
(76.413,55.391,o),
(90.239,0,o),
(358.109,0,cs)
);
},
{
closed = 1;
nodes = (
(174.804,74.217,o),
(162.413,79.674,o),
(162.413,344,cs),
(162.413,608.326,o),
(174.804,613.783,o),
(358.109,613.783,cs),
(541.413,613.783,o),
(554.348,608.326,o),
(554.348,344,cs),
(554.348,79.674,o),
(541.413,74.217,o),
(358.109,74.217,cs)
);
}
);
width = 1044.73913;
},
{
anchors = (
{
name = bottom;
pos = (522.87,0);
},
{
name = top;
pos = (522.87,688);
}
);
layerId = m012;
shapes = (
{
closed = 1;
nodes = (
(988.283,0,l),
(988.283,74.217,l),
(662.63,74.217,ls),
(637.609,74.217,o),
(609.696,71.674,o),
(590.174,68.043,c),
(632.891,111.304,o),
(639.348,184.261,o),
(640.348,310.348,c),
(941.283,310.348,l),
(941.283,384.565,l),
(640.348,384.565,l),
(639.348,505.196,o),
(631.348,577.239,o),
(590.174,619.957,c),
(609.696,616.326,o),
(637.609,613.783,o),
(662.63,613.783,cs),
(988.283,613.783,l),
(988.283,688,l),
(358.109,688,ls),
(90.239,688,o),
(76.413,632.609,o),
(76.413,344,cs),
(76.413,55.391,o),
(90.239,0,o),
(358.109,0,cs)
);
},
{
closed = 1;
nodes = (
(174.804,74.217,o),
(162.413,79.674,o),
(162.413,344,cs),
(162.413,608.326,o),
(174.804,613.783,o),
(358.109,613.783,cs),
(541.413,613.783,o),
(554.348,608.326,o),
(554.348,344,cs),
(554.348,79.674,o),
(541.413,74.217,o),
(358.109,74.217,cs)
);
}
);
width = 1044.73913;
},
{
anchors = (
{
name = bottom;
pos = (522.87,0);
},
{
name = top;
pos = (522.87,688);
}
);
layerId = m013;
shapes = (
{
closed = 1;
nodes = (
(988.283,0,l),
(988.283,74.217,l),
(662.63,74.217,ls),
(637.609,74.217,o),
(609.696,71.674,o),
(590.174,68.043,c),
(632.891,111.304,o),
(639.348,184.261,o),
(640.348,310.348,c),
(941.283,310.348,l),
(941.283,384.565,l),
(640.348,384.565,l),
(639.348,505.196,o),
(631.348,577.239,o),
(590.174,619.957,c),
(609.696,616.326,o),
(637.609,613.783,o),
(662.63,613.783,cs),
(988.283,613.783,l),
(988.283,688,l),
(358.109,688,ls),
(90.239,688,o),
(76.413,632.609,o),
(76.413,344,cs),
(76.413,55.391,o),
(90.239,0,o),
(358.109,0,cs)
);
},
{
closed = 1;
nodes = (
(174.804,74.217,o),
(162.413,79.674,o),
(162.413,344,cs),
(162.413,608.326,o),
(174.804,613.783,o),
(358.109,613.783,cs),
(541.413,613.783,o),
(554.348,608.326,o),
(554.348,344,cs),
(554.348,79.674,o),
(541.413,74.217,o),
(358.109,74.217,cs)
);
}
);
width = 1044.73913;
},
{
anchors = (
{
name = bottom;
pos = (522.87,0);
},
{
name = top;
pos = (522.87,688);
}
);
layerId = m014;
shapes = (
{
closed = 1;
nodes = (
(988.283,0,l),
(988.283,74.217,l),
(662.63,74.217,ls),
(637.609,74.217,o),
(609.696,71.674,o),
(590.174,68.043,c),
(632.891,111.304,o),
(639.348,184.261,o),
(640.348,310.348,c),
(941.283,310.348,l),
(941.283,384.565,l),
(640.348,384.565,l),
(639.348,505.196,o),
(631.348,577.239,o),
(590.174,619.957,c),
(609.696,616.326,o),
(637.609,613.783,o),
(662.63,613.783,cs),
(988.283,613.783,l),
(988.283,688,l),
(358.109,688,ls),
(90.239,688,o),
(76.413,632.609,o),
(76.413,344,cs),
(76.413,55.391,o),
(90.239,0,o),
(358.109,0,cs)
);
},
{
closed = 1;
nodes = (
(174.804,74.217,o),
(162.413,79.674,o),
(162.413,344,cs),
(162.413,608.326,o),
(174.804,613.783,o),
(358.109,613.783,cs),
(541.413,613.783,o),
(554.348,608.326,o),
(554.348,344,cs),
(554.348,79.674,o),
(541.413,74.217,o),
(358.109,74.217,cs)
);
}
);
width = 1044.73913;
},
{
anchors = (
{
name = bottom;
pos = (522.87,0);
},
{
name = top;
pos = (522.87,688);
}
);
layerId = m015;
shapes = (
{
closed = 1;
nodes = (
(988.283,0,l),
(988.283,74.217,l),
(662.63,74.217,ls),
(637.609,74.217,o),
(609.696,71.674,o),
(590.174,68.043,c),
(632.891,111.304,o),
(639.348,184.261,o),
(640.348,310.348,c),
(941.283,310.348,l),
(941.283,384.565,l),
(640.348,384.565,l),
(639.348,505.196,o),
(631.348,577.239,o),
(590.174,619.957,c),
(609.696,616.326,o),
(637.609,613.783,o),
(662.63,613.783,cs),
(988.283,613.783,l),
(988.283,688,l),
(358.109,688,ls),
(90.239,688,o),
(76.413,632.609,o),
(76.413,344,cs),
(76.413,55.391,o),
(90.239,0,o),
(358.109,0,cs)
);
},
{
closed = 1;
nodes = (
(174.804,74.217,o),
(162.413,79.674,o),
(162.413,344,cs),
(162.413,608.326,o),
(174.804,613.783,o),
(358.109,613.783,cs),
(541.413,613.783,o),
(554.348,608.326,o),
(554.348,344,cs),
(554.348,79.674,o),
(541.413,74.217,o),
(358.109,74.217,cs)
);
}
);
width = 1044.73913;
},
{
anchors = (
{
name = bottom;
pos = (522.87,0);
},
{
name = top;
pos = (522.87,688);
}
);
layerId = m016;
shapes = (
{
closed = 1;
nodes = (
(988.283,0,l),
(988.283,74.217,l),
(662.63,74.217,ls),
(637.609,74.217,o),
(609.696,71.674,o),
(590.174,68.043,c),
(632.891,111.304,o),
(639.348,184.261,o),
(640.348,310.348,c),
(941.283,310.348,l),
(941.283,384.565,l),
(640.348,384.565,l),
(639.348,505.196,o),
(631.348,577.239,o),
(590.174,619.957,c),
(609.696,616.326,o),
(637.609,613.783,o),
(662.63,613.783,cs),
(988.283,613.783,l),
(988.283,688,l),
(358.109,688,ls),
(90.239,688,o),
(76.413,632.609,o),
(76.413,344,cs),
(76.413,55.391,o),
(90.239,0,o),
(358.109,0,cs)
);
},
{
closed = 1;
nodes = (
(174.804,74.217,o),
(162.413,79.674,o),
(162.413,344,cs),
(162.413,608.326,o),
(174.804,613.783,o),
(358.109,613.783,cs),
(541.413,613.783,o),
(554.348,608.326,o),
(554.348,344,cs),
(554.348,79.674,o),
(541.413,74.217,o),
(358.109,74.217,cs)
);
}
);
width = 1044.73913;
}
);
metricLeft = O;
metricRight = E;
unicode = 338;
},
{
export = 0;
glyphname = Thorn;
kernLeft = H;
kernRight = P;
layers = (
{
anchors = (
{
name = bottom;
pos = (326.37,0);
},
{
name = top;
pos = (326.37,688);
}
);
layerId = m009;
shapes = (
{
closed = 1;
nodes = (
(185.783,0,l),
(185.783,133.217,l),
(399.196,133.217,l),
(577.283,133.217,o),
(598.696,231.13,o),
(598.696,350.543,cs),
(598.696,474.848,o),
(576.478,567.87,o),
(401.37,567.87,cs),
(185.783,567.87,l),
(185.783,688,l),
(99.783,688,l),
(99.783,0,l)
);
},
{
closed = 1;
nodes = (
(185.783,493.652,l),
(372.739,493.652,ls),
(504.609,493.652,o),
(512.696,450.565,o),
(512.696,350.543,cs),
(512.696,250.522,o),
(502.696,207.435,o),
(370.565,207.435,cs),
(185.783,207.435,l)
);
}
);
width = 651.73913;
},
{
anchors = (
{
name = bottom;
pos = (326.37,0);
},
{
name = top;
pos = (326.37,688);
}
);
layerId = m010;
shapes = (
{
closed = 1;
nodes = (
(185.783,0,l),
(185.783,133.217,l),
(399.196,133.217,l),
(577.283,133.217,o),
(598.696,231.13,o),
(598.696,350.543,cs),
(598.696,474.848,o),
(576.478,567.87,o),
(401.37,567.87,cs),
(185.783,567.87,l),
(185.783,688,l),
(99.783,688,l),
(99.783,0,l)
);
},
{
closed = 1;
nodes = (
(185.783,493.652,l),
(372.739,493.652,ls),
(504.609,493.652,o),
(512.696,450.565,o),
(512.696,350.543,cs),
(512.696,250.522,o),
(502.696,207.435,o),
(370.565,207.435,cs),
(185.783,207.435,l)
);
}
);
width = 651.73913;
},
{
anchors = (
{
name = bottom;
pos = (326.37,0);
},
{
name = top;
pos = (326.37,688);
}
);
layerId = m011;
shapes = (
{
closed = 1;
nodes = (
(185.783,0,l),
(185.783,133.217,l),
(399.196,133.217,l),
(577.283,133.217,o),
(598.696,231.13,o),
(598.696,350.543,cs),
(598.696,474.848,o),
(576.478,567.87,o),
(401.37,567.87,cs),
(185.783,567.87,l),
(185.783,688,l),
(99.783,688,l),
(99.783,0,l)
);
},
{
closed = 1;
nodes = (
(185.783,493.652,l),
(372.739,493.652,ls),
(504.609,493.652,o),
(512.696,450.565,o),
(512.696,350.543,cs),
(512.696,250.522,o),
(502.696,207.435,o),
(370.565,207.435,cs),
(185.783,207.435,l)
);
}
);
width = 651.73913;
},
{
anchors = (
{
name = bottom;
pos = (326.37,0);
},
{
name = top;
pos = (326.37,688);
}
);
layerId = m012;
shapes = (
{
closed = 1;
nodes = (
(185.783,0,l),
(185.783,133.217,l),
(399.196,133.217,l),
(577.283,133.217,o),
(598.696,231.13,o),
(598.696,350.543,cs),
(598.696,474.848,o),
(576.478,567.87,o),
(401.37,567.87,cs),
(185.783,567.87,l),
(185.783,688,l),
(99.783,688,l),
(99.783,0,l)
);
},
{
closed = 1;
nodes = (
(185.783,493.652,l),
(372.739,493.652,ls),
(504.609,493.652,o),
(512.696,450.565,o),
(512.696,350.543,cs),
(512.696,250.522,o),
(502.696,207.435,o),
(370.565,207.435,cs),
(185.783,207.435,l)
);
}
);
width = 651.73913;
},
{
anchors = (
{
name = bottom;
pos = (326.37,0);
},
{
name = top;
pos = (326.37,688);
}
);
layerId = m013;
shapes = (
{
closed = 1;
nodes = (
(185.783,0,l),
(185.783,133.217,l),
(399.196,133.217,l),
(577.283,133.217,o),
(598.696,231.13,o),
(598.696,350.543,cs),
(598.696,474.848,o),
(576.478,567.87,o),
(401.37,567.87,cs),
(185.783,567.87,l),
(185.783,688,l),
(99.783,688,l),
(99.783,0,l)
);
},
{
closed = 1;
nodes = (
(185.783,493.652,l),
(372.739,493.652,ls),
(504.609,493.652,o),
(512.696,450.565,o),
(512.696,350.543,cs),
(512.696,250.522,o),
(502.696,207.435,o),
(370.565,207.435,cs),
(185.783,207.435,l)
);
}
);
width = 651.73913;
},
{
anchors = (
{
name = bottom;
pos = (326.37,0);
},
{
name = top;
pos = (326.37,688);
}
);
layerId = m014;
shapes = (
{
closed = 1;
nodes = (
(185.783,0,l),
(185.783,133.217,l),
(399.196,133.217,l),
(577.283,133.217,o),
(598.696,231.13,o),
(598.696,350.543,cs),
(598.696,474.848,o),
(576.478,567.87,o),
(401.37,567.87,cs),
(185.783,567.87,l),
(185.783,688,l),
(99.783,688,l),
(99.783,0,l)
);
},
{
closed = 1;
nodes = (
(185.783,493.652,l),
(372.739,493.652,ls),
(504.609,493.652,o),
(512.696,450.565,o),
(512.696,350.543,cs),
(512.696,250.522,o),
(502.696,207.435,o),
(370.565,207.435,cs),
(185.783,207.435,l)
);
}
);
width = 651.73913;
},
{
anchors = (
{
name = bottom;
pos = (326.37,0);
},
{
name = top;
pos = (326.37,688);
}
);
layerId = m015;
shapes = (
{
closed = 1;
nodes = (
(185.783,0,l),
(185.783,133.217,l),
(399.196,133.217,l),
(577.283,133.217,o),
(598.696,231.13,o),
(598.696,350.543,cs),
(598.696,474.848,o),
(576.478,567.87,o),
(401.37,567.87,cs),
(185.783,567.87,l),
(185.783,688,l),
(99.783,688,l),
(99.783,0,l)
);
},
{
closed = 1;
nodes = (
(185.783,493.652,l),
(372.739,493.652,ls),
(504.609,493.652,o),
(512.696,450.565,o),
(512.696,350.543,cs),
(512.696,250.522,o),
(502.696,207.435,o),
(370.565,207.435,cs),
(185.783,207.435,l)
);
}
);
width = 651.73913;
},
{
anchors = (
{
name = bottom;
pos = (326.37,0);
},
{
name = top;
pos = (326.37,688);
}
);
layerId = m016;
shapes = (
{
closed = 1;
nodes = (
(185.783,0,l),
(185.783,133.217,l),
(399.196,133.217,l),
(577.283,133.217,o),
(598.696,231.13,o),
(598.696,350.543,cs),
(598.696,474.848,o),
(576.478,567.87,o),
(401.37,567.87,cs),
(185.783,567.87,l),
(185.783,688,l),
(99.783,688,l),
(99.783,0,l)
);
},
{
closed = 1;
nodes = (
(185.783,493.652,l),
(372.739,493.652,ls),
(504.609,493.652,o),
(512.696,450.565,o),
(512.696,350.543,cs),
(512.696,250.522,o),
(502.696,207.435,o),
(370.565,207.435,cs),
(185.783,207.435,l)
);
}
);
width = 651.73913;
}
);
unicode = 222;
},
{
export = 0;
glyphname = Germandbls;
kernLeft = H;
kernRight = B;
layers = (
{
anchors = (
{
name = bottom;
pos = (367.239,0);
},
{
name = top;
pos = (367.239,688);
}
);
layerId = m009;
shapes = (
{
closed = 1;
nodes = (
(579.004,-8,o),
(643.456,52.174,o),
(643.381,181.946,cs),
(643.456,322.745,o),
(585.239,373.783,o),
(448.598,373.783,cs),
(395.685,373.783,l),
(403.772,345.022,l),
(597.794,594.283,l),
(597.794,657.609,l),
(537.537,678.891,o),
(439.377,696,o),
(344.265,696,cs),
(136.058,696,o),
(91.413,638.408,o),
(91.413,368.609,cs),
(91.413,0,l),
(177.413,0,l),
(177.413,344,ls),
(177.413,594.109,o),
(192.099,621.783,o),
(363.887,621.783,cs),
(417.228,621.783,o),
(468.402,615.5,o),
(530.925,598.283,c),
(528.403,631.674,l),
(325.185,371.935,l),
(325.185,311.348,l),
(437.207,311.348,ls),
(524.608,311.348,o),
(556.369,279.391,o),
(556.294,187.798,cs),
(556.369,93.397,o),
(523.412,66.217,o),
(408.31,66.217,cs),
(371.366,66.217,o),
(312.249,71.217,o),
(263.403,78.217,c),
(263.403,9.261,l),
(303.14,-0.37,o),
(367.296,-8,o),
(413.721,-8,cs)
);
}
);
width = 715.45652;
},
{
anchors = (
{
name = bottom;
pos = (367.239,0);
},
{
name = top;
pos = (367.239,688);
}
);
layerId = m010;
shapes = (
{
closed = 1;
nodes = (
(579.004,-8,o),
(643.456,52.174,o),
(643.381,181.946,cs),
(643.456,322.745,o),
(585.239,373.783,o),
(448.598,373.783,cs),
(395.685,373.783,l),
(403.772,345.022,l),
(597.794,594.283,l),
(597.794,657.609,l),
(537.537,678.891,o),
(439.377,696,o),
(344.265,696,cs),
(136.058,696,o),
(91.413,638.408,o),
(91.413,368.609,cs),
(91.413,0,l),
(177.413,0,l),
(177.413,344,ls),
(177.413,594.109,o),
(192.099,621.783,o),
(363.887,621.783,cs),
(417.228,621.783,o),
(468.402,615.5,o),
(530.925,598.283,c),
(528.403,631.674,l),
(325.185,371.935,l),
(325.185,311.348,l),
(437.207,311.348,ls),
(524.608,311.348,o),
(556.369,279.391,o),
(556.294,187.798,cs),
(556.369,93.397,o),
(523.412,66.217,o),
(408.31,66.217,cs),
(371.366,66.217,o),
(312.249,71.217,o),
(263.403,78.217,c),
(263.403,9.261,l),
(303.14,-0.37,o),
(367.296,-8,o),
(413.721,-8,cs)
);
}
);
width = 715.45652;
},
{
anchors = (
{
name = bottom;
pos = (367.239,0);
},
{
name = top;
pos = (367.239,688);
}
);
layerId = m011;
shapes = (
{
closed = 1;
nodes = (
(579.004,-8,o),
(643.456,52.174,o),
(643.381,181.946,cs),
(643.456,322.745,o),
(585.239,373.783,o),
(448.598,373.783,cs),
(395.685,373.783,l),
(403.772,345.022,l),
(597.794,594.283,l),
(597.794,657.609,l),
(537.537,678.891,o),
(439.377,696,o),
(344.265,696,cs),
(136.058,696,o),
(91.413,638.408,o),
(91.413,368.609,cs),
(91.413,0,l),
(177.413,0,l),
(177.413,344,ls),
(177.413,594.109,o),
(192.099,621.783,o),
(363.887,621.783,cs),
(417.228,621.783,o),
(468.402,615.5,o),
(530.925,598.283,c),
(528.403,631.674,l),
(325.185,371.935,l),
(325.185,311.348,l),
(437.207,311.348,ls),
(524.608,311.348,o),
(556.369,279.391,o),
(556.294,187.798,cs),
(556.369,93.397,o),
(523.412,66.217,o),
(408.31,66.217,cs),
(371.366,66.217,o),
(312.249,71.217,o),
(263.403,78.217,c),
(263.403,9.261,l),
(303.14,-0.37,o),
(367.296,-8,o),
(413.721,-8,cs)
);
}
);
width = 715.45652;
},
{
anchors = (
{
name = bottom;
pos = (367.239,0);
},
{
name = top;
pos = (367.239,688);
}
);
layerId = m012;
shapes = (
{
closed = 1;
nodes = (
(579.004,-8,o),
(643.456,52.174,o),
(643.381,181.946,cs),
(643.456,322.745,o),
(585.239,373.783,o),
(448.598,373.783,cs),
(395.685,373.783,l),
(403.772,345.022,l),
(597.794,594.283,l),
(597.794,657.609,l),
(537.537,678.891,o),
(439.377,696,o),
(344.265,696,cs),
(136.058,696,o),
(91.413,638.408,o),
(91.413,368.609,cs),
(91.413,0,l),
(177.413,0,l),
(177.413,344,ls),
(177.413,594.109,o),
(192.099,621.783,o),
(363.887,621.783,cs),
(417.228,621.783,o),
(468.402,615.5,o),
(530.925,598.283,c),
(528.403,631.674,l),
(325.185,371.935,l),
(325.185,311.348,l),
(437.207,311.348,ls),
(524.608,311.348,o),
(556.369,279.391,o),
(556.294,187.798,cs),
(556.369,93.397,o),
(523.412,66.217,o),
(408.31,66.217,cs),
(371.366,66.217,o),
(312.249,71.217,o),
(263.403,78.217,c),
(263.403,9.261,l),
(303.14,-0.37,o),
(367.296,-8,o),
(413.721,-8,cs)
);
}
);
width = 715.45652;
},
{
anchors = (
{
name = bottom;
pos = (367.239,0);
},
{
name = top;
pos = (367.239,688);
}
);
layerId = m013;
shapes = (
{
closed = 1;
nodes = (
(579.004,-8,o),
(643.456,52.174,o),
(643.381,181.946,cs),
(643.456,322.745,o),
(585.239,373.783,o),
(448.598,373.783,cs),
(395.685,373.783,l),
(403.772,345.022,l),
(597.794,594.283,l),
(597.794,657.609,l),
(537.537,678.891,o),
(439.377,696,o),
(344.265,696,cs),
(136.058,696,o),
(91.413,638.408,o),
(91.413,368.609,cs),
(91.413,0,l),
(177.413,0,l),
(177.413,344,ls),
(177.413,594.109,o),
(192.099,621.783,o),
(363.887,621.783,cs),
(417.228,621.783,o),
(468.402,615.5,o),
(530.925,598.283,c),
(528.403,631.674,l),
(325.185,371.935,l),
(325.185,311.348,l),
(437.207,311.348,ls),
(524.608,311.348,o),
(556.369,279.391,o),
(556.294,187.798,cs),
(556.369,93.397,o),
(523.412,66.217,o),
(408.31,66.217,cs),
(371.366,66.217,o),
(312.249,71.217,o),
(263.403,78.217,c),
(263.403,9.261,l),
(303.14,-0.37,o),
(367.296,-8,o),
(413.721,-8,cs)
);
}
);
width = 715.45652;
},
{
anchors = (
{
name = bottom;
pos = (367.239,0);
},
{
name = top;
pos = (367.239,688);
}
);
layerId = m014;
shapes = (
{
closed = 1;
nodes = (
(579.004,-8,o),
(643.456,52.174,o),
(643.381,181.946,cs),
(643.456,322.745,o),
(585.239,373.783,o),
(448.598,373.783,cs),
(395.685,373.783,l),
(403.772,345.022,l),
(597.794,594.283,l),
(597.794,657.609,l),
(537.537,678.891,o),
(439.377,696,o),
(344.265,696,cs),
(136.058,696,o),
(91.413,638.408,o),
(91.413,368.609,cs),
(91.413,0,l),
(177.413,0,l),
(177.413,344,ls),
(177.413,594.109,o),
(192.099,621.783,o),
(363.887,621.783,cs),
(417.228,621.783,o),
(468.402,615.5,o),
(530.925,598.283,c),
(528.403,631.674,l),
(325.185,371.935,l),
(325.185,311.348,l),
(437.207,311.348,ls),
(524.608,311.348,o),
(556.369,279.391,o),
(556.294,187.798,cs),
(556.369,93.397,o),
(523.412,66.217,o),
(408.31,66.217,cs),
(371.366,66.217,o),
(312.249,71.217,o),
(263.403,78.217,c),
(263.403,9.261,l),
(303.14,-0.37,o),
(367.296,-8,o),
(413.721,-8,cs)
);
}
);
width = 715.45652;
},
{
anchors = (
{
name = bottom;
pos = (367.239,0);
},
{
name = top;
pos = (367.239,688);
}
);
layerId = m015;
shapes = (
{
closed = 1;
nodes = (
(579.004,-8,o),
(643.456,52.174,o),
(643.381,181.946,cs),
(643.456,322.745,o),
(585.239,373.783,o),
(448.598,373.783,cs),
(395.685,373.783,l),
(403.772,345.022,l),
(597.794,594.283,l),
(597.794,657.609,l),
(537.537,678.891,o),
(439.377,696,o),
(344.265,696,cs),
(136.058,696,o),
(91.413,638.408,o),
(91.413,368.609,cs),
(91.413,0,l),
(177.413,0,l),
(177.413,344,ls),
(177.413,594.109,o),
(192.099,621.783,o),
(363.887,621.783,cs),
(417.228,621.783,o),
(468.402,615.5,o),
(530.925,598.283,c),
(528.403,631.674,l),
(325.185,371.935,l),
(325.185,311.348,l),
(437.207,311.348,ls),
(524.608,311.348,o),
(556.369,279.391,o),
(556.294,187.798,cs),
(556.369,93.397,o),
(523.412,66.217,o),
(408.31,66.217,cs),
(371.366,66.217,o),
(312.249,71.217,o),
(263.403,78.217,c),
(263.403,9.261,l),
(303.14,-0.37,o),
(367.296,-8,o),
(413.721,-8,cs)
);
}
);
width = 715.45652;
},
{
anchors = (
{
name = bottom;
pos = (367.239,0);
},
{
name = top;
pos = (367.239,688);
}
);
layerId = m016;
shapes = (
{
closed = 1;
nodes = (
(579.004,-8,o),
(643.456,52.174,o),
(643.381,181.946,cs),
(643.456,322.745,o),
(585.239,373.783,o),
(448.598,373.783,cs),
(395.685,373.783,l),
(403.772,345.022,l),
(597.794,594.283,l),
(597.794,657.609,l),
(537.537,678.891,o),
(439.377,696,o),
(344.265,696,cs),
(136.058,696,o),
(91.413,638.408,o),
(91.413,368.609,cs),
(91.413,0,l),
(177.413,0,l),
(177.413,344,ls),
(177.413,594.109,o),
(192.099,621.783,o),
(363.887,621.783,cs),
(417.228,621.783,o),
(468.402,615.5,o),
(530.925,598.283,c),
(528.403,631.674,l),
(325.185,371.935,l),
(325.185,311.348,l),
(437.207,311.348,ls),
(524.608,311.348,o),
(556.369,279.391,o),
(556.294,187.798,cs),
(556.369,93.397,o),
(523.412,66.217,o),
(408.31,66.217,cs),
(371.366,66.217,o),
(312.249,71.217,o),
(263.403,78.217,c),
(263.403,9.261,l),
(303.14,-0.37,o),
(367.296,-8,o),
(413.721,-8,cs)
);
}
);
width = 715.45652;
}
);
metricLeft = "=U";
metricRight = "=B";
unicode = 7838;
},
{
color = 3;
export = 0;
glyphname = Tbar;
kernLeft = T;
kernRight = T;
layers = (
{
layerId = m009;
shapes = (
{
closed = 1;
nodes = (
(525.674,307.413,l),
(525.674,375.283,l),
(55.239,375.283,l),
(55.239,307.413,l)
);
},
{
ref = T;
}
);
width = 580.91304;
},
{
layerId = m010;
shapes = (
{
closed = 1;
nodes = (
(525.674,307.413,l),
(525.674,375.283,l),
(55.239,375.283,l),
(55.239,307.413,l)
);
},
{
ref = T;
}
);
width = 580.91304;
},
{
layerId = m011;
shapes = (
{
closed = 1;
nodes = (
(525.674,307.413,l),
(525.674,375.283,l),
(55.239,375.283,l),
(55.239,307.413,l)
);
},
{
ref = T;
}
);
width = 580.91304;
},
{
layerId = m012;
shapes = (
{
closed = 1;
nodes = (
(525.674,307.413,l),
(525.674,375.283,l),
(55.239,375.283,l),
(55.239,307.413,l)
);
},
{
ref = T;
}
);
width = 580.91304;
},
{
layerId = m013;
shapes = (
{
closed = 1;
nodes = (
(525.674,307.413,l),
(525.674,375.283,l),
(55.239,375.283,l),
(55.239,307.413,l)
);
},
{
ref = T;
}
);
width = 580.91304;
},
{
layerId = m014;
shapes = (
{
closed = 1;
nodes = (
(525.674,307.413,l),
(525.674,375.283,l),
(55.239,375.283,l),
(55.239,307.413,l)
);
},
{
ref = T;
}
);
width = 580.91304;
},
{
layerId = m015;
shapes = (
{
closed = 1;
nodes = (
(525.674,307.413,l),
(525.674,375.283,l),
(55.239,375.283,l),
(55.239,307.413,l)
);
},
{
ref = T;
}
);
width = 580.91304;
},
{
layerId = m016;
shapes = (
{
closed = 1;
nodes = (
(525.674,307.413,l),
(525.674,375.283,l),
(55.239,375.283,l),
(55.239,307.413,l)
);
},
{
ref = T;
}
);
width = 580.91304;
}
);
unicode = 358;
},
{
color = 3;
export = 0;
glyphname = Uhorn;
kernLeft = U;
kernRight = U;
layers = (
{
anchors = (
{
name = _topright;
pos = (552.087,688);
},
{
name = bottom;
pos = (354.652,0);
},
{
name = top;
pos = (354.652,688);
},
{
name = topright;
pos = (552.087,782.196);
}
);
layerId = m009;
shapes = (
{
closed = 1;
nodes = (
(618.152,648.587,ls),
(715.587,648.587,o),
(733.217,671.848,o),
(733.217,758.543,cs),
(733.217,782.196,l),
(674.13,782.196,l),
(674.13,751,ls),
(674.13,702,o),
(668.043,688,o),
(618.152,688,cs),
(552.087,688,l),
(552.087,648.587,l)
);
},
{
ref = U;
}
);
width = 708.30435;
},
{
anchors = (
{
name = _topright;
pos = (552.087,688);
},
{
name = bottom;
pos = (354.652,0);
},
{
name = top;
pos = (354.652,688);
},
{
name = topright;
pos = (552.087,782.196);
}
);
layerId = m010;
shapes = (
{
closed = 1;
nodes = (
(618.152,648.587,ls),
(715.587,648.587,o),
(733.217,671.848,o),
(733.217,758.543,cs),
(733.217,782.196,l),
(674.13,782.196,l),
(674.13,751,ls),
(674.13,702,o),
(668.043,688,o),
(618.152,688,cs),
(552.087,688,l),
(552.087,648.587,l)
);
},
{
ref = U;
}
);
width = 708.30435;
},
{
anchors = (
{
name = _topright;
pos = (552.087,688);
},
{
name = bottom;
pos = (354.652,0);
},
{
name = top;
pos = (354.652,688);
},
{
name = topright;
pos = (552.087,782.196);
}
);
layerId = m011;
shapes = (
{
closed = 1;
nodes = (
(618.152,648.587,ls),
(715.587,648.587,o),
(733.217,671.848,o),
(733.217,758.543,cs),
(733.217,782.196,l),
(674.13,782.196,l),
(674.13,751,ls),
(674.13,702,o),
(668.043,688,o),
(618.152,688,cs),
(552.087,688,l),
(552.087,648.587,l)
);
},
{
ref = U;
}
);
width = 708.30435;
},
{
anchors = (
{
name = _topright;
pos = (552.087,688);
},
{
name = bottom;
pos = (354.652,0);
},
{
name = top;
pos = (354.652,688);
},
{
name = topright;
pos = (552.087,782.196);
}
);
layerId = m012;
shapes = (
{
closed = 1;
nodes = (
(618.152,648.587,ls),
(715.587,648.587,o),
(733.217,671.848,o),
(733.217,758.543,cs),
(733.217,782.196,l),
(674.13,782.196,l),
(674.13,751,ls),
(674.13,702,o),
(668.043,688,o),
(618.152,688,cs),
(552.087,688,l),
(552.087,648.587,l)
);
},
{
ref = U;
}
);
width = 708.30435;
},
{
anchors = (
{
name = _topright;
pos = (552.087,688);
},
{
name = bottom;
pos = (354.652,0);
},
{
name = top;
pos = (354.652,688);
},
{
name = topright;
pos = (552.087,782.196);
}
);
layerId = m013;
shapes = (
{
closed = 1;
nodes = (
(618.152,648.587,ls),
(715.587,648.587,o),
(733.217,671.848,o),
(733.217,758.543,cs),
(733.217,782.196,l),
(674.13,782.196,l),
(674.13,751,ls),
(674.13,702,o),
(668.043,688,o),
(618.152,688,cs),
(552.087,688,l),
(552.087,648.587,l)
);
},
{
ref = U;
}
);
width = 708.30435;
},
{
anchors = (
{
name = _topright;
pos = (552.087,688);
},
{
name = bottom;
pos = (354.652,0);
},
{
name = top;
pos = (354.652,688);
},
{
name = topright;
pos = (552.087,782.196);
}
);
layerId = m014;
shapes = (
{
closed = 1;
nodes = (
(618.152,648.587,ls),
(715.587,648.587,o),
(733.217,671.848,o),
(733.217,758.543,cs),
(733.217,782.196,l),
(674.13,782.196,l),
(674.13,751,ls),
(674.13,702,o),
(668.043,688,o),
(618.152,688,cs),
(552.087,688,l),
(552.087,648.587,l)
);
},
{
ref = U;
}
);
width = 708.30435;
},
{
anchors = (
{
name = _topright;
pos = (552.087,688);
},
{
name = bottom;
pos = (354.652,0);
},
{
name = top;
pos = (354.652,688);
},
{
name = topright;
pos = (552.087,782.196);
}
);
layerId = m015;
shapes = (
{
closed = 1;
nodes = (
(618.152,648.587,ls),
(715.587,648.587,o),
(733.217,671.848,o),
(733.217,758.543,cs),
(733.217,782.196,l),
(674.13,782.196,l),
(674.13,751,ls),
(674.13,702,o),
(668.043,688,o),
(618.152,688,cs),
(552.087,688,l),
(552.087,648.587,l)
);
},
{
ref = U;
}
);
width = 708.30435;
},
{
anchors = (
{
name = _topright;
pos = (552.087,688);
},
{
name = bottom;
pos = (354.652,0);
},
{
name = top;
pos = (354.652,688);
},
{
name = topright;
pos = (552.087,782.196);
}
);
layerId = m016;
shapes = (
{
closed = 1;
nodes = (
(618.152,648.587,ls),
(715.587,648.587,o),
(733.217,671.848,o),
(733.217,758.543,cs),
(733.217,782.196,l),
(674.13,782.196,l),
(674.13,751,ls),
(674.13,702,o),
(668.043,688,o),
(618.152,688,cs),
(552.087,688,l),
(552.087,648.587,l)
);
},
{
ref = U;
}
);
width = 708.30435;
}
);
unicode = 431;
},
{
export = 0;
glyphname = Saltillo;
layers = (
{
layerId = m009;
shapes = (
{
closed = 1;
nodes = (
(143.913,283.674,l),
(166.435,510,l),
(166.435,688,l),
(89.13,688,l),
(89.13,283.674,l)
);
}
);
width = 255.56522;
},
{
layerId = m010;
shapes = (
{
closed = 1;
nodes = (
(143.913,283.674,l),
(166.435,510,l),
(166.435,688,l),
(89.13,688,l),
(89.13,283.674,l)
);
}
);
width = 255.56522;
},
{
layerId = m011;
shapes = (
{
closed = 1;
nodes = (
(143.913,283.674,l),
(166.435,510,l),
(166.435,688,l),
(89.13,688,l),
(89.13,283.674,l)
);
}
);
width = 255.56522;
},
{
layerId = m012;
shapes = (
{
closed = 1;
nodes = (
(143.913,283.674,l),
(166.435,510,l),
(166.435,688,l),
(89.13,688,l),
(89.13,283.674,l)
);
}
);
width = 255.56522;
},
{
layerId = m013;
shapes = (
{
closed = 1;
nodes = (
(143.913,283.674,l),
(166.435,510,l),
(166.435,688,l),
(89.13,688,l),
(89.13,283.674,l)
);
}
);
width = 255.56522;
},
{
layerId = m014;
shapes = (
{
closed = 1;
nodes = (
(143.913,283.674,l),
(166.435,510,l),
(166.435,688,l),
(89.13,688,l),
(89.13,283.674,l)
);
}
);
width = 255.56522;
},
{
layerId = m015;
shapes = (
{
closed = 1;
nodes = (
(143.913,283.674,l),
(166.435,510,l),
(166.435,688,l),
(89.13,688,l),
(89.13,283.674,l)
);
}
);
width = 255.56522;
},
{
layerId = m016;
shapes = (
{
closed = 1;
nodes = (
(143.913,283.674,l),
(166.435,510,l),
(166.435,688,l),
(89.13,688,l),
(89.13,283.674,l)
);
}
);
width = 255.56522;
}
);
unicode = 42891;
},
{
export = 0;
glyphname = Y.loclGUA;
kernLeft = U;
kernRight = U;
layers = (
{
anchors = (
{
name = bottom;
pos = (303.978,0);
},
{
name = top;
pos = (303.978,688);
},
{
name = topleft;
pos = (42.283,688);
}
);
layerId = m009;
shapes = (
{
closed = 1;
nodes = (
(541.152,196.565,o),
(567.217,256.935,o),
(567.217,505.087,cs),
(567.217,688,l),
(481.217,688,l),
(481.217,471.826,ls),
(481.217,304.739,o),
(472.565,270.783,o),
(304.978,270.783,cs),
(137.391,270.783,o),
(128.283,304.739,o),
(128.283,471.826,cs),
(128.283,688,l),
(42.283,688,l),
(42.283,505.087,ls),
(42.283,256.935,o),
(68.804,196.565,o),
(304.978,196.565,cs)
);
},
{
closed = 1;
nodes = (
(346.891,0,l),
(346.891,234.674,l),
(260.891,234.674,l),
(260.891,0,l)
);
}
);
width = 609.5;
},
{
anchors = (
{
name = bottom;
pos = (303.978,0);
},
{
name = top;
pos = (303.978,688);
},
{
name = topleft;
pos = (42.283,688);
}
);
layerId = m010;
shapes = (
{
closed = 1;
nodes = (
(541.152,196.565,o),
(567.217,256.935,o),
(567.217,505.087,cs),
(567.217,688,l),
(481.217,688,l),
(481.217,471.826,ls),
(481.217,304.739,o),
(472.565,270.783,o),
(304.978,270.783,cs),
(137.391,270.783,o),
(128.283,304.739,o),
(128.283,471.826,cs),
(128.283,688,l),
(42.283,688,l),
(42.283,505.087,ls),
(42.283,256.935,o),
(68.804,196.565,o),
(304.978,196.565,cs)
);
},
{
closed = 1;
nodes = (
(346.891,0,l),
(346.891,234.674,l),
(260.891,234.674,l),
(260.891,0,l)
);
}
);
width = 609.5;
},
{
anchors = (
{
name = bottom;
pos = (303.978,0);
},
{
name = top;
pos = (303.978,688);
},
{
name = topleft;
pos = (42.283,688);
}
);
layerId = m011;
shapes = (
{
closed = 1;
nodes = (
(541.152,196.565,o),
(567.217,256.935,o),
(567.217,505.087,cs),
(567.217,688,l),
(481.217,688,l),
(481.217,471.826,ls),
(481.217,304.739,o),
(472.565,270.783,o),
(304.978,270.783,cs),
(137.391,270.783,o),
(128.283,304.739,o),
(128.283,471.826,cs),
(128.283,688,l),
(42.283,688,l),
(42.283,505.087,ls),
(42.283,256.935,o),
(68.804,196.565,o),
(304.978,196.565,cs)
);
},
{
closed = 1;
nodes = (
(346.891,0,l),
(346.891,234.674,l),
(260.891,234.674,l),
(260.891,0,l)
);
}
);
width = 609.5;
},
{
anchors = (
{
name = bottom;
pos = (303.978,0);
},
{
name = top;
pos = (303.978,688);
},
{
name = topleft;
pos = (42.283,688);
}
);
layerId = m012;
shapes = (
{
closed = 1;
nodes = (
(541.152,196.565,o),
(567.217,256.935,o),
(567.217,505.087,cs),
(567.217,688,l),
(481.217,688,l),
(481.217,471.826,ls),
(481.217,304.739,o),
(472.565,270.783,o),
(304.978,270.783,cs),
(137.391,270.783,o),
(128.283,304.739,o),
(128.283,471.826,cs),
(128.283,688,l),
(42.283,688,l),
(42.283,505.087,ls),
(42.283,256.935,o),
(68.804,196.565,o),
(304.978,196.565,cs)
);
},
{
closed = 1;
nodes = (
(346.891,0,l),
(346.891,234.674,l),
(260.891,234.674,l),
(260.891,0,l)
);
}
);
width = 609.5;
},
{
anchors = (
{
name = bottom;
pos = (303.978,0);
},
{
name = top;
pos = (303.978,688);
},
{
name = topleft;
pos = (42.283,688);
}
);
layerId = m013;
shapes = (
{
closed = 1;
nodes = (
(541.152,196.565,o),
(567.217,256.935,o),
(567.217,505.087,cs),
(567.217,688,l),
(481.217,688,l),
(481.217,471.826,ls),
(481.217,304.739,o),
(472.565,270.783,o),
(304.978,270.783,cs),
(137.391,270.783,o),
(128.283,304.739,o),
(128.283,471.826,cs),
(128.283,688,l),
(42.283,688,l),
(42.283,505.087,ls),
(42.283,256.935,o),
(68.804,196.565,o),
(304.978,196.565,cs)
);
},
{
closed = 1;
nodes = (
(346.891,0,l),
(346.891,234.674,l),
(260.891,234.674,l),
(260.891,0,l)
);
}
);
width = 609.5;
},
{
anchors = (
{
name = bottom;
pos = (303.978,0);
},
{
name = top;
pos = (303.978,688);
},
{
name = topleft;
pos = (42.283,688);
}
);
layerId = m014;
shapes = (
{
closed = 1;
nodes = (
(541.152,196.565,o),
(567.217,256.935,o),
(567.217,505.087,cs),
(567.217,688,l),
(481.217,688,l),
(481.217,471.826,ls),
(481.217,304.739,o),
(472.565,270.783,o),
(304.978,270.783,cs),
(137.391,270.783,o),
(128.283,304.739,o),
(128.283,471.826,cs),
(128.283,688,l),
(42.283,688,l),
(42.283,505.087,ls),
(42.283,256.935,o),
(68.804,196.565,o),
(304.978,196.565,cs)
);
},
{
closed = 1;
nodes = (
(346.891,0,l),
(346.891,234.674,l),
(260.891,234.674,l),
(260.891,0,l)
);
}
);
width = 609.5;
},
{
anchors = (
{
name = bottom;
pos = (303.978,0);
},
{
name = top;
pos = (303.978,688);
},
{
name = topleft;
pos = (42.283,688);
}
);
layerId = m015;
shapes = (
{
closed = 1;
nodes = (
(541.152,196.565,o),
(567.217,256.935,o),
(567.217,505.087,cs),
(567.217,688,l),
(481.217,688,l),
(481.217,471.826,ls),
(481.217,304.739,o),
(472.565,270.783,o),
(304.978,270.783,cs),
(137.391,270.783,o),
(128.283,304.739,o),
(128.283,471.826,cs),
(128.283,688,l),
(42.283,688,l),
(42.283,505.087,ls),
(42.283,256.935,o),
(68.804,196.565,o),
(304.978,196.565,cs)
);
},
{
closed = 1;
nodes = (
(346.891,0,l),
(346.891,234.674,l),
(260.891,234.674,l),
(260.891,0,l)
);
}
);
width = 609.5;
},
{
anchors = (
{
name = bottom;
pos = (303.978,0);
},
{
name = top;
pos = (303.978,688);
},
{
name = topleft;
pos = (42.283,688);
}
);
layerId = m016;
shapes = (
{
closed = 1;
nodes = (
(541.152,196.565,o),
(567.217,256.935,o),
(567.217,505.087,cs),
(567.217,688,l),
(481.217,688,l),
(481.217,471.826,ls),
(481.217,304.739,o),
(472.565,270.783,o),
(304.978,270.783,cs),
(137.391,270.783,o),
(128.283,304.739,o),
(128.283,471.826,cs),
(128.283,688,l),
(42.283,688,l),
(42.283,505.087,ls),
(42.283,256.935,o),
(68.804,196.565,o),
(304.978,196.565,cs)
);
},
{
closed = 1;
nodes = (
(346.891,0,l),
(346.891,234.674,l),
(260.891,234.674,l),
(260.891,0,l)
);
}
);
width = 609.5;
}
);
},
{
export = 0;
glyphname = A.ss01;
kernLeft = U;
kernRight = U;
layers = (
{
anchors = (
{
name = bottom;
pos = (354.652,0);
},
{
name = ogonek;
pos = (616.348,0);
},
{
name = top;
pos = (354.652,688);
}
);
layerId = m009;
shapes = (
{
closed = 1;
nodes = (
(177.413,0,l),
(177.413,240.304,l),
(530.348,240.304,l),
(530.348,0,l),
(616.348,0,l),
(616.348,387.478,ls),
(616.348,635.63,o),
(589.826,696,o),
(353.652,696,cs),
(117.478,696,o),
(91.413,635.63,o),
(91.413,387.478,cs),
(91.413,0,l)
);
},
{
closed = 1;
nodes = (
(177.413,420.739,ls),
(177.413,587.826,o),
(186.065,621.783,o),
(353.652,621.783,cs),
(521.239,621.783,o),
(530.348,587.826,o),
(530.348,420.739,cs),
(530.348,317.239,l),
(177.413,317.239,l)
);
}
);
width = 708.30435;
},
{
anchors = (
{
name = bottom;
pos = (354.652,0);
},
{
name = ogonek;
pos = (616.348,0);
},
{
name = top;
pos = (354.652,688);
}
);
layerId = m010;
shapes = (
{
closed = 1;
nodes = (
(177.413,0,l),
(177.413,240.304,l),
(530.348,240.304,l),
(530.348,0,l),
(616.348,0,l),
(616.348,387.478,ls),
(616.348,635.63,o),
(589.826,696,o),
(353.652,696,cs),
(117.478,696,o),
(91.413,635.63,o),
(91.413,387.478,cs),
(91.413,0,l)
);
},
{
closed = 1;
nodes = (
(177.413,420.739,ls),
(177.413,587.826,o),
(186.065,621.783,o),
(353.652,621.783,cs),
(521.239,621.783,o),
(530.348,587.826,o),
(530.348,420.739,cs),
(530.348,317.239,l),
(177.413,317.239,l)
);
}
);
width = 708.30435;
},
{
anchors = (
{
name = bottom;
pos = (354.652,0);
},
{
name = ogonek;
pos = (616.348,0);
},
{
name = top;
pos = (354.652,688);
}
);
layerId = m011;
shapes = (
{
closed = 1;
nodes = (
(177.413,0,l),
(177.413,240.304,l),
(530.348,240.304,l),
(530.348,0,l),
(616.348,0,l),
(616.348,387.478,ls),
(616.348,635.63,o),
(589.826,696,o),
(353.652,696,cs),
(117.478,696,o),
(91.413,635.63,o),
(91.413,387.478,cs),
(91.413,0,l)
);
},
{
closed = 1;
nodes = (
(177.413,420.739,ls),
(177.413,587.826,o),
(186.065,621.783,o),
(353.652,621.783,cs),
(521.239,621.783,o),
(530.348,587.826,o),
(530.348,420.739,cs),
(530.348,317.239,l),
(177.413,317.239,l)
);
}
);
width = 708.30435;
},
{
anchors = (
{
name = bottom;
pos = (354.652,0);
},
{
name = ogonek;
pos = (616.348,0);
},
{
name = top;
pos = (354.652,688);
}
);
layerId = m012;
shapes = (
{
closed = 1;
nodes = (
(177.413,0,l),
(177.413,240.304,l),
(530.348,240.304,l),
(530.348,0,l),
(616.348,0,l),
(616.348,387.478,ls),
(616.348,635.63,o),
(589.826,696,o),
(353.652,696,cs),
(117.478,696,o),
(91.413,635.63,o),
(91.413,387.478,cs),
(91.413,0,l)
);
},
{
closed = 1;
nodes = (
(177.413,420.739,ls),
(177.413,587.826,o),
(186.065,621.783,o),
(353.652,621.783,cs),
(521.239,621.783,o),
(530.348,587.826,o),
(530.348,420.739,cs),
(530.348,317.239,l),
(177.413,317.239,l)
);
}
);
width = 708.30435;
},
{
anchors = (
{
name = bottom;
pos = (354.652,0);
},
{
name = ogonek;
pos = (616.348,0);
},
{
name = top;
pos = (354.652,688);
}
);
layerId = m013;
shapes = (
{
closed = 1;
nodes = (
(177.413,0,l),
(177.413,240.304,l),
(530.348,240.304,l),
(530.348,0,l),
(616.348,0,l),
(616.348,387.478,ls),
(616.348,635.63,o),
(589.826,696,o),
(353.652,696,cs),
(117.478,696,o),
(91.413,635.63,o),
(91.413,387.478,cs),
(91.413,0,l)
);
},
{
closed = 1;
nodes = (
(177.413,420.739,ls),
(177.413,587.826,o),
(186.065,621.783,o),
(353.652,621.783,cs),
(521.239,621.783,o),
(530.348,587.826,o),
(530.348,420.739,cs),
(530.348,317.239,l),
(177.413,317.239,l)
);
}
);
width = 708.30435;
},
{
anchors = (
{
name = bottom;
pos = (354.652,0);
},
{
name = ogonek;
pos = (616.348,0);
},
{
name = top;
pos = (354.652,688);
}
);
layerId = m014;
shapes = (
{
closed = 1;
nodes = (
(177.413,0,l),
(177.413,240.304,l),
(530.348,240.304,l),
(530.348,0,l),
(616.348,0,l),
(616.348,387.478,ls),
(616.348,635.63,o),
(589.826,696,o),
(353.652,696,cs),
(117.478,696,o),
(91.413,635.63,o),
(91.413,387.478,cs),
(91.413,0,l)
);
},
{
closed = 1;
nodes = (
(177.413,420.739,ls),
(177.413,587.826,o),
(186.065,621.783,o),
(353.652,621.783,cs),
(521.239,621.783,o),
(530.348,587.826,o),
(530.348,420.739,cs),
(530.348,317.239,l),
(177.413,317.239,l)
);
}
);
width = 708.30435;
},
{
anchors = (
{
name = bottom;
pos = (354.652,0);
},
{
name = ogonek;
pos = (616.348,0);
},
{
name = top;
pos = (354.652,688);
}
);
layerId = m015;
shapes = (
{
closed = 1;
nodes = (
(177.413,0,l),
(177.413,240.304,l),
(530.348,240.304,l),
(530.348,0,l),
(616.348,0,l),
(616.348,387.478,ls),
(616.348,635.63,o),
(589.826,696,o),
(353.652,696,cs),
(117.478,696,o),
(91.413,635.63,o),
(91.413,387.478,cs),
(91.413,0,l)
);
},
{
closed = 1;
nodes = (
(177.413,420.739,ls),
(177.413,587.826,o),
(186.065,621.783,o),
(353.652,621.783,cs),
(521.239,621.783,o),
(530.348,587.826,o),
(530.348,420.739,cs),
(530.348,317.239,l),
(177.413,317.239,l)
);
}
);
width = 708.30435;
},
{
anchors = (
{
name = bottom;
pos = (354.652,0);
},
{
name = ogonek;
pos = (616.348,0);
},
{
name = top;
pos = (354.652,688);
}
);
layerId = m016;
shapes = (
{
closed = 1;
nodes = (
(177.413,0,l),
(177.413,240.304,l),
(530.348,240.304,l),
(530.348,0,l),
(616.348,0,l),
(616.348,387.478,ls),
(616.348,635.63,o),
(589.826,696,o),
(353.652,696,cs),
(117.478,696,o),
(91.413,635.63,o),
(91.413,387.478,cs),
(91.413,0,l)
);
},
{
closed = 1;
nodes = (
(177.413,420.739,ls),
(177.413,587.826,o),
(186.065,621.783,o),
(353.652,621.783,cs),
(521.239,621.783,o),
(530.348,587.826,o),
(530.348,420.739,cs),
(530.348,317.239,l),
(177.413,317.239,l)
);
}
);
width = 708.30435;
}
);
},
{
export = 0;
glyphname = G.ss01;
kernLeft = O;
kernRight = U;
layers = (
{
anchors = (
{
name = bottom;
pos = (346.826,0);
},
{
name = top;
pos = (346.826,688);
}
);
layerId = m009;
shapes = (
{
closed = 1;
nodes = (
(612.783,-8,o),
(619.522,50.065,o),
(619.522,296.826,cs),
(619.522,378.109,l),
(377.5,378.109,l),
(377.5,305.522,l),
(534.065,305.522,l),
(534.065,280.348,ls),
(534.065,84.152,o),
(526.326,65.674,o),
(364.478,65.674,cs),
(188.413,65.674,o),
(162.413,94.804,o),
(162.413,344,cs),
(162.413,618.239,o),
(203.543,621.783,o),
(418.696,621.783,cs),
(457.804,621.783,o),
(529.913,615.326,o),
(594.891,606.326,c),
(594.891,675.826,l),
(534.739,687.457,o),
(444.109,696,o),
(376.196,696,cs),
(130.217,696,o),
(76.413,639.065,o),
(76.413,344,cs),
(76.413,48.935,o),
(120.87,-8,o),
(368.283,-8,cs)
);
}
);
width = 693.1087;
},
{
anchors = (
{
name = bottom;
pos = (346.826,0);
},
{
name = top;
pos = (346.826,688);
}
);
layerId = m010;
shapes = (
{
closed = 1;
nodes = (
(612.783,-8,o),
(619.522,50.065,o),
(619.522,296.826,cs),
(619.522,378.109,l),
(377.5,378.109,l),
(377.5,305.522,l),
(534.065,305.522,l),
(534.065,280.348,ls),
(534.065,84.152,o),
(526.326,65.674,o),
(364.478,65.674,cs),
(188.413,65.674,o),
(162.413,94.804,o),
(162.413,344,cs),
(162.413,618.239,o),
(203.543,621.783,o),
(418.696,621.783,cs),
(457.804,621.783,o),
(529.913,615.326,o),
(594.891,606.326,c),
(594.891,675.826,l),
(534.739,687.457,o),
(444.109,696,o),
(376.196,696,cs),
(130.217,696,o),
(76.413,639.065,o),
(76.413,344,cs),
(76.413,48.935,o),
(120.87,-8,o),
(368.283,-8,cs)
);
}
);
width = 693.1087;
},
{
anchors = (
{
name = bottom;
pos = (346.826,0);
},
{
name = top;
pos = (346.826,688);
}
);
layerId = m011;
shapes = (
{
closed = 1;
nodes = (
(612.783,-8,o),
(619.522,50.065,o),
(619.522,296.826,cs),
(619.522,378.109,l),
(377.5,378.109,l),
(377.5,305.522,l),
(534.065,305.522,l),
(534.065,280.348,ls),
(534.065,84.152,o),
(526.326,65.674,o),
(364.478,65.674,cs),
(188.413,65.674,o),
(162.413,94.804,o),
(162.413,344,cs),
(162.413,618.239,o),
(203.543,621.783,o),
(418.696,621.783,cs),
(457.804,621.783,o),
(529.913,615.326,o),
(594.891,606.326,c),
(594.891,675.826,l),
(534.739,687.457,o),
(444.109,696,o),
(376.196,696,cs),
(130.217,696,o),
(76.413,639.065,o),
(76.413,344,cs),
(76.413,48.935,o),
(120.87,-8,o),
(368.283,-8,cs)
);
}
);
width = 693.1087;
},
{
anchors = (
{
name = bottom;
pos = (346.826,0);
},
{
name = top;
pos = (346.826,688);
}
);
layerId = m012;
shapes = (
{
closed = 1;
nodes = (
(612.783,-8,o),
(619.522,50.065,o),
(619.522,296.826,cs),
(619.522,378.109,l),
(377.5,378.109,l),
(377.5,305.522,l),
(534.065,305.522,l),
(534.065,280.348,ls),
(534.065,84.152,o),
(526.326,65.674,o),
(364.478,65.674,cs),
(188.413,65.674,o),
(162.413,94.804,o),
(162.413,344,cs),
(162.413,618.239,o),
(203.543,621.783,o),
(418.696,621.783,cs),
(457.804,621.783,o),
(529.913,615.326,o),
(594.891,606.326,c),
(594.891,675.826,l),
(534.739,687.457,o),
(444.109,696,o),
(376.196,696,cs),
(130.217,696,o),
(76.413,639.065,o),
(76.413,344,cs),
(76.413,48.935,o),
(120.87,-8,o),
(368.283,-8,cs)
);
}
);
width = 693.1087;
},
{
anchors = (
{
name = bottom;
pos = (346.826,0);
},
{
name = top;
pos = (346.826,688);
}
);
layerId = m013;
shapes = (
{
closed = 1;
nodes = (
(612.783,-8,o),
(619.522,50.065,o),
(619.522,296.826,cs),
(619.522,378.109,l),
(377.5,378.109,l),
(377.5,305.522,l),
(534.065,305.522,l),
(534.065,280.348,ls),
(534.065,84.152,o),
(526.326,65.674,o),
(364.478,65.674,cs),
(188.413,65.674,o),
(162.413,94.804,o),
(162.413,344,cs),
(162.413,618.239,o),
(203.543,621.783,o),
(418.696,621.783,cs),
(457.804,621.783,o),
(529.913,615.326,o),
(594.891,606.326,c),
(594.891,675.826,l),
(534.739,687.457,o),
(444.109,696,o),
(376.196,696,cs),
(130.217,696,o),
(76.413,639.065,o),
(76.413,344,cs),
(76.413,48.935,o),
(120.87,-8,o),
(368.283,-8,cs)
);
}
);
width = 693.1087;
},
{
anchors = (
{
name = bottom;
pos = (346.826,0);
},
{
name = top;
pos = (346.826,688);
}
);
layerId = m014;
shapes = (
{
closed = 1;
nodes = (
(612.783,-8,o),
(619.522,50.065,o),
(619.522,296.826,cs),
(619.522,378.109,l),
(377.5,378.109,l),
(377.5,305.522,l),
(534.065,305.522,l),
(534.065,280.348,ls),
(534.065,84.152,o),
(526.326,65.674,o),
(364.478,65.674,cs),
(188.413,65.674,o),
(162.413,94.804,o),
(162.413,344,cs),
(162.413,618.239,o),
(203.543,621.783,o),
(418.696,621.783,cs),
(457.804,621.783,o),
(529.913,615.326,o),
(594.891,606.326,c),
(594.891,675.826,l),
(534.739,687.457,o),
(444.109,696,o),
(376.196,696,cs),
(130.217,696,o),
(76.413,639.065,o),
(76.413,344,cs),
(76.413,48.935,o),
(120.87,-8,o),
(368.283,-8,cs)
);
}
);
width = 693.1087;
},
{
anchors = (
{
name = bottom;
pos = (346.826,0);
},
{
name = top;
pos = (346.826,688);
}
);
layerId = m015;
shapes = (
{
closed = 1;
nodes = (
(612.783,-8,o),
(619.522,50.065,o),
(619.522,296.826,cs),
(619.522,378.109,l),
(377.5,378.109,l),
(377.5,305.522,l),
(534.065,305.522,l),
(534.065,280.348,ls),
(534.065,84.152,o),
(526.326,65.674,o),
(364.478,65.674,cs),
(188.413,65.674,o),
(162.413,94.804,o),
(162.413,344,cs),
(162.413,618.239,o),
(203.543,621.783,o),
(418.696,621.783,cs),
(457.804,621.783,o),
(529.913,615.326,o),
(594.891,606.326,c),
(594.891,675.826,l),
(534.739,687.457,o),
(444.109,696,o),
(376.196,696,cs),
(130.217,696,o),
(76.413,639.065,o),
(76.413,344,cs),
(76.413,48.935,o),
(120.87,-8,o),
(368.283,-8,cs)
);
}
);
width = 693.1087;
},
{
anchors = (
{
name = bottom;
pos = (346.826,0);
},
{
name = top;
pos = (346.826,688);
}
);
layerId = m016;
shapes = (
{
closed = 1;
nodes = (
(612.783,-8,o),
(619.522,50.065,o),
(619.522,296.826,cs),
(619.522,378.109,l),
(377.5,378.109,l),
(377.5,305.522,l),
(534.065,305.522,l),
(534.065,280.348,ls),
(534.065,84.152,o),
(526.326,65.674,o),
(364.478,65.674,cs),
(188.413,65.674,o),
(162.413,94.804,o),
(162.413,344,cs),
(162.413,618.239,o),
(203.543,621.783,o),
(418.696,621.783,cs),
(457.804,621.783,o),
(529.913,615.326,o),
(594.891,606.326,c),
(594.891,675.826,l),
(534.739,687.457,o),
(444.109,696,o),
(376.196,696,cs),
(130.217,696,o),
(76.413,639.065,o),
(76.413,344,cs),
(76.413,48.935,o),
(120.87,-8,o),
(368.283,-8,cs)
);
}
);
width = 693.1087;
}
);
},
